<svg width="51" height="51" viewBox="0 0 51 51" fill="none" xmlns="http://www.w3.org/2000/svg">
<path d="M46.7347 26.1078C46.2344 25.9807 45.7139 25.9543 45.2034 26.0301C44.6928 26.1058 44.2024 26.2823 43.7607 26.5492C42.8558 27.0803 41.8446 27.4044 40.7996 27.498C40.4026 25.7393 39.577 24.106 38.3961 22.7436L39.4997 21.64C39.9762 21.9268 40.5212 22.0798 41.0773 22.0827C41.6954 22.0828 42.2996 21.8995 42.8135 21.5561C43.3275 21.2127 43.728 20.7246 43.9646 20.1536C44.2011 19.5825 44.263 18.9542 44.1424 18.3479C44.0218 17.7417 43.7242 17.1849 43.2871 16.7478C42.8501 16.3107 42.2932 16.0131 41.687 15.8925C41.0808 15.7719 40.4524 15.8338 39.8814 16.0704C39.3103 16.3069 38.8223 16.7074 38.4789 17.2214C38.1355 17.7353 37.9522 18.3395 37.9522 18.9576C37.9552 19.5137 38.1081 20.0587 38.395 20.5352L37.2914 21.6388C35.9314 20.4601 34.3016 19.6353 32.5464 19.2375C32.7115 18.1203 33.0724 17.041 33.6124 16.0491C33.9248 15.4438 34.0735 14.7672 34.0437 14.0867C34.014 13.4061 33.8069 12.7451 33.4429 12.1693C33.0789 11.5935 32.5707 11.1228 31.9687 10.804C31.3667 10.4852 30.6918 10.3293 30.0109 10.3517C29.3301 10.3742 28.667 10.5743 28.0873 10.9321C27.5076 11.2899 27.0315 11.7931 26.7063 12.3916C26.3811 12.9902 26.218 13.6634 26.2332 14.3445C26.2484 15.0255 26.4414 15.6908 26.793 16.2742C27.3236 17.1776 27.6476 18.1873 27.7416 19.2307C25.982 19.6278 24.3485 20.4552 22.9874 21.6388L21.8837 20.5351C22.1706 20.0587 22.3236 19.5137 22.3266 18.9576C22.3266 18.3395 22.1433 17.7353 21.7999 17.2214C21.4565 16.7074 20.9684 16.3069 20.3974 16.0704C19.8264 15.8338 19.198 15.7719 18.5918 15.8925C17.9856 16.0131 17.4287 16.3108 16.9917 16.7478C16.5546 17.1849 16.257 17.7417 16.1364 18.3479C16.0158 18.9541 16.0777 19.5825 16.3142 20.1535C16.5508 20.7246 16.9513 21.2126 17.4653 21.556C17.9792 21.8994 18.5834 22.0827 19.2015 22.0827C19.7576 22.0798 20.3026 21.9268 20.779 21.6399L21.8827 22.7436C20.7014 24.1022 19.8749 25.7323 19.4772 27.4882C18.3614 27.3226 17.2836 26.9618 16.2931 26.4221C15.6879 26.1103 15.0118 25.9621 14.3316 25.9922C13.6515 26.0222 12.991 26.2295 12.4157 26.5935C11.8404 26.9574 11.3701 27.4654 11.0516 28.0671C10.7331 28.6688 10.5773 29.3432 10.5998 30.0237C10.6222 30.7041 10.8221 31.3668 11.1796 31.9462C11.5371 32.5255 12.0398 33.0014 12.6379 33.3267C13.236 33.6519 13.9087 33.8151 14.5893 33.8003C15.2699 33.7854 15.9349 33.593 16.5182 33.242C17.4217 32.7115 18.4313 32.3876 19.4747 32.2934C19.8717 34.053 20.6991 35.6865 21.8827 37.0476L20.779 38.1513C20.3026 37.8644 19.7577 37.7114 19.2016 37.7084C18.5835 37.7084 17.9792 37.8917 17.4653 38.2351C16.9514 38.5785 16.5508 39.0665 16.3143 39.6376C16.0777 40.2086 16.0159 40.837 16.1364 41.4432C16.257 42.0494 16.5547 42.6063 16.9917 43.0433C17.4288 43.4804 17.9856 43.778 18.5918 43.8986C19.1981 44.0192 19.8264 43.9573 20.3975 43.7208C20.9685 43.4843 21.4566 43.0837 21.8 42.5698C22.1434 42.0559 22.3267 41.4516 22.3267 40.8335C22.3237 40.2774 22.1707 39.7324 21.8838 39.256L22.9875 38.1524C24.3461 39.3337 25.9762 40.1602 27.7321 40.5579C27.5665 41.6736 27.2058 42.7514 26.6664 43.742C26.354 44.3474 26.2053 45.0239 26.2351 45.7044C26.2648 46.385 26.4719 47.046 26.8359 47.6218C27.1999 48.1976 27.7081 48.6683 28.3101 48.9871C28.9121 49.3059 29.587 49.4619 30.2679 49.4394C30.9487 49.4169 31.6119 49.2168 32.1915 48.859C32.7712 48.5012 33.2473 47.998 33.5725 47.3995C33.8977 46.8009 34.0608 46.1277 34.0456 45.4467C34.0304 44.7656 33.8374 44.1004 33.4858 43.5169C32.9552 42.6135 32.6313 41.6038 32.5373 40.5603C34.2968 40.1633 35.9303 39.336 37.2914 38.1524L38.395 39.256C38.1082 39.7324 37.9552 40.2774 37.9522 40.8335C37.9522 41.4516 38.1355 42.0558 38.4789 42.5698C38.8223 43.0837 39.3104 43.4842 39.8814 43.7208C40.4525 43.9573 41.0808 44.0192 41.687 43.8986C42.2933 43.778 42.8501 43.4804 43.2871 43.0433C43.7242 42.6062 44.0218 42.0494 44.1424 41.4432C44.263 40.837 44.2011 40.2086 43.9646 39.6376C43.728 39.0665 43.3275 38.5785 42.8136 38.2351C42.2996 37.8917 41.6954 37.7084 41.0773 37.7084C40.5212 37.7113 39.9762 37.8643 39.4998 38.1512L38.3962 37.0476C39.5775 35.6889 40.404 34.0588 40.8017 32.3029C41.9175 32.4683 42.9953 32.8292 43.9858 33.369C44.475 33.6197 45.0116 33.7643 45.5606 33.7934C46.1095 33.8225 46.6584 33.7354 47.1714 33.5378C47.6844 33.3402 48.1499 33.0366 48.5375 32.6468C48.9251 32.2569 49.226 31.7897 49.4207 31.2756C49.6153 30.7615 49.6992 30.2121 49.667 29.6633C49.6347 29.1145 49.487 28.5787 49.2335 28.091C48.98 27.6032 48.6264 27.1744 48.1958 26.8327C47.7652 26.4909 47.2673 26.2439 46.7347 26.1078H46.7347ZM23.8892 34.5833C23.5801 34.5833 23.278 34.4916 23.0211 34.3199C22.7641 34.1482 22.5638 33.9042 22.4455 33.6187C22.3273 33.3331 22.2963 33.019 22.3566 32.7159C22.4169 32.4127 22.5657 32.1343 22.7843 31.9158C23.0028 31.6973 23.2812 31.5484 23.5843 31.4881C23.8874 31.4279 24.2016 31.4588 24.4871 31.5771C24.7727 31.6953 25.0167 31.8956 25.1884 32.1526C25.3601 32.4095 25.4517 32.7117 25.4517 33.0207C25.4513 33.435 25.2866 33.8322 24.9936 34.1251C24.7007 34.4181 24.3035 34.5829 23.8892 34.5833ZM26.233 25.9891C26.233 25.5256 26.3705 25.0724 26.628 24.687C26.8856 24.3015 27.2516 24.0011 27.6799 23.8237C28.1082 23.6463 28.5795 23.5999 29.0341 23.6904C29.4888 23.7808 29.9064 24.004 30.2342 24.3318C30.562 24.6596 30.7852 25.0772 30.8757 25.5319C30.9661 25.9866 30.9197 26.4578 30.7423 26.8861C30.5649 27.3144 30.2645 27.6804 29.879 27.938C29.4936 28.1955 29.0404 28.333 28.5769 28.333C27.9554 28.3323 27.3597 28.0851 26.9203 27.6457C26.4809 27.2063 26.2337 26.6106 26.233 25.9891ZM30.1394 33.0207C30.1394 32.4026 30.3227 31.7984 30.6661 31.2844C31.0095 30.7705 31.4976 30.37 32.0686 30.1334C32.6397 29.8969 33.268 29.835 33.8742 29.9556C34.4804 30.0762 35.0373 30.3738 35.4743 30.8109C35.9114 31.2479 36.209 31.8048 36.3296 32.411C36.4502 33.0172 36.3883 33.6456 36.1518 34.2166C35.9152 34.7876 35.5147 35.2757 35.0008 35.6191C34.4868 35.9625 33.8826 36.1458 33.2645 36.1458C32.436 36.1449 31.6416 35.8154 31.0557 35.2295C30.4699 34.6436 30.1403 33.8492 30.1394 33.0207Z" fill="#E2D9F3"/>
<path d="M40.2957 24.4635C40.2933 23.4291 39.8807 22.4377 39.1484 21.7071C38.4161 20.9764 37.4239 20.566 36.3894 20.5659H34.8069C35.3236 19.8955 35.6051 19.0736 35.6082 18.2273C35.6058 17.1928 35.1932 16.2015 34.4609 15.4708C33.7286 14.7401 32.7364 14.3297 31.7019 14.3296H17.3411L18.9544 11.1102C19.734 9.56763 19.9063 7.78859 19.4372 6.12503C18.9681 4.46148 17.8917 3.03456 16.421 2.12654C16.1401 1.95151 15.8253 1.83787 15.4974 1.79308C15.1694 1.74829 14.8357 1.77335 14.5181 1.86663C14.2005 1.9599 13.9063 2.11928 13.6546 2.3343C13.403 2.54933 13.1996 2.81513 13.058 3.11428L9.45766 10.7487C8.94892 11.8183 8.1479 12.7222 7.14718 13.3559C6.14645 13.9895 4.98685 14.3271 3.80237 14.3296H2.01443C1.91185 14.3293 1.81022 14.3492 1.71536 14.3883C1.62049 14.4273 1.53427 14.4847 1.46162 14.5571C1.38897 14.6295 1.33133 14.7155 1.292 14.8103C1.25267 14.905 1.23242 15.0066 1.23242 15.1092C1.23242 15.2118 1.25267 15.3133 1.292 15.4081C1.33133 15.5028 1.38897 15.5888 1.46162 15.6613C1.53427 15.7337 1.62049 15.7911 1.71536 15.8301C1.81022 15.8691 1.91185 15.889 2.01443 15.8887H3.80237C5.28297 15.8856 6.73247 15.4636 7.98337 14.6715C9.23427 13.8795 10.2355 12.7496 10.8714 11.4125L14.4717 3.77852C14.5187 3.67858 14.5863 3.58974 14.6702 3.51787C14.7541 3.446 14.8522 3.39273 14.9581 3.36158C15.0641 3.33043 15.1755 3.32211 15.2849 3.33716C15.3943 3.35221 15.4992 3.39029 15.5928 3.4489C16.7329 4.15277 17.5673 5.2589 17.931 6.54848C18.2946 7.83806 18.1611 9.21715 17.5566 10.413L15.3781 14.7605C15.3188 14.8795 15.2909 15.0117 15.297 15.1445C15.3032 15.2773 15.3432 15.4063 15.4132 15.5193C15.4832 15.6323 15.5809 15.7256 15.6971 15.7902C15.8132 15.8549 15.944 15.8888 16.0769 15.8887H31.7019C32.0095 15.8879 32.3143 15.9478 32.5987 16.0649C32.8832 16.1821 33.1417 16.3543 33.3595 16.5715C33.5773 16.7887 33.7501 17.0468 33.868 17.3309C33.9859 17.6151 34.0466 17.9197 34.0466 18.2273C34.0466 18.5349 33.9859 18.8395 33.868 19.1236C33.7501 19.4077 33.5773 19.6658 33.3595 19.8831C33.1417 20.1003 32.8832 20.2724 32.5987 20.3896C32.3143 20.5068 32.0095 20.5667 31.7019 20.5659H23.8894C23.7868 20.5655 23.6852 20.5855 23.5904 20.6245C23.4955 20.6635 23.4093 20.7209 23.3366 20.7933C23.264 20.8657 23.2063 20.9518 23.167 21.0465C23.1277 21.1413 23.1074 21.2428 23.1074 21.3454C23.1074 21.448 23.1277 21.5496 23.167 21.6443C23.2063 21.739 23.264 21.8251 23.3366 21.8975C23.4093 21.9699 23.4955 22.0273 23.5904 22.0663C23.6852 22.1053 23.7868 22.1253 23.8894 22.1249H36.3894C36.697 22.1241 37.0018 22.1841 37.2862 22.3012C37.5707 22.4184 37.8292 22.5905 38.047 22.8078C38.2648 23.025 38.4376 23.2831 38.5555 23.5672C38.6734 23.8513 38.7341 24.1559 38.7341 24.4635C38.7341 24.7712 38.6734 25.0758 38.5555 25.3599C38.4376 25.644 38.2648 25.9021 38.047 26.1193C37.8292 26.3366 37.5707 26.5087 37.2862 26.6259C37.0018 26.743 36.697 26.8029 36.3894 26.8021H22.3269C22.2243 26.8018 22.1227 26.8217 22.0279 26.8608C21.933 26.8998 21.8468 26.9572 21.7741 27.0296C21.7015 27.102 21.6438 27.1881 21.6045 27.2828C21.5652 27.3775 21.5449 27.4791 21.5449 27.5817C21.5449 27.6843 21.5652 27.7858 21.6045 27.8806C21.6438 27.9753 21.7015 28.0614 21.7741 28.1338C21.8468 28.2062 21.933 28.2636 22.0279 28.3026C22.1227 28.3416 22.2243 28.3615 22.3269 28.3612H33.2644C33.5719 28.3607 33.8765 28.4207 34.1607 28.538C34.4449 28.6553 34.7032 28.8274 34.9208 29.0447C35.1385 29.2619 35.3111 29.5199 35.4289 29.8039C35.5467 30.0879 35.6073 30.3924 35.6073 30.6998C35.6073 31.0073 35.5467 31.3117 35.4289 31.5958C35.3111 31.8798 35.1385 32.1378 34.9208 32.355C34.7032 32.5722 34.4449 32.7444 34.1607 32.8616C33.8765 32.9789 33.5719 33.039 33.2644 33.0384H21.5457C21.3389 33.0384 21.1407 33.1206 20.9945 33.2667C20.8483 33.4129 20.7661 33.6112 20.7661 33.818C20.7661 34.0247 20.8483 34.223 20.9945 34.3692C21.1407 34.5154 21.3389 34.5975 21.5457 34.5975H27.7957C28.1031 34.5969 28.4077 34.657 28.6919 34.7743C28.9762 34.8916 29.2345 35.0637 29.4521 35.2809C29.6697 35.4982 29.8423 35.7561 29.9601 36.0402C30.0779 36.3242 30.1386 36.6286 30.1386 36.9361C30.1386 37.2436 30.0779 37.548 29.9601 37.832C29.8423 38.116 29.6697 38.374 29.4521 38.5913C29.2345 38.8085 28.9762 38.9806 28.6919 39.0979C28.4077 39.2152 28.1031 39.2753 27.7957 39.2747H14.4404C13.6003 39.2759 12.7702 39.0922 12.009 38.7365C11.2479 38.3808 10.5744 37.8619 10.0364 37.2166C9.3518 36.3954 8.4948 35.735 7.52624 35.2824C6.55767 34.8297 5.50131 34.5959 4.43219 34.5975H2.01443C1.91185 34.5972 1.81022 34.6171 1.71536 34.6562C1.62049 34.6952 1.53427 34.7525 1.46162 34.825C1.38897 34.8974 1.33133 34.9834 1.292 35.0782C1.25267 35.1729 1.23242 35.2745 1.23242 35.3771C1.23242 35.4796 1.25267 35.5812 1.292 35.6759C1.33133 35.7707 1.38897 35.8567 1.46162 35.9291C1.53427 36.0016 1.62049 36.0589 1.71536 36.098C1.81022 36.137 1.91185 36.1569 2.01443 36.1566H4.43219C5.27233 36.1554 6.10245 36.3391 6.86358 36.6948C7.62472 37.0505 8.29822 37.5694 8.83625 38.2147C9.5208 39.0359 10.3778 39.6963 11.3464 40.149C12.3149 40.6016 13.3713 40.8354 14.4404 40.8338H27.7957C28.8302 40.8337 29.8224 40.4233 30.5547 39.6926C31.287 38.9619 31.6996 37.9706 31.7019 36.9361C31.6989 36.0898 31.4173 35.2679 30.9007 34.5975H33.2644C34.2989 34.5974 35.2911 34.187 36.0234 33.4564C36.7557 32.7257 37.1683 31.7344 37.1707 30.6999C37.1676 29.8535 36.8861 29.0317 36.3694 28.3613H36.3894C37.4239 28.3612 38.4162 27.9508 39.1485 27.2201C39.8808 26.4894 40.2933 25.498 40.2957 24.4635Z" fill="#212529"/>
<path d="M9.43555 19.7891C10.0828 19.7891 10.6074 19.2644 10.6074 18.6172C10.6074 17.97 10.0828 17.4453 9.43555 17.4453C8.78834 17.4453 8.26367 17.97 8.26367 18.6172C8.26367 19.2644 8.78834 19.7891 9.43555 19.7891Z" fill="#212529"/>
<path d="M5.5293 23.6865C6.17651 23.6865 6.70117 23.1619 6.70117 22.5146C6.70117 21.8674 6.17651 21.3428 5.5293 21.3428C4.88209 21.3428 4.35742 21.8674 4.35742 22.5146C4.35742 23.1619 4.88209 23.6865 5.5293 23.6865Z" fill="#212529"/>
<path d="M7.87305 28.3638C8.52025 28.3638 9.04492 27.8391 9.04492 27.1919C9.04492 26.5447 8.52025 26.02 7.87305 26.02C7.22584 26.02 6.70117 26.5447 6.70117 27.1919C6.70117 27.8391 7.22584 28.3638 7.87305 28.3638Z" fill="#212529"/>
<path d="M7.87305 33.0415C8.52025 33.0415 9.04492 32.5168 9.04492 31.8696C9.04492 31.2224 8.52025 30.6978 7.87305 30.6978C7.22584 30.6978 6.70117 31.2224 6.70117 31.8696C6.70117 32.5168 7.22584 33.0415 7.87305 33.0415Z" fill="#212529"/>
<path d="M13.3418 34.6001C13.989 34.6001 14.5137 34.0754 14.5137 33.4282C14.5137 32.781 13.989 32.2563 13.3418 32.2563C12.6946 32.2563 12.1699 32.781 12.1699 33.4282C12.1699 34.0754 12.6946 34.6001 13.3418 34.6001Z" fill="#212529"/>
<path d="M14.123 29.1436C14.7703 29.1436 15.2949 28.6189 15.2949 27.9717C15.2949 27.3245 14.7703 26.7998 14.123 26.7998C13.4758 26.7998 12.9512 27.3245 12.9512 27.9717C12.9512 28.6189 13.4758 29.1436 14.123 29.1436Z" fill="#212529"/>
<path d="M10.998 24.4663C11.6453 24.4663 12.1699 23.9416 12.1699 23.2944C12.1699 22.6472 11.6453 22.1226 10.998 22.1226C10.3508 22.1226 9.82617 22.6472 9.82617 23.2944C9.82617 23.9416 10.3508 24.4663 10.998 24.4663Z" fill="#212529"/>
<path d="M15.6855 20.5688C16.3328 20.5688 16.8574 20.0442 16.8574 19.397C16.8574 18.7498 16.3328 18.2251 15.6855 18.2251C15.0383 18.2251 14.5137 18.7498 14.5137 19.397C14.5137 20.0442 15.0383 20.5688 15.6855 20.5688Z" fill="#212529"/>
<path d="M16.4668 25.2461C17.114 25.2461 17.6387 24.7214 17.6387 24.0742C17.6387 23.427 17.114 22.9023 16.4668 22.9023C15.8196 22.9023 15.2949 23.427 15.2949 24.0742C15.2949 24.7214 15.8196 25.2461 16.4668 25.2461Z" fill="#212529"/>
<path d="M17.248 32.2617C17.8953 32.2617 18.4199 31.7371 18.4199 31.0898C18.4199 30.4426 17.8953 29.918 17.248 29.918C16.6008 29.918 16.0762 30.4426 16.0762 31.0898C16.0762 31.7371 16.6008 32.2617 17.248 32.2617Z" fill="#212529"/>
</svg>
