<svg width="21" height="21" viewBox="0 0 21 21" fill="none" xmlns="http://www.w3.org/2000/svg">
<path fill-rule="evenodd" clip-rule="evenodd" d="M20.0076 10.6573C20.0076 13.3095 18.954 15.8531 17.0786 17.7284C15.2033 19.6038 12.6597 20.6573 10.0076 20.6573C7.3554 20.6573 4.81186 19.6038 2.9365 17.7284C1.06114 15.8531 0.00756836 13.3095 0.00756836 10.6573C0.00756836 8.00518 1.06114 5.46164 2.9365 3.58628C4.81186 1.71092 7.3554 0.657349 10.0076 0.657349C12.6597 0.657349 15.2033 1.71092 17.0786 3.58628C18.954 5.46164 20.0076 8.00518 20.0076 10.6573ZM5.63257 11.2823C5.46681 11.2823 5.30784 11.2165 5.19063 11.0993C5.07342 10.9821 5.00757 10.8231 5.00757 10.6573C5.00757 10.4916 5.07342 10.3326 5.19063 10.2154C5.30784 10.0982 5.46681 10.0323 5.63257 10.0323H12.8738L10.1901 7.34985C10.0727 7.23249 10.0068 7.07332 10.0068 6.90735C10.0068 6.74138 10.0727 6.58221 10.1901 6.46485C10.3074 6.34749 10.4666 6.28156 10.6326 6.28156C10.7985 6.28156 10.9577 6.34749 11.0751 6.46485L14.8251 10.2148C14.8833 10.2729 14.9295 10.3419 14.961 10.4178C14.9925 10.4937 15.0087 10.5751 15.0087 10.6573C15.0087 10.7396 14.9925 10.821 14.961 10.8969C14.9295 10.9728 14.8833 11.0418 14.8251 11.0998L11.0751 14.8498C10.9577 14.9672 10.7985 15.0331 10.6326 15.0331C10.4666 15.0331 10.3074 14.9672 10.1901 14.8498C10.0727 14.7325 10.0068 14.5733 10.0068 14.4073C10.0068 14.2414 10.0727 14.0822 10.1901 13.9648L12.8738 11.2823H5.63257Z" fill="#5E3B76"/>
</svg>
