<svg width="82" height="19" viewBox="0 0 82 19" fill="none" xmlns="http://www.w3.org/2000/svg">
<path fillRule="evenodd" clipRule="evenodd" d="M0.0078125 9.92639C0.0078125 9.66215 0.112785 9.40872 0.299636 9.22187C0.486488 9.03502 0.739912 8.93005 1.00416 8.93005H77.6425L71.3715 2.66103C71.1845 2.47394 71.0793 2.2202 71.0793 1.95561C71.0793 1.69103 71.1845 1.43729 71.3715 1.2502C71.5586 1.06311 71.8124 0.958008 72.077 0.958008C72.3415 0.958008 72.5953 1.06311 72.7824 1.2502L80.7531 9.22098C80.8459 9.31353 80.9196 9.42348 80.9698 9.54453C81.02 9.66557 81.0459 9.79534 81.0459 9.92639C81.0459 10.0574 81.02 10.1872 80.9698 10.3083C80.9196 10.4293 80.8459 10.5393 80.7531 10.6318L72.7824 18.6026C72.5953 18.7897 72.3415 18.8948 72.077 18.8948C71.8124 18.8948 71.5586 18.7897 71.3715 18.6026C71.1845 18.4155 71.0793 18.1618 71.0793 17.8972C71.0793 17.6326 71.1845 17.3788 71.3715 17.1918L77.6425 10.9227H1.00416C0.739912 10.9227 0.486488 10.8178 0.299636 10.6309C0.112785 10.4441 0.0078125 10.1906 0.0078125 9.92639Z" fill="#5E3B76"/>
</svg>
