<svg width="21" height="21" viewBox="0 0 21 21" fill="none" xmlns="http://www.w3.org/2000/svg">
<g clip-path="url(#clip0_9452_61163)">
<path fill-rule="evenodd" clip-rule="evenodd" d="M10.0076 19.4073C12.3282 19.4073 14.5538 18.4855 16.1948 16.8445C17.8357 15.2036 18.7576 12.978 18.7576 10.6573C18.7576 8.3367 17.8357 6.11111 16.1948 4.47016C14.5538 2.82922 12.3282 1.90735 10.0076 1.90735C7.68692 1.90735 5.46133 2.82922 3.82038 4.47016C2.17944 6.11111 1.25757 8.3367 1.25757 10.6573C1.25757 12.978 2.17944 15.2036 3.82038 16.8445C5.46133 18.4855 7.68692 19.4073 10.0076 19.4073ZM10.0076 20.6573C12.6597 20.6573 15.2033 19.6038 17.0786 17.7284C18.954 15.8531 20.0076 13.3095 20.0076 10.6573C20.0076 8.00518 18.954 5.46164 17.0786 3.58628C15.2033 1.71092 12.6597 0.657349 10.0076 0.657349C7.3554 0.657349 4.81186 1.71092 2.9365 3.58628C1.06114 5.46164 0.00756836 8.00518 0.00756836 10.6573C0.00756836 13.3095 1.06114 15.8531 2.9365 17.7284C4.81186 19.6038 7.3554 20.6573 10.0076 20.6573Z" fill="#5E3B76"/>
<path fill-rule="evenodd" clip-rule="evenodd" d="M5.00757 10.6575C5.00757 10.8233 5.07342 10.9823 5.19063 11.0995C5.30784 11.2167 5.46681 11.2825 5.63257 11.2825H12.8738L10.1901 13.965C10.132 14.0231 10.0859 14.0921 10.0544 14.168C10.023 14.244 10.0068 14.3253 10.0068 14.4075C10.0068 14.4897 10.023 14.5711 10.0544 14.647C10.0859 14.7229 10.132 14.7919 10.1901 14.85C10.2482 14.9081 10.3172 14.9542 10.3931 14.9857C10.469 15.0171 10.5504 15.0333 10.6326 15.0333C10.7147 15.0333 10.7961 15.0171 10.872 14.9857C10.948 14.9542 11.017 14.9081 11.0751 14.85L14.8251 11.1C14.8833 11.042 14.9295 10.973 14.961 10.8971C14.9925 10.8211 15.0087 10.7397 15.0087 10.6575C15.0087 10.5753 14.9925 10.4939 14.961 10.418C14.9295 10.3421 14.8833 10.2731 14.8251 10.215L11.0751 6.46503C11.017 6.40692 10.948 6.36082 10.872 6.32937C10.7961 6.29792 10.7147 6.28174 10.6326 6.28174C10.5504 6.28174 10.469 6.29792 10.3931 6.32937C10.3172 6.36082 10.2482 6.40692 10.1901 6.46503C10.132 6.52314 10.0859 6.59212 10.0544 6.66805C10.023 6.74397 10.0068 6.82535 10.0068 6.90753C10.0068 6.98971 10.023 7.07108 10.0544 7.14701C10.0859 7.22293 10.132 7.29192 10.1901 7.35003L12.8738 10.0325H5.63257C5.46681 10.0325 5.30784 10.0984 5.19063 10.2156C5.07342 10.3328 5.00757 10.4918 5.00757 10.6575Z" fill="#5E3B76"/>
</g>
<defs>
<clipPath id="clip0_9452_61163">
<rect width="20" height="20" fill="white" transform="translate(0.00756836 0.657349)"/>
</clipPath>
</defs>
</svg>
