<svg width="18" height="19" viewBox="0 0 18 19" fill="none" xmlns="http://www.w3.org/2000/svg">
<g clip-path="url(#clip0_7567_161154)">
<path fill-rule="evenodd" clip-rule="evenodd" d="M2.25 17.375L15.75 17.375C16.0484 17.375 16.3345 17.2565 16.5455 17.0455C16.7565 16.8345 16.875 16.5484 16.875 16.25L16.875 2.75C16.875 2.45163 16.7565 2.16548 16.5455 1.95451C16.3345 1.74353 16.0484 1.625 15.75 1.625L2.25 1.625C1.95163 1.625 1.66548 1.74353 1.45451 1.9545C1.24353 2.16548 1.125 2.45163 1.125 2.75L1.125 16.25C1.125 16.5484 1.24353 16.8345 1.45451 17.0455C1.66548 17.2565 1.95163 17.375 2.25 17.375ZM15.75 18.5C16.3467 18.5 16.919 18.2629 17.341 17.841C17.7629 17.419 18 16.8467 18 16.25L18 2.75C18 2.15326 17.7629 1.58097 17.341 1.15901C16.919 0.737053 16.3467 0.5 15.75 0.5L2.25 0.499999C1.65326 0.499999 1.08097 0.737051 0.659011 1.15901C0.237054 1.58097 1.43869e-06 2.15326 1.38617e-06 2.75L1.98025e-07 16.25C1.45505e-07 16.8467 0.237053 17.419 0.65901 17.841C1.08097 18.2629 1.65326 18.5 2.25 18.5L15.75 18.5Z" fill="white"/>
<path fill-rule="evenodd" clip-rule="evenodd" d="M13.5 9.49978C13.5 9.35059 13.4407 9.20752 13.3352 9.10203C13.2298 8.99654 13.0867 8.93728 12.9375 8.93728L6.42038 8.93728L8.83575 6.52303C8.88805 6.47073 8.92954 6.40864 8.95784 6.34031C8.98614 6.27198 9.00071 6.19874 9.00071 6.12478C9.00071 6.05082 8.98614 5.97758 8.95784 5.90925C8.92954 5.84091 8.88805 5.77883 8.83575 5.72653C8.78345 5.67423 8.72136 5.63274 8.65303 5.60444C8.5847 5.57614 8.51146 5.56157 8.4375 5.56157C8.36354 5.56157 8.2903 5.57614 8.22197 5.60444C8.15364 5.63274 8.09155 5.67423 8.03925 5.72653L4.66425 9.10153C4.61187 9.15378 4.57031 9.21585 4.54195 9.28419C4.51359 9.35253 4.499 9.42579 4.499 9.49978C4.499 9.57377 4.51359 9.64703 4.54195 9.71537C4.57031 9.7837 4.61187 9.84578 4.66425 9.89803L8.03925 13.273C8.09155 13.3253 8.15364 13.3668 8.22197 13.3951C8.2903 13.4234 8.36354 13.438 8.4375 13.438C8.51146 13.438 8.5847 13.4234 8.65303 13.3951C8.72136 13.3668 8.78345 13.3253 8.83575 13.273C8.88805 13.2207 8.92953 13.1586 8.95784 13.0903C8.98614 13.022 9.00071 12.9487 9.00071 12.8748C9.00071 12.8008 8.98614 12.7276 8.95784 12.6592C8.92953 12.5909 8.88805 12.5288 8.83575 12.4765L6.42038 10.0623L12.9375 10.0623C13.0867 10.0623 13.2298 10.003 13.3352 9.89753C13.4407 9.79204 13.5 9.64896 13.5 9.49978Z" fill="white"/>
</g>
</svg>
