<svg width="51" height="51" viewBox="0 0 51 51" fill="none" xmlns="http://www.w3.org/2000/svg">
<g clip-path="url(#clip0_5867_164335)">
<path d="M30.6003 33.3231C32.4915 33.3254 34.3123 32.6057 35.6908 31.311C36.4818 32.1578 37.4597 32.8081 38.5465 33.21C39.6333 33.612 40.799 33.7546 41.9507 33.6264C43.1023 33.4982 44.2081 33.1028 45.1799 32.4717C46.1517 31.8405 46.9627 30.9911 47.5482 29.9911C48.1336 28.9911 48.4774 27.8682 48.5522 26.7118C48.6269 25.5555 48.4305 24.3976 47.9786 23.3306C47.5267 22.2636 46.8318 21.3168 45.9493 20.5659C45.0669 19.8149 44.0212 19.2804 42.8956 19.0051V11.0072C42.8956 10.9046 42.8754 10.8029 42.8361 10.7081C42.7969 10.6132 42.7393 10.527 42.6667 10.4545C42.5941 10.3819 42.5079 10.3243 42.4131 10.285C42.3183 10.2458 42.2166 10.2256 42.114 10.2256H29.6081C29.5054 10.2256 29.4038 10.2458 29.3089 10.285C29.2141 10.3243 29.1279 10.3819 29.0553 10.4545C28.9827 10.527 28.9251 10.6132 28.8859 10.7081C28.8466 10.8029 28.8264 10.9046 28.8264 11.0072V18.6543C27.059 19.0869 25.5112 20.1521 24.476 21.6486C23.4407 23.145 22.9897 24.9689 23.2081 26.7754C23.4266 28.5819 24.2994 30.2457 25.6616 31.4522C27.0237 32.6587 28.7807 33.3243 30.6003 33.3231Z" fill="#E2D9F3"/>
<path d="M41.1216 35.2372C39.1326 35.2326 37.2007 34.5715 35.6259 33.3564C33.7342 34.628 31.4303 35.1339 29.1799 34.772C26.9295 34.4101 24.9004 33.2073 23.5028 31.4067C23.2718 32.1335 23.1542 32.8915 23.1543 33.6541C23.1638 35.317 23.7263 36.9295 24.7533 38.2374C25.7802 39.5453 27.2132 40.4743 28.8264 40.878V48.5247C28.8263 48.6274 28.8465 48.7291 28.8858 48.8239C28.925 48.9188 28.9826 49.005 29.0552 49.0776C29.1278 49.1502 29.214 49.2077 29.3088 49.247C29.4037 49.2862 29.5053 49.3064 29.608 49.3064H42.1139C42.2166 49.3064 42.3182 49.2863 42.4131 49.247C42.508 49.2077 42.5941 49.1502 42.6667 49.0776C42.7393 49.005 42.7969 48.9188 42.8362 48.8239C42.8754 48.7291 42.8956 48.6274 42.8955 48.5247V40.5269C44.5087 40.1232 45.9417 39.1942 46.9686 37.8863C47.9956 36.5784 48.5581 34.9659 48.5676 33.303C48.5655 32.7204 48.4947 32.1401 48.3567 31.5741C47.5219 32.7086 46.4322 33.6312 45.1755 34.2675C43.9188 34.9038 42.5302 35.2359 41.1216 35.2372Z" fill="#E2D9F3"/>
<path d="M38.3778 6.60193C38.3052 6.52933 38.2191 6.47174 38.1243 6.43245C38.0294 6.39316 37.9278 6.37294 37.8252 6.37294C37.7225 6.37294 37.6209 6.39316 37.5261 6.43245C37.4312 6.47174 37.3451 6.52933 37.2725 6.60193L31.1936 12.6812C31.121 12.7538 31.0634 12.8399 31.0241 12.9348C30.9848 13.0296 30.9646 13.1312 30.9646 13.2339C30.9646 13.3365 30.9848 13.4381 31.0241 13.533C31.0634 13.6278 31.121 13.7139 31.1936 13.7865C31.6303 14.2217 31.9768 14.7388 32.2134 15.308C32.45 15.8773 32.5721 16.4877 32.5726 17.1042C32.5731 17.7207 32.452 18.3312 32.2163 18.9009C31.9806 19.4706 31.6349 19.9882 31.1989 20.4241C30.763 20.86 30.2453 21.2057 29.6757 21.4414C29.106 21.6771 28.4954 21.7981 27.8789 21.7976C27.2624 21.797 26.6521 21.675 26.0828 21.4383C25.5135 21.2016 24.9965 20.8551 24.5613 20.4184C23.8406 19.6998 23.3763 18.764 23.2402 17.7554C24.5772 17.5687 25.8169 16.9516 26.7718 15.9974C26.8444 15.9248 26.902 15.8386 26.9412 15.7438C26.9805 15.649 27.0007 15.5474 27.0007 15.4447C27.0007 15.3421 26.9805 15.2405 26.9412 15.1457C26.902 15.0508 26.8444 14.9647 26.7718 14.8921C26.6993 14.8195 26.6131 14.762 26.5183 14.7227C26.4235 14.6834 26.3218 14.6632 26.2192 14.6632C26.1166 14.6632 26.0149 14.6834 25.9201 14.7227C25.8253 14.762 25.7391 14.8195 25.6666 14.8921C25.0107 15.548 24.1751 15.9946 23.2653 16.1756C22.3556 16.3565 21.4127 16.2636 20.5558 15.9087C19.6988 15.5537 18.9664 14.9526 18.4511 14.1814C17.9358 13.4102 17.6607 12.5035 17.6607 11.5759C17.6607 10.6484 17.9358 9.74171 18.4511 8.97049C18.9664 8.19927 19.6988 7.59818 20.5558 7.24322C21.4127 6.88827 22.3556 6.79539 23.2653 6.97634C24.1751 7.15728 25.0107 7.60393 25.6666 8.25979C25.7391 8.33237 25.8253 8.38994 25.9201 8.42922C26.0149 8.4685 26.1166 8.48872 26.2192 8.48872C26.3218 8.48872 26.4235 8.4685 26.5183 8.42922C26.6131 8.38994 26.6992 8.33237 26.7718 8.25979L32.8515 2.18011C32.9967 2.03325 33.0778 1.83491 33.0772 1.62841C33.0767 1.4219 32.9944 1.22403 32.8483 1.07801C32.7023 0.931997 32.5044 0.849708 32.2979 0.849124C32.0914 0.84854 31.8931 0.929709 31.7462 1.0749L29.0869 3.7344C25.6637 1.76455 21.6866 0.977916 17.7712 1.49624C13.8559 2.01456 10.2205 3.80895 7.42772 6.60168C4.63497 9.39442 2.84056 13.0298 2.32221 16.9452C1.80386 20.8605 2.59047 24.8376 4.5603 28.2608L1.90123 30.9203C1.75619 31.0672 1.67514 31.2654 1.67579 31.4719C1.67643 31.6783 1.75871 31.8761 1.90468 32.022C2.05064 32.168 2.24842 32.2503 2.45484 32.251C2.66126 32.2516 2.85956 32.1706 3.00644 32.0255L9.08537 25.9459C9.15796 25.8733 9.21555 25.7871 9.25484 25.6923C9.29413 25.5975 9.31436 25.4959 9.31436 25.3932C9.31436 25.2906 9.29413 25.1889 9.25484 25.0941C9.21555 24.9993 9.15796 24.9132 9.08537 24.8406C8.42938 24.1847 7.98262 23.349 7.8016 22.4392C7.62057 21.5294 7.71341 20.5863 8.06837 19.7293C8.42333 18.8722 9.02448 18.1397 9.79577 17.6243C10.5671 17.1089 11.4739 16.8339 12.4015 16.8339C13.3292 16.8339 14.236 17.1089 15.0073 17.6243C15.7786 18.1397 16.3797 18.8722 16.7347 19.7293C17.0896 20.5863 17.1825 21.5294 17.0015 22.4392C16.8204 23.349 16.3737 24.1847 15.7177 24.8406C15.6451 24.9132 15.5875 24.9993 15.5483 25.0941C15.509 25.189 15.4888 25.2906 15.4888 25.3932C15.4888 25.4959 15.509 25.5975 15.5483 25.6923C15.5875 25.7871 15.6451 25.8733 15.7177 25.9459C15.7903 26.0184 15.8764 26.076 15.9712 26.1153C16.066 26.1545 16.1677 26.1748 16.2703 26.1748C16.3729 26.1748 16.4746 26.1545 16.5694 26.1153C16.6642 26.076 16.7504 26.0184 16.8229 25.9459C17.7795 24.9921 18.3982 23.7519 18.5849 22.4141C19.5923 22.5511 20.5268 23.0152 21.2448 23.735C21.6815 24.1702 22.0281 24.6872 22.2647 25.2565C22.5014 25.8259 22.6235 26.4362 22.624 27.0528C22.6245 27.6693 22.5035 28.2799 22.2678 28.8496C22.0321 29.4193 21.6864 29.937 21.2504 30.373C20.8145 30.8089 20.2969 31.1547 19.7272 31.3904C19.1575 31.6261 18.5469 31.7472 17.9303 31.7467C17.3138 31.7462 16.7034 31.6241 16.1341 31.3875C15.5648 31.1509 15.0477 30.8043 14.6124 30.3676C14.5399 30.295 14.4537 30.2374 14.3589 30.1982C14.2641 30.1589 14.1625 30.1386 14.0598 30.1386C13.9572 30.1386 13.8555 30.1589 13.7607 30.1982C13.6659 30.2374 13.5797 30.295 13.5072 30.3676L7.4275 36.4466C7.35493 36.5191 7.29736 36.6053 7.25808 36.7001C7.21881 36.7949 7.19859 36.8966 7.19859 36.9992C7.19859 37.1018 7.2188 37.2035 7.25808 37.2983C7.29736 37.3931 7.35492 37.4793 7.42749 37.5518C7.50007 37.6244 7.58622 37.682 7.68104 37.7212C7.77586 37.7605 7.87749 37.7807 7.98012 37.7807C8.08276 37.7807 8.18438 37.7605 8.27921 37.7212C8.37403 37.682 8.46018 37.6244 8.53276 37.5518L11.1888 34.8961C14.6125 36.8657 18.5899 37.652 22.5056 37.1334C26.4212 36.6148 30.0568 34.8202 32.8497 32.0273C35.6427 29.2343 37.4373 25.5988 37.956 21.6832C38.4746 17.7675 37.6883 13.7901 35.7188 10.3664L38.3778 7.70719C38.4504 7.63463 38.508 7.54848 38.5473 7.45366C38.5865 7.35883 38.6068 7.2572 38.6068 7.15456C38.6068 7.05192 38.5866 6.95029 38.5473 6.85546C38.508 6.76064 38.4504 6.67449 38.3778 6.60193ZM31.7462 30.9203C29.2541 33.4303 26.0141 35.0631 22.514 35.5728C19.0138 36.0826 15.4427 35.4419 12.3381 33.747L14.0934 31.9919C14.8564 32.5854 15.7465 32.9939 16.694 33.1854C17.6414 33.3769 18.6204 33.3462 19.554 33.0956C20.4875 32.845 21.3503 32.3814 22.0745 31.7412C22.7987 31.101 23.3646 30.3016 23.7278 29.4058C24.0911 28.51 24.2417 27.5423 24.1679 26.5785C24.094 25.6147 23.7978 24.6811 23.3024 23.8511C22.807 23.0211 22.1259 22.3172 21.3127 21.7948C20.4994 21.2723 19.5761 20.9455 18.6153 20.84C18.5095 19.8797 18.1826 18.957 17.6602 18.1443C17.1379 17.3316 16.4343 16.6509 15.6047 16.1558C14.7751 15.6607 13.8421 15.3646 12.8788 15.2907C11.9155 15.2168 10.9482 15.3672 10.0528 15.7299C9.15737 16.0927 8.35821 16.6581 7.71802 17.3816C7.07782 18.1052 6.61401 18.9672 6.36298 19.9001C6.11195 20.8331 6.08053 21.8115 6.27119 22.7586C6.46185 23.7057 6.8694 24.5957 7.46185 25.3589L5.70602 27.1149C4.02378 24.007 3.39019 20.439 3.89957 16.9419C4.40895 13.4448 6.03406 10.2058 8.53298 7.70688C11.0319 5.208 14.271 3.58294 17.7681 3.07361C21.2652 2.56429 24.8332 3.19794 27.9411 4.88023L26.1856 6.63586C25.4227 6.04173 24.5324 5.63263 23.5846 5.44071C22.6369 5.2488 21.6576 5.2793 20.7236 5.52982C19.7897 5.78035 18.9266 6.24406 18.2021 6.88452C17.4777 7.52498 16.9116 8.32473 16.5485 9.22091C16.1853 10.1171 16.035 11.0853 16.1093 12.0494C16.1835 13.0135 16.4804 13.9472 16.9765 14.7772C17.4726 15.6072 18.1544 16.3109 18.9684 16.8328C19.7824 17.3548 20.7064 17.6808 21.6677 17.7854C21.7955 18.9566 22.2519 20.0678 22.9842 20.9907C23.7165 21.9137 24.6948 22.6109 25.8062 23.0017C26.9177 23.3926 28.117 23.4613 29.2658 23.1998C30.4146 22.9383 31.466 22.3574 32.2989 21.5241C33.3741 20.4461 34.0198 19.0134 34.1152 17.4939C34.2106 15.9744 33.7491 14.4721 32.8172 13.2682L34.5728 11.5124C36.2679 14.6169 36.9089 18.188 36.3991 21.6882C35.8893 25.1884 34.2565 28.4283 31.7462 30.9203Z" fill="black"/>
</g>
<defs>
<clipPath id="clip0_5867_164335">
<rect width="50.0236" height="50.0236" fill="white" transform="translate(0.107422 0.0644531)"/>
</clipPath>
</defs>
</svg>
