<svg width="32" height="28" viewBox="0 0 32 28" fill="none" xmlns="http://www.w3.org/2000/svg">
<path d="M31.5 0.843887L30.7177 6.46685C29.153 6.33532 27.8817 6.59838 26.9038 7.25604C25.9259 7.88082 25.2413 8.80154 24.8502 10.0182C24.4916 11.202 24.4264 12.5831 24.6546 14.1614H31.5V27.5776H18.2003V14.1614C18.2003 9.42631 19.2923 5.84208 21.4763 3.40875C23.6604 0.942536 27.0016 0.0875815 31.5 0.843887ZM13.7997 0.843887L13.0173 6.46685C11.4527 6.33532 10.1814 6.59838 9.20347 7.25604C8.22555 7.88082 7.54101 8.80154 7.14984 10.0182C6.79127 11.202 6.72608 12.5831 6.95426 14.1614H13.7997V27.5776H0.5V14.1614C0.5 9.42631 1.59201 5.84208 3.77603 3.40875C5.96004 0.942536 9.30126 0.0875815 13.7997 0.843887Z" fill="#FBB57B"/>
</svg>
