<svg width="51" height="51" viewBox="0 0 51 51" fill="none" xmlns="http://www.w3.org/2000/svg">
<g clip-path="url(#clip0_9252_5567)">
<path d="M30.5547 11.0688C26.6918 11.0688 22.9156 12.2143 19.7037 14.3605C16.4918 16.5066 13.9884 19.5569 12.5102 23.1258C11.0319 26.6947 10.6451 30.6218 11.3987 34.4105C12.1524 38.1992 14.0125 41.6793 16.744 44.4108C19.4755 47.1423 22.9556 49.0024 26.7443 49.7561C30.533 50.5097 34.4601 50.1229 38.029 48.6446C41.5979 47.1663 44.6482 44.663 46.7943 41.4511C48.9405 38.2392 50.0859 34.463 50.0859 30.6001C50.0802 25.4219 48.0205 20.4574 44.359 16.7958C40.6974 13.1342 35.7329 11.0746 30.5547 11.0688ZM30.5547 48.5689C27.0008 48.5689 23.5267 47.515 20.5718 45.5406C17.6168 43.5661 15.3137 40.7598 13.9537 37.4764C12.5937 34.1931 12.2379 30.5802 12.9312 27.0946C13.6245 23.609 15.3359 20.4072 17.8489 17.8943C20.3618 15.3813 23.5636 13.6699 27.0492 12.9766C30.5348 12.2833 34.1477 12.6391 37.431 13.9991C40.7144 15.3591 43.5207 17.6622 45.4952 20.6172C47.4696 23.5721 48.5234 27.0462 48.5234 30.6001C48.5181 35.3641 46.6232 39.9314 43.2546 43.3C39.886 46.6686 35.3187 48.5635 30.5547 48.5689Z" fill="#E2D9F3"/>
<path d="M30.5547 14.1938C27.3098 14.1938 24.1379 15.1561 21.4399 16.9588C18.7419 18.7615 16.639 21.3238 15.3973 24.3217C14.1555 27.3195 13.8306 30.6183 14.4637 33.8008C15.0967 36.9833 16.6593 39.9066 18.9537 42.2011C21.2482 44.4955 24.1715 46.0581 27.354 46.6911C30.5365 47.3242 33.8352 46.9992 36.8331 45.7575C39.8309 44.5157 42.3932 42.4129 44.196 39.7149C45.9987 37.0169 46.9609 33.8449 46.9609 30.6001C46.956 26.2504 45.2259 22.0803 42.1502 19.0046C39.0745 15.9289 34.9044 14.1988 30.5547 14.1938ZM30.5547 32.9438C29.9331 32.9438 29.3369 32.6969 28.8974 32.2574C28.4579 31.8178 28.2109 31.2217 28.2109 30.6001C28.2123 30.2521 28.2924 29.9088 28.4453 29.5962L24.5328 25.6837C24.3905 25.5363 24.3118 25.339 24.3135 25.1342C24.3153 24.9293 24.3975 24.7334 24.5423 24.5885C24.6872 24.4437 24.8831 24.3615 25.088 24.3597C25.2928 24.3579 25.4902 24.4367 25.6375 24.579L29.5508 28.4907C29.6233 28.4564 29.6976 28.4261 29.7734 28.4001V19.6626C29.7734 19.4554 29.8557 19.2567 30.0023 19.1102C30.1488 18.9637 30.3475 18.8813 30.5547 18.8813C30.7619 18.8813 30.9606 18.9637 31.1071 19.1102C31.2536 19.2567 31.3359 19.4554 31.3359 19.6626V28.4001C31.8568 28.5836 32.2959 28.9454 32.5755 29.4216C32.8551 29.8978 32.9572 30.4576 32.8636 31.0018C32.77 31.546 32.4869 32.0396 32.0643 32.395C31.6417 32.7505 31.1069 32.9449 30.5547 32.9438Z" fill="#E2D9F3"/>
<path d="M37.8037 28.6141C35.0816 29.6643 32.1446 30.0359 29.2466 29.6967C26.3486 29.3574 23.5769 28.3176 21.1708 26.667C18.7648 25.0164 16.7969 22.8048 15.4373 20.2232C14.0776 17.6416 13.367 14.7678 13.367 11.85C13.3598 9.1568 13.9638 6.49706 15.1334 4.07109C15.2012 3.93 15.225 3.77181 15.2018 3.61702C15.1785 3.46224 15.1094 3.31799 15.0032 3.20299C14.897 3.08798 14.7588 3.00751 14.6063 2.97202C14.4539 2.93652 14.2943 2.94763 14.1483 3.0039C11.1759 4.15181 8.52949 6.00949 6.43987 8.41494C4.35026 10.8204 2.88088 13.7006 2.15989 16.8042C1.43891 19.9079 1.48821 23.1409 2.30349 26.2211C3.11878 29.3014 4.67529 32.1354 6.83728 34.476C8.99926 36.8167 11.7011 38.5928 14.7071 39.6495C17.7131 40.7063 20.9319 41.0115 24.083 40.5387C27.234 40.0658 30.2215 38.8292 32.785 36.9367C35.3484 35.0443 37.4099 32.5533 38.7897 29.6813C38.8575 29.5401 38.8814 29.3818 38.8582 29.2269C38.835 29.072 38.7657 28.9276 38.6594 28.8126C38.5531 28.6975 38.4147 28.6171 38.2621 28.5817C38.1095 28.5463 37.9498 28.5576 37.8037 28.6141ZM21.1795 39.1938C17.152 39.1925 13.2416 37.8381 10.0761 35.3481C6.91048 32.8581 4.67323 29.3768 3.72335 25.4628C2.77348 21.5489 3.16606 17.4293 4.8381 13.7653C6.51013 10.1012 9.36466 7.10511 12.9436 5.25781C11.8904 8.20657 11.561 11.3652 11.9831 14.4678C12.4051 17.5704 13.5663 20.5262 15.3689 23.0865C17.1714 25.6468 19.5626 27.7366 22.3413 29.1801C25.1199 30.6236 28.2046 31.3785 31.3358 31.3813C33.0623 31.3825 34.7813 31.154 36.4475 30.7016C34.8266 33.2911 32.5764 35.428 29.9066 36.9129C27.2368 38.3979 24.2345 39.1825 21.1795 39.1938Z" fill="#212529"/>
<path d="M39.9287 9.50635H35.7944L40.3373 2.91807C40.418 2.80082 40.4652 2.66374 40.4737 2.52165C40.4821 2.37956 40.4516 2.23785 40.3855 2.11183C40.3193 1.98581 40.2199 1.88027 40.0981 1.80661C39.9763 1.73294 39.8367 1.69395 39.6944 1.69385H34.46C34.2528 1.69385 34.0541 1.77616 33.9076 1.92267C33.761 2.06918 33.6787 2.2679 33.6787 2.4751C33.6787 2.6823 33.761 2.88101 33.9076 3.02752C34.0541 3.17404 34.2528 3.25635 34.46 3.25635H38.21L33.6631 9.84463C33.5825 9.96172 33.5354 10.0986 33.5268 10.2405C33.5182 10.3823 33.5485 10.5239 33.6144 10.6498C33.6803 10.7758 33.7794 10.8813 33.9008 10.9552C34.0223 11.029 34.1616 11.0683 34.3037 11.0688H39.9287C40.1359 11.0688 40.3346 10.9865 40.4812 10.84C40.6277 10.6935 40.71 10.4948 40.71 10.2876C40.71 10.0804 40.6277 9.88168 40.4812 9.73517C40.3346 9.58866 40.1359 9.50635 39.9287 9.50635Z" fill="#212529"/>
<path d="M23.3662 22.7876H28.9912C29.1984 22.7876 29.3971 22.7053 29.5437 22.5588C29.6902 22.4123 29.7725 22.2135 29.7725 22.0063C29.7725 21.7991 29.6902 21.6004 29.5437 21.4539C29.3971 21.3074 29.1984 21.2251 28.9912 21.2251H24.8569L29.3998 14.6368C29.4805 14.5196 29.5277 14.3825 29.5362 14.2404C29.5446 14.0983 29.5141 13.9566 29.448 13.8306C29.3818 13.7046 29.2824 13.599 29.1606 13.5254C29.0388 13.4517 28.8992 13.4127 28.7569 13.4126H23.5225C23.3153 13.4126 23.1166 13.4949 22.9701 13.6414C22.8235 13.7879 22.7412 13.9866 22.7412 14.1938C22.7412 14.401 22.8235 14.5998 22.9701 14.7463C23.1166 14.8928 23.3153 14.9751 23.5225 14.9751H27.2725L22.7256 21.5634C22.645 21.6805 22.5979 21.8173 22.5893 21.9592C22.5807 22.1011 22.611 22.2426 22.6769 22.3686C22.7428 22.4945 22.8419 22.6001 22.9633 22.6739C23.0848 22.7478 23.2241 22.7871 23.3662 22.7876Z" fill="#212529"/>
</g>
<defs>
<clipPath id="clip0_9252_5567">
<rect width="50" height="50" fill="white" transform="translate(0.867188 0.912598)"/>
</clipPath>
</defs>
</svg>
