<svg width="24" height="24" viewBox="0 0 24 24" fill="none" xmlns="http://www.w3.org/2000/svg">
<path d="M11.0489 1.50469C11.3483 0.58338 12.6517 0.583376 12.9511 1.50469L15.0309 7.90591C15.1648 8.31793 15.5488 8.59689 15.982 8.59689L22.7126 8.59689C23.6814 8.59689 24.0841 9.83651 23.3004 10.4059L17.8552 14.3621C17.5047 14.6167 17.3581 15.0681 17.4919 15.4801L19.5718 21.8813C19.8712 22.8026 18.8167 23.5688 18.033 22.9994L12.5878 19.0432C12.2373 18.7886 11.7627 18.7886 11.4122 19.0432L5.96701 22.9994C5.1833 23.5688 4.12882 22.8026 4.42817 21.8813L6.50805 15.4801C6.64193 15.0681 6.49527 14.6167 6.14478 14.3621L0.699576 10.4059C-0.0841377 9.8365 0.31864 8.59689 1.28736 8.59689L8.01801 8.59689C8.45123 8.59689 8.83519 8.31793 8.96906 7.90591L11.0489 1.50469Z" fill="#FBB57B"/>
</svg>
