<svg width="16" height="14" viewBox="0 0 16 14" fill="none" xmlns="http://www.w3.org/2000/svg">
<path d="M16 2.42863C15.4 2.69667 14.7667 2.8642 14.1 2.96471C14.7667 2.56265 15.3 1.92605 15.5333 1.15543C14.9 1.52399 14.2 1.79203 13.4333 1.95956C12.8333 1.32296 11.9667 0.920898 11.0333 0.920898C9.23333 0.920898 7.76667 2.39513 7.76667 4.2044C7.76667 4.47244 7.8 4.70698 7.86667 4.94152C5.16667 4.8075 2.73333 3.5008 1.1 1.49049C0.833333 1.99306 0.666667 2.52915 0.666667 3.13224C0.666667 4.27141 1.23333 5.27657 2.13333 5.87966C1.6 5.84616 1.1 5.71214 0.633333 5.4776V5.5111C0.633333 7.11935 1.76667 8.45956 3.26667 8.7611C3 8.82811 2.7 8.86162 2.4 8.86162C2.2 8.86162 1.96667 8.82811 1.76667 8.79461C2.2 10.1013 3.4 11.073 4.83333 11.073C3.7 11.9441 2.3 12.4802 0.766667 12.4802C0.5 12.4802 0.233333 12.4802 0 12.4467C1.46667 13.3848 3.16667 13.9209 5.03333 13.9209C11.0667 13.9209 14.3667 8.89513 14.3667 4.53946C14.3667 4.40543 14.3667 4.23791 14.3667 4.10389C15 3.66832 15.5667 3.09873 16 2.42863Z" fill="#21C6DD"/>
</svg>
