<svg width="149" height="149" viewBox="0 0 149 149" fill="none" xmlns="http://www.w3.org/2000/svg">
<g opacity="0.3">
<path d="M0.5 0.577637H4.5V4.57764H0.5V0.577637Z" fill="#C4C4C4"/>
<path d="M24.5 0.577637H28.5V4.57764H24.5V0.577637Z" fill="#C4C4C4"/>
<path d="M48.5 0.577637H52.5V4.57764H48.5V0.577637Z" fill="#C4C4C4"/>
<path d="M72.5 0.577637H76.5V4.57764H72.5V0.577637Z" fill="#C4C4C4"/>
<path d="M96.5 0.577637H100.5V4.57764H96.5V0.577637Z" fill="#C4C4C4"/>
<path d="M120.5 0.577637H124.5V4.57764H120.5V0.577637Z" fill="#C4C4C4"/>
<path d="M144.5 0.577637H148.5V4.57764H144.5V0.577637Z" fill="#C4C4C4"/>
<path d="M0.5 24.5776H4.5V28.5776H0.5V24.5776Z" fill="#C4C4C4"/>
<path d="M24.5 24.5776H28.5V28.5776H24.5V24.5776Z" fill="#C4C4C4"/>
<path d="M48.5 24.5776H52.5V28.5776H48.5V24.5776Z" fill="#C4C4C4"/>
<path d="M72.5 24.5776H76.5V28.5776H72.5V24.5776Z" fill="#C4C4C4"/>
<path d="M96.5 24.5776H100.5V28.5776H96.5V24.5776Z" fill="#C4C4C4"/>
<path d="M120.5 24.5776H124.5V28.5776H120.5V24.5776Z" fill="#C4C4C4"/>
<path d="M144.5 24.5776H148.5V28.5776H144.5V24.5776Z" fill="#C4C4C4"/>
<path d="M0.5 48.5776H4.5V52.5776H0.5V48.5776Z" fill="#C4C4C4"/>
<path d="M24.5 48.5776H28.5V52.5776H24.5V48.5776Z" fill="#C4C4C4"/>
<path d="M48.5 48.5776H52.5V52.5776H48.5V48.5776Z" fill="#C4C4C4"/>
<path d="M72.5 48.5776H76.5V52.5776H72.5V48.5776Z" fill="#C4C4C4"/>
<path d="M96.5 48.5776H100.5V52.5776H96.5V48.5776Z" fill="#C4C4C4"/>
<path d="M120.5 48.5776H124.5V52.5776H120.5V48.5776Z" fill="#C4C4C4"/>
<path d="M144.5 48.5776H148.5V52.5776H144.5V48.5776Z" fill="#C4C4C4"/>
<path d="M0.5 72.5776H4.5V76.5776H0.5V72.5776Z" fill="#C4C4C4"/>
<path d="M24.5 72.5776H28.5V76.5776H24.5V72.5776Z" fill="#C4C4C4"/>
<path d="M48.5 72.5776H52.5V76.5776H48.5V72.5776Z" fill="#C4C4C4"/>
<path d="M72.5 72.5776H76.5V76.5776H72.5V72.5776Z" fill="#C4C4C4"/>
<path d="M96.5 72.5776H100.5V76.5776H96.5V72.5776Z" fill="#C4C4C4"/>
<path d="M120.5 72.5776H124.5V76.5776H120.5V72.5776Z" fill="#C4C4C4"/>
<path d="M144.5 72.5776H148.5V76.5776H144.5V72.5776Z" fill="#C4C4C4"/>
<path d="M0.5 96.5776H4.5V100.578H0.5V96.5776Z" fill="#C4C4C4"/>
<path d="M24.5 96.5776H28.5V100.578H24.5V96.5776Z" fill="#C4C4C4"/>
<path d="M48.5 96.5776H52.5V100.578H48.5V96.5776Z" fill="#C4C4C4"/>
<path d="M72.5 96.5776H76.5V100.578H72.5V96.5776Z" fill="#C4C4C4"/>
<path d="M96.5 96.5776H100.5V100.578H96.5V96.5776Z" fill="#C4C4C4"/>
<path d="M120.5 96.5776H124.5V100.578H120.5V96.5776Z" fill="#C4C4C4"/>
<path d="M144.5 96.5776H148.5V100.578H144.5V96.5776Z" fill="#C4C4C4"/>
<path d="M0.5 120.578H4.5V124.578H0.5V120.578Z" fill="#C4C4C4"/>
<path d="M24.5 120.578H28.5V124.578H24.5V120.578Z" fill="#C4C4C4"/>
<path d="M48.5 120.578H52.5V124.578H48.5V120.578Z" fill="#C4C4C4"/>
<path d="M72.5 120.578H76.5V124.578H72.5V120.578Z" fill="#C4C4C4"/>
<path d="M96.5 120.578H100.5V124.578H96.5V120.578Z" fill="#C4C4C4"/>
<path d="M120.5 120.578H124.5V124.578H120.5V120.578Z" fill="#C4C4C4"/>
<path d="M144.5 120.578H148.5V124.578H144.5V120.578Z" fill="#C4C4C4"/>
<path d="M0.5 144.578H4.5V148.578H0.5V144.578Z" fill="#C4C4C4"/>
<path d="M24.5 144.578H28.5V148.578H24.5V144.578Z" fill="#C4C4C4"/>
<path d="M48.5 144.578H52.5V148.578H48.5V144.578Z" fill="#C4C4C4"/>
<path d="M72.5 144.578H76.5V148.578H72.5V144.578Z" fill="#C4C4C4"/>
<path d="M96.5 144.578H100.5V148.578H96.5V144.578Z" fill="#C4C4C4"/>
<path d="M120.5 144.578H124.5V148.578H120.5V144.578Z" fill="#C4C4C4"/>
<path d="M144.5 144.578H148.5V148.578H144.5V144.578Z" fill="#C4C4C4"/>
</g>
</svg>
