<svg width="47" height="47" viewBox="0 0 47 47" fill="none" xmlns="http://www.w3.org/2000/svg">
<g clipPath="url(#clip0_1204_57112)">
<path d="M32.0593 24.3443C34.1795 24.1312 35.7255 22.2397 35.5124 20.1195C35.2993 17.9993 33.4078 16.4533 31.2877 16.6664C29.1675 16.8795 27.6215 18.771 27.8346 20.8912C28.0476 23.0114 29.9391 24.5574 32.0593 24.3443Z" fill="#F55555"/>
<path d="M31.2871 17.0246C31.1977 17.0244 31.1116 16.9911 31.0453 16.9311C30.979 16.8711 30.9373 16.7886 30.9282 16.6997L30.7969 15.3943C30.7882 15.2993 30.8173 15.2048 30.878 15.1312C30.9387 15.0576 31.0259 15.0109 31.1208 15.0013C31.2157 14.9918 31.3106 15.0201 31.3847 15.0801C31.4588 15.1401 31.5062 15.227 31.5166 15.3218L31.6479 16.6272C31.6574 16.7224 31.6287 16.8176 31.5681 16.8918C31.5075 16.9659 31.42 17.0131 31.3248 17.0228L31.2871 17.0246Z" fill="#262626"/>
<path d="M31.0735 15.5917C30.8688 15.5912 30.6686 15.5313 30.4972 15.4194C30.3258 15.3074 30.1905 15.1482 30.1078 14.9609C30.0251 14.7736 29.9985 14.5664 30.0312 14.3643C30.0639 14.1622 30.1545 13.9739 30.292 13.8222C30.4295 13.6706 30.6081 13.5621 30.8061 13.5099C31.004 13.4576 31.2129 13.464 31.4073 13.528C31.6017 13.5921 31.7734 13.7112 31.9015 13.8709C32.0297 14.0306 32.1087 14.224 32.1291 14.4277C32.1439 14.575 32.1276 14.7237 32.0814 14.8643C32.0351 15.0049 31.96 15.1342 31.8607 15.2439C31.7614 15.3537 31.6402 15.4414 31.5049 15.5015C31.3697 15.5615 31.2233 15.5926 31.0753 15.5926L31.0735 15.5917ZM31.0735 14.1982H31.0395C30.9522 14.2026 30.8701 14.241 30.8107 14.3051C30.7513 14.3692 30.7193 14.454 30.7215 14.5413C30.7238 14.6287 30.76 14.7117 30.8226 14.7727C30.8852 14.8338 30.9691 14.8679 31.0565 14.8679C31.1439 14.8679 31.2278 14.8338 31.2904 14.7727C31.353 14.7117 31.3892 14.6287 31.3914 14.5413C31.3937 14.454 31.3617 14.3692 31.3023 14.3051C31.2429 14.241 31.1608 14.2026 31.0735 14.1982Z" fill="#262626"/>
<path d="M32.1963 26.0537C32.1069 26.0535 32.0207 26.0201 31.9544 25.9601C31.8882 25.9001 31.8465 25.8177 31.8374 25.7287L31.7061 24.4234C31.6974 24.3284 31.7265 24.2338 31.7872 24.1602C31.8478 24.0866 31.9351 24.04 32.03 24.0304C32.1249 24.0208 32.2197 24.0491 32.2939 24.1092C32.368 24.1692 32.4154 24.256 32.4258 24.3509L32.5571 25.6562C32.5666 25.7515 32.5379 25.8467 32.4773 25.9208C32.4167 25.995 32.3292 26.0421 32.2339 26.0518L32.1963 26.0537Z" fill="#262626"/>
<path d="M32.2776 27.5749C32.0006 27.5748 31.7346 27.4665 31.5363 27.2731C31.338 27.0797 31.2232 26.8165 31.2162 26.5396C31.2092 26.2627 31.3106 25.994 31.4989 25.7909C31.6872 25.5877 31.9473 25.4661 32.224 25.4521C32.5006 25.438 32.7718 25.5325 32.9797 25.7156C33.1876 25.8986 33.3158 26.1556 33.3369 26.4318C33.358 26.7079 33.2704 26.9815 33.0928 27.194C32.9151 27.4065 32.6615 27.5412 32.3859 27.5694C32.3499 27.5731 32.3138 27.5749 32.2776 27.5749ZM32.2776 26.1805H32.2437C32.1552 26.1895 32.074 26.2332 32.0177 26.3021C31.9615 26.3709 31.9348 26.4592 31.9435 26.5477C31.9497 26.6122 31.9745 26.6736 32.015 26.7243C32.0554 26.7751 32.1097 26.813 32.1712 26.8335C32.2328 26.8539 32.299 26.8561 32.3617 26.8397C32.4245 26.8233 32.4811 26.789 32.5248 26.741C32.5685 26.6931 32.5973 26.6334 32.6077 26.5694C32.6181 26.5054 32.6097 26.4397 32.5836 26.3803C32.5574 26.321 32.5146 26.2705 32.4602 26.235C32.4059 26.1995 32.3425 26.1806 32.2776 26.1805Z" fill="#262626"/>
<path d="M35.5374 20.4982C35.4446 20.498 35.3555 20.4623 35.2884 20.3983C35.2213 20.3343 35.1813 20.247 35.1767 20.1544C35.1721 20.0618 35.2033 19.971 35.2637 19.9007C35.3242 19.8304 35.4093 19.786 35.5016 19.7767L36.8106 19.6445C36.8581 19.6393 36.9061 19.6435 36.9519 19.657C36.9977 19.6705 37.0405 19.6929 37.0776 19.7229C37.1147 19.753 37.1455 19.7901 37.1682 19.8321C37.1909 19.8741 37.205 19.9202 37.2098 19.9678C37.2146 20.0153 37.2099 20.0633 37.1961 20.109C37.1822 20.1547 37.1595 20.1972 37.1291 20.234C37.0987 20.2709 37.0613 20.3014 37.0191 20.3237C36.9769 20.346 36.9307 20.3598 36.8831 20.3642L35.5778 20.4954L35.5374 20.4982Z" fill="#262626"/>
<path d="M37.6663 20.9811C37.3893 20.981 37.1233 20.8728 36.925 20.6794C36.7267 20.486 36.6118 20.2228 36.6048 19.9459C36.5978 19.669 36.6993 19.4003 36.8876 19.1971C37.0758 18.9939 37.336 18.8724 37.6127 18.8583C37.8893 18.8442 38.1605 18.9388 38.3684 19.1218C38.5763 19.3048 38.7045 19.5618 38.7256 19.838C38.7467 20.1142 38.6591 20.3877 38.4815 20.6002C38.3038 20.8127 38.0502 20.9474 37.7746 20.9756C37.7386 20.9793 37.7025 20.9811 37.6663 20.9811ZM37.6663 19.5867H37.6323C37.5438 19.5956 37.4625 19.6393 37.4062 19.7081C37.3499 19.777 37.3233 19.8654 37.3321 19.9539C37.341 20.0424 37.3847 20.1237 37.4536 20.18C37.5224 20.2363 37.6108 20.263 37.6993 20.2541C37.787 20.2482 37.8688 20.2082 37.9272 20.1425C37.9856 20.0769 38.0159 19.991 38.0116 19.9032C38.0073 19.8155 37.9687 19.733 37.9041 19.6734C37.8395 19.6139 37.7541 19.5821 37.6663 19.5849V19.5867Z" fill="#262626"/>
<path d="M26.5095 21.4062C26.4168 21.4061 26.3277 21.3703 26.2606 21.3063C26.1935 21.2424 26.1535 21.1551 26.1489 21.0625C26.1443 20.9699 26.1754 20.879 26.2359 20.8087C26.2963 20.7384 26.3815 20.694 26.4737 20.6847L27.7791 20.5534C27.8266 20.5482 27.8746 20.5525 27.9204 20.5659C27.9662 20.5794 28.009 20.6018 28.0461 20.6319C28.0832 20.6619 28.114 20.699 28.1367 20.741C28.1594 20.7831 28.1735 20.8292 28.1783 20.8767C28.1831 20.9242 28.1784 20.9722 28.1646 21.0179C28.1507 21.0636 28.128 21.1061 28.0976 21.143C28.0672 21.1798 28.0298 21.2103 27.9876 21.2326C27.9454 21.255 27.8992 21.2687 27.8516 21.2731L26.5462 21.4044L26.5095 21.4062Z" fill="#262626"/>
<path d="M25.6833 22.1864C25.4123 22.1854 25.152 22.0804 24.956 21.8932C24.7601 21.7059 24.6435 21.4506 24.6302 21.1799C24.6169 20.9092 24.7079 20.6438 24.8846 20.4382C25.0612 20.2326 25.31 20.1027 25.5796 20.0751C25.7225 20.0604 25.867 20.0751 26.0041 20.1181C26.1412 20.1611 26.2681 20.2316 26.3771 20.3252C26.4861 20.4189 26.5749 20.5338 26.6381 20.6628C26.7012 20.7919 26.7374 20.9325 26.7445 21.0761C26.7515 21.2196 26.7293 21.3631 26.6791 21.4977C26.6289 21.6324 26.5518 21.7554 26.4525 21.8593C26.3532 21.9632 26.2338 22.0458 26.1016 22.102C25.9693 22.1582 25.827 22.187 25.6833 22.1864ZM25.6521 20.7939C25.5862 20.8005 25.5237 20.8266 25.4726 20.8687C25.4215 20.9109 25.3841 20.9673 25.365 21.0307C25.3459 21.0941 25.3461 21.1618 25.3654 21.2251C25.3848 21.2885 25.4225 21.3447 25.4738 21.3866C25.5251 21.4285 25.5876 21.4543 25.6536 21.4607C25.7195 21.4671 25.7859 21.4538 25.8442 21.4225C25.9026 21.3912 25.9504 21.3432 25.9816 21.2848C26.0127 21.2263 26.0258 21.1599 26.0193 21.094C26.0102 21.0056 25.9665 20.9244 25.8977 20.8681C25.8289 20.8118 25.7406 20.7851 25.6521 20.7939Z" fill="#262626"/>
<path d="M35.6981 24.1729C35.6147 24.1729 35.534 24.144 35.4695 24.0912L34.4533 23.265C34.3791 23.2042 34.332 23.1163 34.3226 23.0208C34.3131 22.9252 34.342 22.8298 34.4028 22.7556C34.4637 22.6813 34.5516 22.6343 34.6471 22.6248C34.7427 22.6153 34.8381 22.6442 34.9123 22.7051L35.9285 23.5313C35.9866 23.5784 36.0286 23.6423 36.0489 23.7144C36.0691 23.7864 36.0665 23.8629 36.0414 23.9334C36.0164 24.0038 35.9701 24.0648 35.9089 24.1079C35.8477 24.1509 35.7747 24.174 35.6999 24.1738L35.6981 24.1729Z" fill="#262626"/>
<path d="M36.339 25.3938C36.095 25.3941 35.8585 25.3098 35.6698 25.1551C35.4763 24.9973 35.3449 24.7761 35.2986 24.5307C35.2524 24.2854 35.2943 24.0315 35.4169 23.814C35.5396 23.5966 35.7352 23.4294 35.9691 23.3421C36.203 23.2547 36.4603 23.2528 36.6955 23.3367C36.9307 23.4206 37.1287 23.5849 37.2545 23.8005C37.3804 24.0162 37.426 24.2693 37.3834 24.5154C37.3408 24.7614 37.2126 24.9845 37.0215 25.1452C36.8304 25.3059 36.5887 25.394 36.339 25.3938ZM36.339 24.0003H36.305C36.239 24.0069 36.1764 24.0328 36.1251 24.0749C36.0739 24.1171 36.0363 24.1734 36.0171 24.237C35.9979 24.3005 35.998 24.3682 36.0174 24.4317C36.0368 24.4951 36.0746 24.5514 36.126 24.5934C36.1675 24.6272 36.2166 24.6506 36.2691 24.6615C36.3216 24.6725 36.3759 24.6707 36.4275 24.6563C36.4792 24.6419 36.5266 24.6154 36.5658 24.5789C36.6051 24.5424 36.635 24.497 36.653 24.4465C36.6711 24.396 36.6768 24.342 36.6697 24.2889C36.6625 24.2357 36.6427 24.1851 36.6119 24.1412C36.5812 24.0973 36.5403 24.0615 36.4928 24.0366C36.4453 24.0118 36.3926 23.9987 36.339 23.9985V24.0003Z" fill="#262626"/>
<path d="M28.6712 18.431C28.5879 18.431 28.5071 18.4021 28.4427 18.3493L27.4265 17.5231C27.3897 17.493 27.3592 17.4559 27.3368 17.414C27.3144 17.3721 27.3004 17.3261 27.2957 17.2788C27.291 17.2315 27.2957 17.1837 27.3095 17.1382C27.3232 17.0927 27.3458 17.0504 27.376 17.0136C27.4061 16.9769 27.4432 16.9464 27.4851 16.924C27.527 16.9015 27.573 16.8876 27.6203 16.8829C27.6676 16.8782 27.7153 16.8829 27.7608 16.8966C27.8063 16.9104 27.8487 16.933 27.8855 16.9631L28.9017 17.7893C28.9597 17.8364 29.0018 17.9004 29.022 17.9724C29.0423 18.0444 29.0397 18.121 29.0146 18.1914C28.9895 18.2619 28.9432 18.3229 28.8821 18.3659C28.8209 18.409 28.7479 18.432 28.6731 18.4319L28.6712 18.431Z" fill="#262626"/>
<path d="M27.0125 17.7738C26.8431 17.7734 26.6762 17.7324 26.5259 17.6541C26.3756 17.5758 26.2463 17.4625 26.1489 17.3239C26.0515 17.1852 25.9888 17.0252 25.9661 16.8573C25.9434 16.6893 25.9613 16.5184 26.0184 16.3589C26.0755 16.1993 26.17 16.0558 26.2941 15.9404C26.4182 15.825 26.5682 15.7411 26.7315 15.6957C26.8947 15.6503 27.0665 15.6447 27.2323 15.6795C27.3982 15.7143 27.5532 15.7885 27.6845 15.8957C27.8466 16.0281 27.9657 16.2056 28.0269 16.4058C28.0881 16.606 28.0886 16.8198 28.0283 17.0203C27.9679 17.2207 27.8495 17.3988 27.688 17.5319C27.5265 17.6651 27.3291 17.7473 27.1209 17.7683C27.0805 17.772 27.0483 17.7738 27.0125 17.7738ZM27.0125 16.3794H26.9786C26.8913 16.3839 26.8092 16.4222 26.7498 16.4863C26.6904 16.5504 26.6584 16.6352 26.6606 16.7225C26.6628 16.8099 26.6991 16.893 26.7617 16.954C26.8242 17.015 26.9082 17.0491 26.9956 17.0491C27.0829 17.0491 27.1669 17.015 27.2295 16.954C27.292 16.893 27.3283 16.8099 27.3305 16.7225C27.3327 16.6352 27.3007 16.5504 27.2413 16.4863C27.1819 16.4222 27.0998 16.3839 27.0125 16.3794Z" fill="#262626"/>
<path d="M34.1322 17.8811C34.0642 17.8801 33.9978 17.8601 33.9407 17.8232C33.8836 17.7862 33.8381 17.734 33.8093 17.6723C33.7806 17.6107 33.7698 17.5422 33.7782 17.4747C33.7866 17.4073 33.8138 17.3435 33.8568 17.2908L34.683 16.2746C34.7131 16.2378 34.7502 16.2074 34.7921 16.1849C34.834 16.1625 34.8799 16.1485 34.9273 16.1439C34.9746 16.1392 35.0223 16.1438 35.0678 16.1576C35.1133 16.1714 35.1557 16.194 35.1925 16.2241C35.2292 16.2543 35.2597 16.2913 35.2821 16.3333C35.3046 16.3752 35.3185 16.4211 35.3232 16.4684C35.3279 16.5157 35.3232 16.5635 35.3095 16.609C35.2957 16.6545 35.2731 16.6968 35.2429 16.7336L34.4168 17.7498C34.3823 17.7917 34.3387 17.8252 34.2895 17.8479C34.2402 17.8707 34.1864 17.882 34.1322 17.8811Z" fill="#262626"/>
<path d="M35.4863 16.9199C35.2463 16.9195 35.0135 16.8375 34.8263 16.6872C34.6391 16.537 34.5086 16.3276 34.4562 16.0933C34.4038 15.8591 34.4326 15.614 34.538 15.3983C34.6433 15.1826 34.8189 15.0092 35.0359 14.9065C35.2528 14.8039 35.4983 14.7781 35.7319 14.8334C35.9654 14.8887 36.1732 15.0218 36.3211 15.2109C36.469 15.4 36.5482 15.6337 36.5456 15.8737C36.543 16.1138 36.4589 16.3458 36.307 16.5316C36.2077 16.6533 36.0825 16.7513 35.9405 16.8184C35.7985 16.8856 35.6434 16.9203 35.4863 16.9199ZM35.4872 15.5265C35.4083 15.5266 35.3319 15.5545 35.2716 15.6055C35.2112 15.6564 35.1708 15.727 35.1575 15.8049C35.1441 15.8827 35.1587 15.9627 35.1986 16.0309C35.2385 16.099 35.3012 16.1509 35.3756 16.1773C35.45 16.2037 35.5314 16.203 35.6053 16.1752C35.6793 16.1475 35.741 16.0946 35.7797 16.0258C35.8184 15.9569 35.8316 15.8766 35.8169 15.7991C35.8022 15.7215 35.7605 15.6516 35.6993 15.6017C35.6394 15.5529 35.5645 15.5264 35.4872 15.5265Z" fill="#262626"/>
<path d="M28.39 24.9082C28.322 24.9072 28.2556 24.8872 28.1985 24.8502C28.1414 24.8133 28.0959 24.7611 28.0671 24.6994C28.0384 24.6378 28.0276 24.5693 28.036 24.5018C28.0444 24.4343 28.0716 24.3706 28.1146 24.3179L28.9408 23.3017C28.9709 23.2649 29.008 23.2345 29.0499 23.212C29.0918 23.1896 29.1378 23.1756 29.1851 23.171C29.2324 23.1663 29.2802 23.1709 29.3257 23.1847C29.3712 23.1985 29.4135 23.2211 29.4503 23.2512C29.487 23.2814 29.5175 23.3184 29.5399 23.3604C29.5624 23.4023 29.5763 23.4482 29.581 23.4955C29.5857 23.5428 29.581 23.5906 29.5673 23.6361C29.5535 23.6816 29.5309 23.7239 29.5008 23.7607L28.6746 24.7769C28.6401 24.8188 28.5966 24.8523 28.5473 24.875C28.498 24.8978 28.4443 24.9091 28.39 24.9082Z" fill="#262626"/>
<path d="M27.864 26.2465C27.5871 26.2464 27.3211 26.1381 27.1228 25.9447C26.9245 25.7513 26.8096 25.4881 26.8026 25.2112C26.7956 24.9343 26.897 24.6657 27.0853 24.4625C27.2736 24.2593 27.5338 24.1378 27.8104 24.1237C28.087 24.1096 28.3582 24.2042 28.5661 24.3872C28.774 24.5702 28.9022 24.8272 28.9233 25.1034C28.9445 25.3796 28.8569 25.6531 28.6792 25.8656C28.5016 26.0781 28.2479 26.2128 27.9724 26.241C27.9364 26.2447 27.9002 26.2465 27.864 26.2465ZM27.864 24.8521H27.8301C27.7863 24.8564 27.7438 24.8693 27.7051 24.8901C27.6663 24.9109 27.632 24.9392 27.6043 24.9733C27.5561 25.0321 27.5295 25.1056 27.5286 25.1816C27.5278 25.2576 27.5528 25.3317 27.5996 25.3916C27.6464 25.4515 27.7122 25.4937 27.7862 25.5113C27.8602 25.5289 27.9379 25.5208 28.0067 25.4883C28.0754 25.4559 28.1311 25.401 28.1645 25.3328C28.198 25.2645 28.2073 25.1869 28.1908 25.1127C28.1743 25.0385 28.1331 24.9721 28.0739 24.9244C28.0146 24.8767 27.941 24.8506 27.865 24.8503L27.864 24.8521Z" fill="#262626"/>
<path d="M34.0569 23.9002C33.9825 23.8994 33.9101 23.8757 33.8497 23.8323C33.7893 23.7889 33.7437 23.7279 33.7192 23.6576C33.6947 23.5873 33.6925 23.5112 33.7128 23.4397C33.7332 23.3681 33.7751 23.3045 33.8329 23.2576C34.3113 22.8828 34.6837 22.3898 34.9135 21.8272C35.1433 21.2645 35.2224 20.6517 35.1431 20.0492C35.0639 19.4466 34.8289 18.8752 34.4615 18.3911C34.094 17.907 33.6067 17.5271 33.0476 17.2888C32.4886 17.0505 31.877 16.962 31.2734 17.032C30.6697 17.1021 30.0947 17.3283 29.6051 17.6883C29.1154 18.0484 28.7281 18.5298 28.4813 19.0852C28.2345 19.6405 28.1367 20.2506 28.1975 20.8553C28.2062 20.9503 28.1771 21.0449 28.1164 21.1185C28.0558 21.1921 27.9685 21.2387 27.8736 21.2483C27.7787 21.2579 27.6839 21.2296 27.6097 21.1695C27.5356 21.1095 27.4882 21.0227 27.4778 20.9278C27.4034 20.1972 27.5207 19.4599 27.8184 18.7885C28.116 18.1171 28.5835 17.535 29.1749 17.0995C29.7663 16.664 30.461 16.3904 31.1904 16.3054C31.9199 16.2205 32.6589 16.3273 33.3344 16.6153C34.01 16.9032 34.5988 17.3624 35.0427 17.9474C35.4866 18.5325 35.7702 19.2232 35.8656 19.9513C35.961 20.6795 35.8648 21.42 35.5866 22.0996C35.3083 22.7792 34.8577 23.3746 34.279 23.8268C34.2152 23.8753 34.1371 23.9012 34.0569 23.9002Z" fill="#262626"/>
<path d="M1.4901 44.5334C1.39417 44.5334 1.30218 44.4953 1.23435 44.4275C1.16652 44.3597 1.12842 44.2677 1.12842 44.1717V29.4439C1.13061 27.4068 1.94099 25.4538 3.38169 24.0136C4.82238 22.5734 6.77565 21.7638 8.81274 21.7623H14.0727C14.7722 19.975 14.1957 17.4478 14.1902 17.424C14.1704 17.3314 14.1878 17.2348 14.2385 17.1548C14.2891 17.0749 14.3691 17.018 14.4613 16.9964C14.5534 16.9748 14.6504 16.9901 14.7313 17.0392C14.8123 17.0882 14.8708 17.1671 14.8943 17.2587C14.9227 17.3799 15.5818 20.255 14.6391 22.2764C14.6099 22.3387 14.5636 22.3914 14.5056 22.4283C14.4475 22.4652 14.3802 22.4848 14.3114 22.4847H8.81274C6.96798 22.4869 5.1994 23.2207 3.89496 24.5252C2.59051 25.8296 1.85672 27.5982 1.85453 29.4429V44.1727C1.85441 44.2203 1.84488 44.2675 1.82648 44.3114C1.80807 44.3554 1.78117 44.3953 1.7473 44.4288C1.71344 44.4623 1.67328 44.4888 1.62914 44.5068C1.585 44.5247 1.53775 44.5338 1.4901 44.5334Z" fill="#262626"/>
<path d="M35.5511 44.1726V29.4438C35.5513 28.4825 35.362 27.5305 34.9942 26.6423C34.6264 25.7541 34.0872 24.9471 33.4075 24.2673C32.7278 23.5875 31.9208 23.0482 31.0327 22.6803C30.1445 22.3124 29.1926 22.123 28.2313 22.123L24.5842 21.9963C24.1008 21.972 23.6408 21.7806 23.2828 21.4548C22.9249 21.129 22.6911 20.689 22.6216 20.21C22.482 19.2452 22.4995 18.1335 22.8235 17.0889H14.5388C14.7275 18.051 14.8036 19.0319 14.7656 20.0117C14.7399 20.5297 14.5226 21.0196 14.1561 21.3865C13.7896 21.7534 13.2998 21.971 12.7819 21.9972L8.81256 22.123C6.8712 22.123 5.00936 22.8942 3.63662 24.267C2.26388 25.6397 1.49268 27.5015 1.49268 29.4429V44.1726" fill="#FFE3B8"/>
<path d="M35.551 44.5335C35.4551 44.5335 35.3631 44.4954 35.2953 44.4276C35.2274 44.3597 35.1893 44.2677 35.1893 44.1718V29.4439C35.1871 27.5992 34.4534 25.8306 33.1489 24.5261C31.8445 23.2217 30.0759 22.4879 28.2311 22.4857H28.2183L24.5712 22.359C24.0036 22.3303 23.4634 22.1058 23.0426 21.7238C22.6219 21.3417 22.3465 20.8256 22.2634 20.2633C22.1233 19.3267 22.1544 18.3725 22.3552 17.447H14.972C15.1105 18.3 15.1625 19.1648 15.1271 20.0283C15.0982 20.6362 14.8437 21.2115 14.4134 21.642C13.9832 22.0724 13.408 22.3271 12.8001 22.3563L8.8216 22.4848H8.81242C6.96766 22.487 5.19909 23.2208 3.89464 24.5252C2.5902 25.8297 1.85641 27.5982 1.85422 29.443V44.1727C1.85422 44.2687 1.81611 44.3607 1.74829 44.4285C1.68046 44.4963 1.58846 44.5344 1.49254 44.5344C1.39662 44.5344 1.30462 44.4963 1.23679 44.4285C1.16896 44.3607 1.13086 44.2687 1.13086 44.1727V29.4439C1.13328 27.4085 1.94249 25.4571 3.38115 24.0172C4.8198 22.5773 6.77058 21.7665 8.806 21.7624L12.7725 21.6338C13.2003 21.6117 13.6045 21.4313 13.9066 21.1275C14.2086 20.8238 14.3868 20.4186 14.4065 19.9907C14.442 19.0423 14.3684 18.093 14.1871 17.1615C14.1758 17.1088 14.1763 17.0541 14.1888 17.0017C14.2013 16.9492 14.2254 16.9001 14.2592 16.8582C14.2931 16.8162 14.336 16.7823 14.3847 16.759C14.4333 16.7357 14.4866 16.7237 14.5405 16.7236H22.8243C22.8809 16.7237 22.9366 16.7371 22.9871 16.7626C23.0376 16.7881 23.0814 16.8252 23.1149 16.8707C23.1485 16.9162 23.1709 16.969 23.1804 17.0248C23.1898 17.0805 23.1861 17.1377 23.1695 17.1918C22.8215 18.32 22.8739 19.428 22.9803 20.1587C23.0383 20.5543 23.2314 20.9177 23.527 21.1872C23.8225 21.4566 24.2022 21.6154 24.6015 21.6366L28.2366 21.7624C30.2721 21.7663 32.223 22.577 33.6618 24.0169C35.1005 25.4568 35.9096 27.4084 35.9118 29.4439V44.1727C35.9115 44.2683 35.8734 44.36 35.8058 44.4276C35.7382 44.4952 35.6466 44.5333 35.551 44.5335Z" fill="black"/>
<path d="M8.42711 44.5335C8.33119 44.5335 8.23919 44.4953 8.17136 44.4275C8.10354 44.3597 8.06543 44.2677 8.06543 44.1718V37.1576C8.06543 37.0617 8.10354 36.9697 8.17136 36.9018C8.23919 36.834 8.33119 36.7959 8.42711 36.7959C8.52303 36.7959 8.61503 36.834 8.68286 36.9018C8.75068 36.9697 8.78879 37.0617 8.78879 37.1576V44.1727C8.78855 44.2685 8.75033 44.3602 8.68253 44.4278C8.61473 44.4955 8.52287 44.5335 8.42711 44.5335Z" fill="black"/>
<path d="M25.3679 29.2014C25.803 30.9456 25.7222 32.7191 24.4985 35.8191V42.6047" fill="white"/>
<path d="M24.4989 42.9664C24.403 42.9664 24.311 42.9283 24.2431 42.8605C24.1753 42.7927 24.1372 42.7007 24.1372 42.6047V35.8191C24.1373 35.7735 24.146 35.7284 24.1629 35.686C25.4086 32.531 25.4058 30.8465 25.0175 29.2887C25.0037 29.2419 24.9995 29.1928 25.0052 29.1443C25.0109 29.0958 25.0263 29.049 25.0506 29.0066C25.0749 28.9643 25.1074 28.9273 25.1464 28.8978C25.1853 28.8684 25.2298 28.8472 25.2772 28.8354C25.3245 28.8236 25.3738 28.8215 25.422 28.8293C25.4702 28.8371 25.5163 28.8545 25.5575 28.8806C25.5988 28.9066 25.6344 28.9408 25.6621 28.9809C25.6898 29.0211 25.7091 29.0664 25.7189 29.1143C26.1375 30.796 26.1512 32.5943 24.8597 35.887V42.6047C24.8597 42.7005 24.8217 42.7924 24.754 42.8602C24.6864 42.928 24.5947 42.9662 24.4989 42.9664Z" fill="#262626"/>
<path d="M25.6406 9.79205C25.6406 14.4939 21.1352 19.8447 18.742 19.8447C16.3489 19.8447 11.5874 14.7509 11.5874 10.0482C11.5874 5.34541 16.3489 2.81641 18.742 2.81641C21.1352 2.81641 25.6406 5.0893 25.6406 9.79205Z" fill="#FFE3B8"/>
<path d="M18.7423 20.2064C17.4425 20.2064 15.5744 18.9213 13.9845 16.9357C12.2312 14.7445 11.2251 12.2339 11.2251 10.051C11.2251 5.13799 16.1904 2.45752 18.7414 2.45752C21.3466 2.45752 26.0016 4.90941 26.0016 9.79484C26.0016 11.998 25.046 14.5481 23.379 16.7999C21.823 18.9002 20.0459 20.2064 18.7423 20.2064ZM18.7423 3.17812C17.705 3.17812 15.9884 3.72891 14.4967 4.94889C13.3346 5.90082 11.9494 7.55867 11.9494 10.0482C11.9494 14.6481 16.6631 19.4831 18.7423 19.4831C19.7888 19.4831 21.4182 18.231 22.7988 16.362C24.375 14.2323 25.2774 11.8364 25.2774 9.7875C25.2774 7.2998 23.9628 5.71172 22.8594 4.8167C21.3659 3.60865 19.708 3.17812 18.7423 3.17812Z" fill="black"/>
<path d="M24.4767 1.75688C23.4192 0.968349 21.8348 0.379932 18.6531 0.36708C17.8958 0.36708 17.1734 0.36249 16.4978 0.361572C13.5116 0.361572 11.4563 0.377178 11.4563 0.377178C11.4563 0.377178 11.2139 1.38694 10.9881 2.81622C10.5824 5.38653 10.2326 9.32829 11.4563 11.1908C11.5638 11.4046 11.6508 11.628 11.7161 11.8582C13.3592 8.98405 12.5633 8.44704 14.3525 6.47432C15.1924 5.54809 22.3728 5.37276 23.1191 6.37794C24.1454 7.75489 24.1711 9.68262 25.9538 10.1067C25.9639 9.93415 25.9446 9.76065 25.9684 9.59266C26.4632 6.1154 26.7239 3.43218 24.4767 1.75688Z" fill="#FFD95F"/>
<path d="M21.5366 45.0659H14.5297C14.4536 45.0658 14.3794 45.0417 14.3178 44.9971C14.2561 44.9524 14.2101 44.8894 14.1864 44.8171L13.2381 41.9264C13.2124 41.8365 13.2224 41.7402 13.2662 41.6575C13.3099 41.5749 13.384 41.5124 13.4728 41.4832C13.5616 41.454 13.6583 41.4603 13.7426 41.5008C13.8269 41.5414 13.8921 41.613 13.9248 41.7006L14.7913 44.3425H21.5356C21.6316 44.3425 21.7236 44.3806 21.7914 44.4484C21.8592 44.5163 21.8973 44.6083 21.8973 44.7042C21.8973 44.8001 21.8592 44.8921 21.7914 44.9599C21.7236 45.0278 21.6316 45.0659 21.5356 45.0659H21.5366Z" fill="black"/>
<path d="M32.5548 46.6384C38.4855 46.6384 43.2932 41.8307 43.2932 35.9C43.2932 29.9694 38.4855 25.1616 32.5548 25.1616C26.6242 25.1616 21.8164 29.9694 21.8164 35.9C21.8164 41.8307 26.6242 46.6384 32.5548 46.6384Z" fill="white"/>
<path d="M32.5547 47C30.3593 47 28.2132 46.349 26.3878 45.1293C24.5624 43.9096 23.1397 42.176 22.2995 40.1477C21.4594 38.1194 21.2396 35.8876 21.6679 33.7344C22.0962 31.5812 23.1534 29.6033 24.7057 28.0509C26.2581 26.4986 28.236 25.4414 30.3892 25.0131C32.5424 24.5848 34.7742 24.8046 36.8025 25.6448C38.8308 26.4849 40.5644 27.9076 41.7841 29.733C43.0037 31.5584 43.6548 33.7045 43.6548 35.8999C43.6514 38.8428 42.4808 41.6641 40.3999 43.7451C38.3189 45.826 35.4976 46.9966 32.5547 47ZM32.5547 25.5195C30.5031 25.5195 28.4976 26.1279 26.7917 27.2677C25.0859 28.4075 23.7563 30.0275 22.9712 31.923C22.1861 33.8184 21.9807 35.9041 22.3809 37.9162C22.7812 39.9284 23.7691 41.7767 25.2198 43.2274C26.6705 44.6781 28.5188 45.666 30.531 46.0663C32.5432 46.4665 34.6288 46.2611 36.5243 45.476C38.4197 44.6909 40.0397 43.3613 41.1795 41.6555C42.3194 39.9497 42.9277 37.9441 42.9277 35.8925C42.9236 33.1427 41.8294 30.5067 39.885 28.5623C37.9405 26.6178 35.3045 25.5236 32.5547 25.5195Z" fill="#262626"/>
<path d="M39.3332 11.2542C41.2921 11.2542 42.8802 9.66616 42.8802 7.70719C42.8802 5.74822 41.2921 4.16016 39.3332 4.16016C37.3742 4.16016 35.7861 5.74822 35.7861 7.70719C35.7861 9.66616 37.3742 11.2542 39.3332 11.2542Z" fill="#F55555"/>
<path d="M39.3334 4.52186C39.2374 4.52186 39.1454 4.48375 39.0776 4.41592C39.0098 4.34809 38.9717 4.2561 38.9717 4.16018V2.95396C38.9717 2.85804 39.0098 2.76605 39.0776 2.69822C39.1454 2.63039 39.2374 2.59229 39.3334 2.59229C39.4293 2.59229 39.5213 2.63039 39.5891 2.69822C39.6569 2.76605 39.695 2.85804 39.695 2.95396V4.16018C39.695 4.2561 39.6569 4.34809 39.5891 4.41592C39.5213 4.48375 39.4293 4.52186 39.3334 4.52186Z" fill="#262626"/>
<path d="M39.333 3.19454C39.1347 3.19454 38.9409 3.13575 38.7761 3.0256C38.6112 2.91546 38.4827 2.7589 38.4069 2.57573C38.331 2.39256 38.3111 2.19101 38.3498 1.99656C38.3885 1.80211 38.484 1.62349 38.6242 1.4833C38.7644 1.34311 38.943 1.24764 39.1374 1.20896C39.3319 1.17028 39.5334 1.19013 39.7166 1.266C39.8998 1.34187 40.0563 1.47036 40.1665 1.6352C40.2766 1.80005 40.3354 1.99386 40.3354 2.19212C40.3352 2.4579 40.2295 2.71273 40.0415 2.90067C39.8536 3.08861 39.5988 3.1943 39.333 3.19454ZM39.333 1.90939C39.2785 1.90939 39.2253 1.92554 39.18 1.9558C39.1347 1.98606 39.0994 2.02907 39.0786 2.07939C39.0577 2.12971 39.0523 2.18508 39.0629 2.2385C39.0735 2.29192 39.0997 2.34099 39.1383 2.37951C39.1768 2.41802 39.2258 2.44425 39.2793 2.45487C39.3327 2.4655 39.3881 2.46005 39.4384 2.4392C39.4887 2.41836 39.5317 2.38306 39.562 2.33777C39.5922 2.29249 39.6084 2.23924 39.6084 2.18478C39.6074 2.11238 39.578 2.04327 39.5264 1.99241C39.4749 1.94156 39.4054 1.91305 39.333 1.91306V1.90939Z" fill="#262626"/>
<path d="M39.3334 12.8644C39.2374 12.8644 39.1454 12.8263 39.0776 12.7585C39.0098 12.6906 38.9717 12.5986 38.9717 12.5027V11.2965C38.9717 11.249 38.981 11.202 38.9992 11.1581C39.0174 11.1142 39.044 11.0743 39.0776 11.0407C39.1112 11.0072 39.1511 10.9805 39.1949 10.9623C39.2388 10.9442 39.2859 10.9348 39.3334 10.9348C39.3809 10.9348 39.4279 10.9442 39.4718 10.9623C39.5156 10.9805 39.5555 11.0072 39.5891 11.0407C39.6227 11.0743 39.6493 11.1142 39.6675 11.1581C39.6857 11.202 39.695 11.249 39.695 11.2965V12.5027C39.695 12.5986 39.6569 12.6906 39.5891 12.7585C39.5213 12.8263 39.4293 12.8644 39.3334 12.8644Z" fill="#262626"/>
<path d="M39.333 14.2661C39.1347 14.2661 38.9409 14.2073 38.7761 14.0971C38.6112 13.987 38.4827 13.8304 38.4069 13.6473C38.331 13.4641 38.3111 13.2625 38.3498 13.0681C38.3885 12.8736 38.484 12.695 38.6242 12.5548C38.7644 12.4146 38.943 12.3192 39.1374 12.2805C39.3319 12.2418 39.5334 12.2617 39.7166 12.3375C39.8998 12.4134 40.0563 12.5419 40.1665 12.7067C40.2766 12.8716 40.3354 13.0654 40.3354 13.2637C40.3352 13.5294 40.2295 13.7843 40.0415 13.9722C39.8536 14.1601 39.5988 14.2658 39.333 14.2661ZM39.333 12.9809C39.2785 12.9809 39.2253 12.9971 39.18 13.0273C39.1347 13.0576 39.0994 13.1006 39.0786 13.1509C39.0577 13.2012 39.0523 13.2566 39.0629 13.31C39.0735 13.3635 39.0997 13.4125 39.1383 13.451C39.1768 13.4896 39.2258 13.5158 39.2793 13.5264C39.3327 13.537 39.3881 13.5316 39.4384 13.5107C39.4887 13.4899 39.5317 13.4546 39.562 13.4093C39.5922 13.364 39.6084 13.3108 39.6084 13.2563C39.6074 13.1839 39.578 13.1148 39.5264 13.0639C39.4749 13.0131 39.4054 12.9846 39.333 12.9846V12.9809Z" fill="#262626"/>
<path d="M44.1074 8.09006H42.9012C42.8053 8.09006 42.7133 8.05195 42.6455 7.98412C42.5777 7.9163 42.5396 7.8243 42.5396 7.72838C42.5396 7.63246 42.5777 7.54046 42.6455 7.47263C42.7133 7.4048 42.8053 7.3667 42.9012 7.3667H44.1074C44.2034 7.3667 44.2954 7.4048 44.3632 7.47263C44.431 7.54046 44.4691 7.63246 44.4691 7.72838C44.4691 7.8243 44.431 7.9163 44.3632 7.98412C44.2954 8.05195 44.2034 8.09006 44.1074 8.09006Z" fill="#262626"/>
<path d="M44.8695 8.73092C44.6712 8.7311 44.4774 8.67246 44.3124 8.56243C44.1474 8.45239 44.0188 8.2959 43.9428 8.11274C43.8668 7.92959 43.8468 7.72801 43.8854 7.5335C43.9239 7.33899 44.0193 7.16029 44.1595 7.02C44.2996 6.87972 44.4783 6.78416 44.6727 6.7454C44.8672 6.70665 45.0688 6.72645 45.252 6.80229C45.4352 6.87814 45.5919 7.00662 45.702 7.17149C45.8122 7.33635 45.871 7.5302 45.871 7.7285C45.8708 7.99412 45.7652 8.24881 45.5775 8.43672C45.3898 8.62464 45.1352 8.73043 44.8695 8.73092ZM44.8695 7.44576C44.8151 7.44576 44.7618 7.46191 44.7165 7.49217C44.6713 7.52243 44.636 7.56544 44.6151 7.61577C44.5943 7.66609 44.5888 7.72146 44.5995 7.77488C44.6101 7.8283 44.6363 7.87737 44.6748 7.91588C44.7133 7.9544 44.7624 7.98063 44.8158 7.99125C44.8692 8.00188 44.9246 7.99642 44.9749 7.97558C45.0253 7.95474 45.0683 7.91944 45.0985 7.87415C45.1288 7.82886 45.1449 7.77562 45.1449 7.72115C45.144 7.64875 45.1145 7.57965 45.063 7.52879C45.0114 7.47794 44.942 7.44943 44.8695 7.44943V7.44576Z" fill="#262626"/>
<path d="M35.7652 8.09006H34.5589C34.463 8.09006 34.371 8.05195 34.3032 7.98412C34.2354 7.9163 34.1973 7.8243 34.1973 7.72838C34.1973 7.63246 34.2354 7.54046 34.3032 7.47263C34.371 7.4048 34.463 7.3667 34.5589 7.3667H35.7652C35.8127 7.3667 35.8597 7.37605 35.9036 7.39423C35.9474 7.41241 35.9873 7.43905 36.0209 7.47263C36.0545 7.50622 36.0811 7.54609 36.0993 7.58997C36.1175 7.63385 36.1268 7.68088 36.1268 7.72838C36.1268 7.77588 36.1175 7.82291 36.0993 7.86679C36.0811 7.91067 36.0545 7.95054 36.0209 7.98412C35.9873 8.01771 35.9474 8.04435 35.9036 8.06253C35.8597 8.0807 35.8127 8.09006 35.7652 8.09006Z" fill="#262626"/>
<path d="M33.7978 8.73092C33.5996 8.73092 33.4058 8.67213 33.2409 8.56198C33.0761 8.45183 32.9476 8.29528 32.8717 8.11211C32.7958 7.92894 32.776 7.72738 32.8147 7.53293C32.8533 7.33848 32.9488 7.15987 33.089 7.01968C33.2292 6.87949 33.4078 6.78401 33.6023 6.74534C33.7967 6.70666 33.9983 6.72651 34.1814 6.80238C34.3646 6.87825 34.5212 7.00673 34.6313 7.17158C34.7415 7.33643 34.8002 7.53024 34.8002 7.7285C34.8 7.99428 34.6943 8.24911 34.5064 8.43705C34.3184 8.62499 34.0636 8.73067 33.7978 8.73092ZM33.7978 7.44576C33.7434 7.44576 33.6901 7.46191 33.6448 7.49217C33.5995 7.52243 33.5642 7.56544 33.5434 7.61577C33.5226 7.66609 33.5171 7.72146 33.5277 7.77488C33.5384 7.8283 33.5646 7.87737 33.6031 7.91588C33.6416 7.9544 33.6907 7.98063 33.7441 7.99125C33.7975 8.00188 33.8529 7.99642 33.9032 7.97558C33.9535 7.95474 33.9965 7.91944 34.0268 7.87415C34.0571 7.82886 34.0732 7.77562 34.0732 7.72115C34.0723 7.64875 34.0428 7.57965 33.9913 7.52879C33.9397 7.47794 33.8702 7.44943 33.7978 7.44943V7.44576Z" fill="#262626"/>
<path d="M42.7095 11.4653C42.662 11.4655 42.6149 11.4562 42.5709 11.4381C42.527 11.42 42.4871 11.3934 42.4534 11.3598L41.6006 10.507C41.5358 10.4386 41.5002 10.3476 41.5015 10.2533C41.5028 10.1591 41.5408 10.0691 41.6074 10.0024C41.674 9.93578 41.7641 9.89778 41.8583 9.89652C41.9525 9.89525 42.0435 9.93082 42.1119 9.99566L42.9647 10.8484C43.0152 10.8991 43.0494 10.9635 43.0633 11.0336C43.0771 11.1037 43.0699 11.1763 43.0425 11.2423C43.0151 11.3083 42.9687 11.3647 42.9093 11.4044C42.8499 11.4441 42.7801 11.4653 42.7086 11.4653H42.7095Z" fill="#262626"/>
<path d="M43.2472 12.645C43.1156 12.6453 42.9851 12.6195 42.8635 12.5691C42.7419 12.5187 42.6314 12.4446 42.5386 12.3512C42.3746 12.1872 42.2726 11.9714 42.2499 11.7406C42.2272 11.5098 42.2853 11.2783 42.4142 11.0855C42.5431 10.8926 42.7348 10.7505 42.9568 10.6832C43.1787 10.616 43.4171 10.6277 43.6314 10.7165C43.8456 10.8053 44.0225 10.9657 44.1317 11.1703C44.241 11.3748 44.276 11.6109 44.2306 11.8384C44.1853 12.0658 44.0626 12.2705 43.8833 12.4176C43.7039 12.5647 43.4792 12.645 43.2472 12.645ZM43.2472 11.3598C43.1902 11.3572 43.1338 11.3723 43.0858 11.4031C43.0377 11.4339 43.0005 11.4789 42.9791 11.5318C42.9577 11.5847 42.9533 11.643 42.9665 11.6985C42.9797 11.754 43.0098 11.8041 43.0526 11.8418C43.1058 11.8926 43.1765 11.921 43.25 11.921C43.3235 11.921 43.3942 11.8926 43.4474 11.8418C43.4883 11.8035 43.5166 11.7536 43.5285 11.6988C43.5403 11.6441 43.5352 11.587 43.5137 11.5352C43.4923 11.4834 43.4555 11.4394 43.4084 11.409C43.3613 11.3787 43.306 11.3634 43.25 11.3653L43.2472 11.3598Z" fill="#262626"/>
<path d="M36.8107 5.56668C36.7633 5.56675 36.7164 5.55747 36.6726 5.53935C36.6288 5.52123 36.589 5.49465 36.5555 5.46111L35.7027 4.60832C35.6677 4.57508 35.6396 4.53516 35.6202 4.49091C35.6008 4.44665 35.5905 4.39897 35.5899 4.35066C35.5892 4.30235 35.5983 4.2544 35.6165 4.20964C35.6346 4.16489 35.6616 4.12423 35.6958 4.09006C35.7299 4.0559 35.7706 4.02893 35.8154 4.01074C35.8601 3.99255 35.9081 3.98352 35.9564 3.98416C36.0047 3.98481 36.0524 3.99513 36.0966 4.01451C36.1409 4.03389 36.1808 4.06195 36.214 4.09701L37.0668 4.9498C37.1172 5.00044 37.1515 5.06487 37.1654 5.13497C37.1792 5.20507 37.172 5.27769 37.1446 5.34368C37.1172 5.40967 37.0708 5.46607 37.0114 5.50576C36.952 5.54544 36.8822 5.56664 36.8107 5.56668Z" fill="#262626"/>
<path d="M35.4187 4.81563C35.2539 4.81568 35.0915 4.77507 34.9461 4.69738C34.8007 4.61969 34.6767 4.50734 34.585 4.37027C34.4934 4.2332 34.437 4.07565 34.4209 3.91157C34.4047 3.7475 34.4292 3.58197 34.4923 3.42964C34.5554 3.27732 34.6551 3.14291 34.7825 3.03832C34.91 2.93373 35.0613 2.86219 35.223 2.83004C35.3847 2.79788 35.5518 2.80611 35.7096 2.854C35.8673 2.90188 36.0108 2.98794 36.1274 3.10454C36.2675 3.24473 36.363 3.42332 36.4016 3.61773C36.4403 3.81214 36.4204 4.01365 36.3446 4.19678C36.2687 4.37992 36.1403 4.53645 35.9755 4.6466C35.8107 4.75675 35.6169 4.81558 35.4187 4.81563ZM35.4187 3.53048C35.3627 3.52858 35.3074 3.54383 35.2603 3.57417C35.2132 3.60452 35.1764 3.64853 35.155 3.70031C35.1335 3.7521 35.1284 3.8092 35.1403 3.86398C35.1521 3.91877 35.1804 3.96863 35.2214 4.0069C35.2745 4.05774 35.3452 4.08611 35.4187 4.08611C35.4923 4.08611 35.563 4.05774 35.6161 4.0069C35.657 3.96863 35.6853 3.91877 35.6972 3.86398C35.7091 3.8092 35.7039 3.7521 35.6825 3.70031C35.661 3.64853 35.6243 3.60452 35.5771 3.57417C35.53 3.54383 35.4748 3.52858 35.4187 3.53048Z" fill="#262626"/>
<path d="M41.8596 5.56647C41.7882 5.56625 41.7185 5.54492 41.6592 5.50517C41.6 5.46541 41.5538 5.40901 41.5265 5.34305C41.4992 5.2771 41.492 5.20455 41.5059 5.13453C41.5198 5.06452 41.554 5.00017 41.6044 4.9496L42.4572 4.0968C42.489 4.05665 42.529 4.02371 42.5745 4.00016C42.62 3.97662 42.67 3.96302 42.7211 3.96025C42.7723 3.95748 42.8235 3.96561 42.8712 3.9841C42.919 4.00259 42.9623 4.03102 42.9983 4.06751C43.0342 4.10399 43.062 4.14771 43.0798 4.19575C43.0976 4.24379 43.105 4.29506 43.1015 4.34617C43.098 4.39728 43.0837 4.44707 43.0595 4.49222C43.0353 4.53738 43.0018 4.57688 42.9612 4.60811L42.1084 5.4609C42.0423 5.52708 41.9531 5.56494 41.8596 5.56647Z" fill="#262626"/>
<path d="M43.2473 4.81564C43.0154 4.8157 42.7907 4.73535 42.6113 4.58828C42.432 4.4412 42.3093 4.23649 42.2639 4.00904C42.2186 3.78159 42.2536 3.54547 42.3629 3.34091C42.4721 3.13634 42.649 2.976 42.8632 2.88719C43.0775 2.79839 43.3159 2.78662 43.5378 2.85389C43.7598 2.92115 43.9515 3.0633 44.0804 3.25611C44.2093 3.44891 44.2674 3.68044 44.2447 3.91125C44.222 4.14206 44.12 4.35786 43.956 4.52189C43.8632 4.61526 43.7527 4.68931 43.6311 4.73973C43.5095 4.79015 43.379 4.81595 43.2473 4.81564ZM43.2473 3.53048C43.1905 3.52806 43.1344 3.54329 43.0866 3.57406C43.0388 3.60483 43.0017 3.64964 42.9804 3.70234C42.959 3.75504 42.9545 3.81304 42.9675 3.8684C42.9805 3.92375 43.0102 3.97374 43.0527 4.01149C43.1059 4.06233 43.1766 4.0907 43.2501 4.0907C43.3236 4.0907 43.3943 4.06233 43.4475 4.01149C43.4884 3.97322 43.5167 3.92336 43.5286 3.86857C43.5404 3.81379 43.5353 3.75669 43.5138 3.7049C43.4924 3.65312 43.4556 3.60911 43.4085 3.57876C43.3614 3.54842 43.3061 3.53317 43.2501 3.53507L43.2473 3.53048Z" fill="#262626"/>
<path d="M35.9577 11.4653C35.8862 11.4653 35.8164 11.4441 35.757 11.4044C35.6976 11.3647 35.6512 11.3083 35.6238 11.2423C35.5964 11.1763 35.5892 11.1037 35.603 11.0336C35.6169 10.9635 35.6512 10.8991 35.7016 10.8484L36.5544 9.99566C36.6228 9.93082 36.7138 9.89525 36.808 9.89652C36.9023 9.89778 36.9923 9.93578 37.0589 10.0024C37.1256 10.0691 37.1636 10.1591 37.1648 10.2533C37.1661 10.3476 37.1305 10.4386 37.0657 10.507L36.2129 11.3598C36.1794 11.3933 36.1396 11.4198 36.0958 11.4379C36.052 11.456 36.0051 11.4653 35.9577 11.4653Z" fill="#262626"/>
<path d="M35.4191 12.645C35.2209 12.6449 35.0271 12.5861 34.8624 12.4759C34.6976 12.3658 34.5691 12.2093 34.4933 12.0261C34.4174 11.843 34.3976 11.6415 34.4362 11.4471C34.4749 11.2527 34.5703 11.0741 34.7104 10.9339C34.827 10.8173 34.9705 10.7312 35.1283 10.6833C35.286 10.6355 35.4532 10.6272 35.6149 10.6594C35.7766 10.6915 35.9279 10.7631 36.0553 10.8677C36.1828 10.9723 36.2825 11.1067 36.3455 11.259C36.4086 11.4113 36.4332 11.5768 36.417 11.7409C36.4008 11.905 36.3444 12.0625 36.2528 12.1996C36.1612 12.3367 36.0372 12.449 35.8917 12.5267C35.7463 12.6044 35.584 12.645 35.4191 12.645ZM35.4191 11.3598C35.3824 11.3596 35.3461 11.3667 35.3122 11.3808C35.2783 11.3948 35.2476 11.4154 35.2218 11.4415C35.1954 11.4672 35.1744 11.4979 35.1601 11.5318C35.1458 11.5657 35.1384 11.6021 35.1384 11.6389C35.1384 11.6757 35.1458 11.7121 35.1601 11.746C35.1744 11.7799 35.1954 11.8106 35.2218 11.8363C35.2749 11.8871 35.3456 11.9155 35.4191 11.9155C35.4927 11.9155 35.5633 11.8871 35.6165 11.8363C35.6574 11.798 35.6857 11.7481 35.6976 11.6933C35.7095 11.6385 35.7043 11.5814 35.6829 11.5297C35.6614 11.4779 35.6247 11.4339 35.5775 11.4035C35.5304 11.3732 35.4751 11.3579 35.4191 11.3598Z" fill="#262626"/>
<path d="M39.3332 11.615C38.4314 11.6148 37.5574 11.3028 36.8594 10.7319C36.1613 10.1609 35.6821 9.36619 35.5031 8.48233C35.3241 7.59847 35.4562 6.67989 35.877 5.8823C36.2978 5.0847 36.9815 4.45716 37.8122 4.10604C37.856 4.08741 37.903 4.0776 37.9506 4.07716C37.9983 4.07673 38.0455 4.08567 38.0896 4.10349C38.1338 4.1213 38.174 4.14764 38.208 4.181C38.242 4.21435 38.269 4.25407 38.2877 4.29789C38.3063 4.34171 38.3161 4.38877 38.3165 4.43638C38.317 4.484 38.308 4.53123 38.2902 4.57538C38.2724 4.61954 38.2461 4.65975 38.2127 4.69373C38.1793 4.7277 38.1396 4.75478 38.0958 4.7734C37.42 5.05879 36.8635 5.56868 36.5201 6.21694C36.1768 6.86519 36.0677 7.61208 36.2114 8.33145C36.355 9.05081 36.7425 9.69856 37.3084 10.1653C37.8744 10.632 38.5841 10.8891 39.3176 10.8931C40.0512 10.8971 40.7636 10.6478 41.3346 10.1874C41.9057 9.72688 42.3002 9.08342 42.4518 8.36567C42.6033 7.64792 42.5024 6.89988 42.1662 6.2479C41.83 5.59592 41.279 5.07996 40.6065 4.78717C40.5211 4.7472 40.4547 4.67548 40.4214 4.58728C40.3881 4.49909 40.3906 4.40138 40.4283 4.31498C40.466 4.22858 40.5359 4.16031 40.6232 4.12471C40.7105 4.08912 40.8082 4.089 40.8956 4.1244C41.7192 4.483 42.3942 5.11435 42.8069 5.9122C43.2197 6.71006 43.345 7.62574 43.1618 8.50516C42.9787 9.38458 42.4982 10.1741 41.8012 10.7408C41.1043 11.3075 40.2334 11.6169 39.3351 11.6169L39.3332 11.615Z" fill="#262626"/>
<path d="M40.546 34.869C40.3738 34.869 40.2043 34.9123 40.0533 34.9951C39.9023 35.0779 39.7747 35.1975 39.6821 35.3427L39.5848 35.3611C39.1362 35.4449 38.6758 35.4449 38.2272 35.3611L38.0766 35.3326C37.9858 34.2624 37.5795 33.2433 36.909 32.4043L36.9677 32.3189C37.2257 31.9423 37.5513 31.6167 37.9279 31.3587L38.0096 31.3027C38.2259 31.3507 38.4519 31.3272 38.6537 31.2358C38.8555 31.1445 39.0223 30.9902 39.129 30.796C39.2357 30.6019 39.2766 30.3784 39.2456 30.1591C39.2146 29.9397 39.1133 29.7363 38.9569 29.5794C38.8005 29.4225 38.5975 29.3205 38.3783 29.2887C38.159 29.2569 37.9354 29.297 37.7409 29.403C37.5464 29.5091 37.3915 29.6753 37.2994 29.8768C37.2074 30.0783 37.1831 30.3042 37.2303 30.5206L37.1504 30.6363C36.89 31.0118 36.5623 31.3359 36.1838 31.5919L36.1425 31.6194C35.3047 30.9164 34.2741 30.4828 33.1857 30.3756L33.1802 30.3471C33.0935 29.8987 33.0907 29.438 33.1719 28.9885L33.1967 28.8499C33.3836 28.7307 33.5268 28.5542 33.6048 28.3467C33.6828 28.1392 33.6915 27.912 33.6294 27.6993C33.5673 27.4865 33.4379 27.2995 33.2606 27.1666C33.0833 27.0336 32.8676 26.9617 32.6459 26.9617C32.4243 26.9617 32.2086 27.0336 32.0313 27.1666C31.8539 27.2995 31.7245 27.4865 31.6625 27.6993C31.6004 27.912 31.609 28.1392 31.687 28.3467C31.765 28.5542 31.9082 28.7307 32.0951 28.8499L32.1135 28.9472C32.1973 29.3959 32.1973 29.8562 32.1135 30.3049L32.1006 30.3737C31.0136 30.4814 29.9844 30.9146 29.1475 31.6167L29.1062 31.5891C28.7277 31.3331 28.4 31.0091 28.1396 30.6335L28.0598 30.5179C28.1069 30.3014 28.0826 30.0755 27.9906 29.874C27.8985 29.6725 27.7436 29.5063 27.5491 29.4003C27.3546 29.2943 27.131 29.2541 26.9117 29.2859C26.6925 29.3177 26.4895 29.4197 26.3331 29.5767C26.1767 29.7336 26.0754 29.937 26.0444 30.1563C26.0134 30.3756 26.0543 30.5991 26.161 30.7933C26.2677 30.9874 26.4345 31.1417 26.6363 31.2331C26.8381 31.3244 27.0641 31.3479 27.2804 31.3L27.3621 31.356C27.7387 31.614 28.0643 31.9395 28.3223 32.3162L28.381 32.4015C27.7107 33.2403 27.3043 34.2591 27.2134 35.3289L27.1032 35.3501C26.6548 35.4367 26.1941 35.4395 25.7446 35.3583L25.606 35.3335C25.4869 35.1466 25.3103 35.0034 25.1028 34.9254C24.8953 34.8474 24.6681 34.8388 24.4554 34.9008C24.2426 34.9629 24.0556 35.0923 23.9227 35.2696C23.7897 35.447 23.7178 35.6627 23.7178 35.8843C23.7178 36.106 23.7897 36.3216 23.9227 36.499C24.0556 36.6763 24.2426 36.8057 24.4554 36.8678C24.6681 36.9299 24.8953 36.9212 25.1028 36.8432C25.3103 36.7652 25.4869 36.622 25.606 36.4351L25.7033 36.4167C26.152 36.3329 26.6123 36.3329 27.061 36.4167L27.2299 36.4479C27.3536 37.4875 27.7754 38.4691 28.4444 39.2744L28.3205 39.458C28.0624 39.8346 27.7369 40.1601 27.3603 40.4182L27.2786 40.4742C27.0623 40.4262 26.8363 40.4497 26.6345 40.5411C26.4327 40.6324 26.2659 40.7867 26.1592 40.9809C26.0525 41.175 26.0116 41.3985 26.0426 41.6178C26.0736 41.8372 26.1749 42.0406 26.3313 42.1975C26.4876 42.3544 26.6907 42.4564 26.9099 42.4882C27.1291 42.52 27.3528 42.4799 27.5473 42.3738C27.7418 42.2678 27.8967 42.1016 27.9887 41.9001C28.0808 41.6986 28.1051 41.4727 28.0579 41.2563L28.1378 41.1406C28.3981 40.765 28.7259 40.441 29.1044 40.185L29.2641 40.0776C30.0711 40.7172 31.0435 41.1139 32.0676 41.2214L32.108 41.4298C32.1947 41.8782 32.1975 42.3389 32.1163 42.7884L32.0915 42.927C31.9046 43.0461 31.7614 43.2227 31.6834 43.4302C31.6053 43.6377 31.5967 43.8648 31.6588 44.0776C31.7208 44.2904 31.8503 44.4773 32.0276 44.6103C32.2049 44.7433 32.4206 44.8152 32.6422 44.8152C32.8639 44.8152 33.0796 44.7433 33.2569 44.6103C33.4342 44.4773 33.5636 44.2904 33.6257 44.0776C33.6878 43.8648 33.6792 43.6377 33.6011 43.4302C33.5231 43.2227 33.3799 43.0461 33.193 42.927L33.1747 42.8297C33.0908 42.381 33.0908 41.9207 33.1747 41.472L33.2215 41.2241C34.2449 41.1163 35.2166 40.7196 36.0231 40.0803L36.1829 40.1878C36.5614 40.4438 36.8891 40.7678 37.1495 41.1434L37.2293 41.259C37.1822 41.4755 37.2065 41.7014 37.2985 41.9029C37.3906 42.1044 37.5455 42.2706 37.74 42.3766C37.9345 42.4826 38.1581 42.5227 38.3774 42.4909C38.5966 42.4592 38.7996 42.3571 38.956 42.2002C39.1123 42.0433 39.2136 41.8399 39.2447 41.6206C39.2757 41.4012 39.2348 41.1777 39.1281 40.9836C39.0214 40.7895 38.8546 40.6352 38.6528 40.5438C38.451 40.4525 38.225 40.429 38.0087 40.4769L37.927 40.4209C37.5504 40.1629 37.2248 39.8373 36.9668 39.4607L36.8429 39.2771C37.5122 38.4713 37.9339 37.4891 38.0573 36.4489L38.1859 36.4241C38.6343 36.3374 39.095 36.3346 39.5445 36.4158L39.6831 36.4406C39.7791 36.5902 39.9125 36.7122 40.07 36.7947C40.2275 36.8771 40.4037 36.9172 40.5814 36.9109C40.7591 36.9046 40.932 36.8522 41.0833 36.7588C41.2346 36.6654 41.3589 36.5342 41.4442 36.3782C41.5294 36.2222 41.5725 36.0466 41.5694 35.8689C41.5662 35.6911 41.5169 35.5173 41.4262 35.3644C41.3355 35.2115 41.2065 35.0848 41.052 34.9968C40.8975 34.9089 40.7228 34.8626 40.545 34.8626L40.546 34.869Z" fill="#FFC7CA"/>
<path d="M32.6448 39.4195C34.6408 39.4195 36.2588 37.8014 36.2588 35.8054C36.2588 33.8095 34.6408 32.1914 32.6448 32.1914C30.6488 32.1914 29.0308 33.8095 29.0308 35.8054C29.0308 37.8014 30.6488 39.4195 32.6448 39.4195Z" fill="#F55555"/>
<path d="M32.6447 39.781C31.8585 39.781 31.0901 39.548 30.4364 39.1113C29.7826 38.6747 29.2731 38.054 28.972 37.3278C28.671 36.6016 28.592 35.8025 28.745 35.0314C28.898 34.2603 29.2762 33.5519 29.8318 32.9957C30.3873 32.4395 31.0953 32.0605 31.8662 31.9065C32.6371 31.7526 33.4364 31.8307 34.1629 32.1309C34.8895 32.4311 35.5107 32.94 35.9481 33.5932C36.3855 34.2464 36.6195 35.0146 36.6204 35.8007C36.6204 36.8556 36.2017 37.8673 35.4562 38.6136C34.7107 39.3599 33.6995 39.7798 32.6447 39.781ZM32.6447 32.553C32.0012 32.553 31.3722 32.7438 30.8373 33.1014C30.3023 33.459 29.8855 33.9672 29.6394 34.5618C29.3934 35.1563 29.3293 35.8105 29.4551 36.4415C29.581 37.0725 29.8912 37.652 30.3465 38.1067C30.8018 38.5614 31.3818 38.8708 32.013 38.9957C32.6442 39.1207 33.2983 39.0557 33.8925 38.8088C34.4867 38.5619 34.9943 38.1443 35.3511 37.6089C35.708 37.0734 35.8979 36.4442 35.897 35.8007C35.8948 34.9392 35.5513 34.1137 34.9417 33.505C34.3322 32.8963 33.5062 32.5539 32.6447 32.553Z" fill="black"/>
<path d="M32.6448 45.1797C32.3597 45.1795 32.0815 45.0914 31.8483 44.9273C31.6151 44.7633 31.4381 44.5313 31.3416 44.263C31.245 43.9947 31.2335 43.7032 31.3087 43.4281C31.3839 43.1531 31.5421 42.9079 31.7617 42.726C31.8314 42.3378 31.8314 41.9402 31.7617 41.5519C30.8561 41.414 29.9962 41.0628 29.2529 40.5275C28.9345 40.7528 28.6583 41.0325 28.4368 41.3537C28.4638 41.6379 28.4024 41.9235 28.2609 42.1715C28.1195 42.4195 27.9049 42.6178 27.6465 42.7393C27.3881 42.8607 27.0985 42.8994 26.8173 42.85C26.536 42.8006 26.2769 42.6656 26.0753 42.4634C25.8737 42.2613 25.7395 42.0017 25.691 41.7204C25.6424 41.439 25.682 41.1495 25.8042 40.8915C25.9264 40.6335 26.1253 40.4194 26.3737 40.2787C26.6221 40.138 26.9079 40.0774 27.1921 40.1052C27.5053 39.8848 27.778 39.6118 27.9981 39.2983C27.4374 38.5542 27.0649 37.6856 26.9121 36.7666C26.5489 36.7083 26.1785 36.7108 25.816 36.7739C25.6344 36.9942 25.3893 37.153 25.114 37.2287C24.8387 37.3044 24.5468 37.2933 24.2781 37.1968C24.0094 37.1003 23.777 36.9232 23.6128 36.6897C23.4485 36.4562 23.3604 36.1777 23.3604 35.8922C23.3604 35.6067 23.4485 35.3282 23.6128 35.0947C23.777 34.8612 24.0094 34.6841 24.2781 34.5876C24.5468 34.4911 24.8387 34.48 25.114 34.5557C25.3893 34.6314 25.6344 34.7902 25.816 35.0105C26.1698 35.0745 26.5316 35.0807 26.8873 35.0289C27.0131 34.0809 27.3724 33.1791 27.9329 32.4044C27.7251 32.1294 27.4758 31.8884 27.1939 31.6902C27.0066 31.7095 26.8172 31.6905 26.6375 31.6342C26.4578 31.578 26.2914 31.4857 26.1485 31.3629C26.0056 31.2402 25.8893 31.0897 25.8065 30.9205C25.7237 30.7513 25.6763 30.5671 25.6671 30.379C25.6579 30.1908 25.6872 30.0028 25.7531 29.8264C25.819 29.65 25.9201 29.4888 26.0504 29.3528C26.1807 29.2167 26.3373 29.1087 26.5107 29.0352C26.6841 28.9617 26.8706 28.9243 27.059 28.9253C27.2517 28.9257 27.4423 28.9663 27.6185 29.0446C27.7946 29.1228 27.9526 29.2369 28.0822 29.3796C28.2117 29.5223 28.3101 29.6905 28.371 29.8734C28.432 30.0563 28.4541 30.2499 28.4359 30.4418C28.6293 30.7207 28.8643 30.9684 29.1327 31.1761C29.9085 30.5859 30.8212 30.2019 31.7856 30.0599C31.8279 29.7302 31.8205 29.396 31.7636 29.0685C31.5433 28.8869 31.3844 28.6417 31.3087 28.3664C31.2331 28.0911 31.2442 27.7992 31.3407 27.5305C31.4372 27.2618 31.6142 27.0295 31.8477 26.8652C32.0813 26.7009 32.3598 26.6128 32.6453 26.6128C32.9308 26.6128 33.2093 26.7009 33.4428 26.8652C33.6763 27.0295 33.8534 27.2618 33.9499 27.5305C34.0463 27.7992 34.0575 28.0911 33.9818 28.3664C33.9061 28.6417 33.7473 28.8869 33.527 29.0685C33.4676 29.3966 33.458 29.7317 33.4985 30.0626C34.4636 30.2043 35.377 30.5883 36.1533 31.1789C36.4217 30.9712 36.6567 30.7235 36.85 30.4445C36.8215 30.1602 36.8815 29.874 37.0218 29.625C37.1622 29.3761 37.3761 29.1767 37.6342 29.054C37.8923 28.9313 38.182 28.8914 38.4636 28.9398C38.7453 28.9881 39.0051 29.1223 39.2075 29.324C39.41 29.5257 39.5451 29.785 39.5945 30.0665C39.6439 30.3479 39.605 30.6378 39.4833 30.8963C39.3616 31.1549 39.1629 31.3695 38.9145 31.5108C38.6661 31.6521 38.3801 31.7131 38.0957 31.6856C37.8151 31.8856 37.5673 32.1281 37.3613 32.4044C37.9231 33.1788 38.2837 34.0806 38.4106 35.0289C38.765 35.0827 39.1259 35.0786 39.4791 35.0169C39.6607 34.7966 39.9059 34.6378 40.1812 34.5621C40.4564 34.4864 40.7484 34.4976 41.0171 34.594C41.2858 34.6905 41.5181 34.8676 41.6824 35.1011C41.8466 35.3346 41.9348 35.6131 41.9348 35.8986C41.9348 36.1841 41.8466 36.4626 41.6824 36.6961C41.5181 36.9297 41.2858 37.1067 41.0171 37.2032C40.7484 37.2997 40.4564 37.3108 40.1812 37.2352C39.9059 37.1595 39.6607 37.0006 39.4791 36.7803C39.1152 36.7145 38.7429 36.7098 38.3775 36.7666C38.2249 37.6867 37.852 38.5562 37.2907 39.3011C37.5103 39.613 37.782 39.8847 38.0939 40.1043C38.378 40.0764 38.6638 40.137 38.9122 40.2777C39.1606 40.4184 39.3595 40.6323 39.4818 40.8903C39.604 41.1483 39.6436 41.4377 39.5951 41.7191C39.5467 42.0004 39.4126 42.2599 39.2111 42.4622C39.0096 42.6644 38.7505 42.7995 38.4694 42.849C38.1882 42.8985 37.8986 42.8599 37.6402 42.7386C37.3818 42.6173 37.1671 42.4192 37.0255 42.1713C36.8839 41.9234 36.8223 41.6379 36.8491 41.3537C36.6277 41.0325 36.3515 40.7528 36.033 40.5275C35.2907 41.062 34.4321 41.4128 33.5279 41.551C33.4567 41.9381 33.4548 42.3347 33.5224 42.7223C33.7428 42.9037 33.9019 43.1488 33.9778 43.424C34.0538 43.6992 34.0429 43.9911 33.9467 44.2599C33.8504 44.5287 33.6736 44.7612 33.4402 44.9257C33.2069 45.0901 32.9285 45.1786 32.643 45.1788L32.6448 45.1797ZM29.2648 39.7215C29.3462 39.7215 29.4251 39.749 29.4888 39.7995C30.2422 40.3965 31.15 40.7668 32.106 40.8671C32.1831 40.8752 32.2556 40.9078 32.3128 40.9602C32.37 41.0126 32.4088 41.082 32.4236 41.1581L32.464 41.3665C32.5593 41.8589 32.5621 42.3648 32.4722 42.8582L32.4474 42.9968C32.4387 43.0456 32.42 43.092 32.3925 43.1332C32.365 43.1745 32.3294 43.2096 32.2877 43.2364C32.1669 43.3136 32.0743 43.4278 32.0239 43.562C31.9735 43.6962 31.968 43.8432 32.0081 43.9808C32.0483 44.1184 32.1321 44.2393 32.2468 44.3253C32.3615 44.4113 32.501 44.4578 32.6444 44.4578C32.7877 44.4578 32.9272 44.4113 33.0419 44.3253C33.1566 44.2393 33.2404 44.1184 33.2806 43.9808C33.3207 43.8432 33.3152 43.6962 33.2648 43.562C33.2144 43.4278 33.1218 43.3136 33.001 43.2364C32.9594 43.2098 32.9237 43.175 32.8961 43.1341C32.8684 43.0933 32.8495 43.0471 32.8403 42.9987L32.822 42.9014C32.7295 42.4087 32.7295 41.9032 32.822 41.4106L32.8688 41.1627C32.8832 41.0862 32.9219 41.0164 32.9791 40.9637C33.0363 40.9109 33.109 40.878 33.1864 40.8699C34.1418 40.7683 35.0485 40.3971 35.8008 39.7995C35.8611 39.752 35.9349 39.7248 36.0117 39.722C36.0884 39.7192 36.1641 39.7409 36.2276 39.7839L36.3874 39.8922C36.8029 40.1731 37.1624 40.5289 37.4476 40.9415L37.5275 41.0572C37.5557 41.0979 37.5752 41.1441 37.5849 41.1927C37.5945 41.2413 37.594 41.2914 37.5835 41.3399C37.5527 41.4799 37.5682 41.6261 37.6276 41.7566C37.687 41.8871 37.7871 41.9948 37.9129 42.0636C38.0387 42.1324 38.1834 42.1585 38.3253 42.1381C38.4672 42.1177 38.5986 42.0518 38.6999 41.9503C38.8012 41.8488 38.8668 41.7173 38.887 41.5753C38.9072 41.4334 38.8808 41.2887 38.8118 41.1631C38.7428 41.0374 38.6349 40.9375 38.5043 40.8783C38.3737 40.8192 38.2274 40.804 38.0874 40.835C38.039 40.8454 37.989 40.8458 37.9405 40.8363C37.8919 40.8269 37.8457 40.8077 37.8047 40.7799L37.723 40.7239C37.3094 40.4411 36.9521 40.0837 36.6692 39.6701L36.5453 39.4865C36.5009 39.4216 36.4789 39.3441 36.4825 39.2656C36.4862 39.1871 36.5153 39.1119 36.5655 39.0514C37.1903 38.2993 37.5841 37.3823 37.6991 36.4113C37.7083 36.3352 37.7414 36.2639 37.7937 36.2078C37.846 36.1517 37.9148 36.1136 37.9901 36.0992L38.1187 36.0744C38.6111 35.9791 39.1169 35.9763 39.6104 36.0662L39.749 36.0909C39.7977 36.0997 39.8441 36.1185 39.8853 36.1459C39.9266 36.1734 39.9617 36.2091 39.9886 36.2507C40.0657 36.3715 40.18 36.4641 40.3142 36.5145C40.4484 36.5649 40.5953 36.5704 40.733 36.5302C40.8706 36.4901 40.9915 36.4063 41.0775 36.2916C41.1635 36.1769 41.21 36.0374 41.21 35.894C41.21 35.7507 41.1635 35.6112 41.0775 35.4964C40.9915 35.3817 40.8706 35.298 40.733 35.2578C40.5953 35.2176 40.4484 35.2232 40.3142 35.2736C40.18 35.324 40.0657 35.4166 39.9886 35.5374C39.9619 35.5791 39.9269 35.6149 39.8859 35.6425C39.8448 35.6701 39.7985 35.689 39.7499 35.6981L39.6526 35.7164C39.1599 35.8087 38.6544 35.8087 38.1618 35.7164L38.0113 35.688C37.9336 35.6734 37.8629 35.6339 37.8098 35.5754C37.7568 35.5169 37.7244 35.4426 37.7175 35.3639C37.6322 34.366 37.2527 33.4159 36.627 32.6339C36.5787 32.5734 36.5512 32.499 36.5484 32.4216C36.5456 32.3443 36.5677 32.2681 36.6114 32.2043L36.6701 32.1189C36.953 31.7053 37.3103 31.3479 37.7239 31.0651L37.8056 31.0091C37.8464 30.9811 37.8924 30.9618 37.9408 30.9524C37.9893 30.9429 38.0392 30.9434 38.0874 30.954C38.2274 30.9852 38.3737 30.9702 38.5044 30.9112C38.6351 30.8522 38.7432 30.7524 38.8123 30.6268C38.8815 30.5012 38.9081 30.3566 38.8881 30.2146C38.868 30.0726 38.8025 29.9409 38.7013 29.8393C38.6001 29.7377 38.4686 29.6717 38.3267 29.6512C38.1848 29.6306 38.0401 29.6567 37.9142 29.7254C37.7883 29.7941 37.6881 29.9018 37.6287 30.0323C37.5692 30.1628 37.5537 30.309 37.5844 30.4491C37.5949 30.4976 37.5954 30.5477 37.5858 30.5963C37.5762 30.6449 37.5566 30.6911 37.5284 30.7318L37.4485 30.8475C37.163 31.2598 36.8031 31.6153 36.3874 31.8958L36.3461 31.9243C36.281 31.968 36.2034 31.9895 36.1251 31.9853C36.0468 31.9812 35.972 31.9517 35.9119 31.9013C35.1304 31.2445 34.1684 30.8397 33.1524 30.7401C33.075 30.7324 33.002 30.7 32.9445 30.6476C32.8869 30.5951 32.8478 30.5255 32.833 30.4491L32.8275 30.4207C32.7321 29.9282 32.7293 29.4224 32.8192 28.929L32.844 28.7903C32.8528 28.7416 32.8715 28.6952 32.899 28.654C32.9265 28.6127 32.9621 28.5776 33.0037 28.5507C33.1246 28.4736 33.2172 28.3593 33.2676 28.2251C33.318 28.0909 33.3235 27.944 33.2833 27.8063C33.2431 27.6687 33.1594 27.5478 33.0447 27.4618C32.93 27.3758 32.7905 27.3293 32.6471 27.3293C32.5037 27.3293 32.3642 27.3758 32.2495 27.4618C32.1348 27.5478 32.0511 27.6687 32.0109 27.8063C31.9707 27.944 31.9762 28.0909 32.0266 28.2251C32.0771 28.3593 32.1696 28.4736 32.2905 28.5507C32.3322 28.5774 32.3679 28.6124 32.3955 28.6534C32.4232 28.6945 32.4421 28.7408 32.4511 28.7894L32.4695 28.8867C32.5619 29.379 32.5619 29.8843 32.4695 30.3766L32.4566 30.4454C32.4423 30.5224 32.4035 30.5926 32.3459 30.6455C32.2883 30.6985 32.215 30.7314 32.1372 30.7392C31.1233 30.8396 30.1633 31.244 29.3833 31.8995C29.3232 31.9499 29.2483 31.9794 29.17 31.9835C29.0917 31.9876 29.0141 31.9662 28.9491 31.9224L28.9078 31.8949C28.4902 31.6139 28.1287 31.2575 27.842 30.8438L27.7621 30.7282C27.7339 30.6874 27.7144 30.6413 27.7048 30.5926C27.6951 30.544 27.6956 30.4939 27.7061 30.4454C27.7369 30.3054 27.7214 30.1592 27.662 30.0287C27.6026 29.8982 27.5025 29.7905 27.3768 29.7217C27.251 29.6529 27.1063 29.6268 26.9644 29.6472C26.8225 29.6677 26.691 29.7335 26.5897 29.835C26.4884 29.9365 26.4228 30.0681 26.4026 30.21C26.3824 30.3519 26.4088 30.4966 26.4779 30.6223C26.5469 30.7479 26.6548 30.8478 26.7854 30.907C26.9159 30.9661 27.0622 30.9813 27.2022 30.9503C27.2504 30.9398 27.3003 30.9392 27.3488 30.9487C27.3973 30.9582 27.4433 30.9775 27.484 31.0054L27.5657 31.0614C27.9793 31.3443 28.3367 31.7016 28.6195 32.1152L28.6783 32.2006C28.722 32.2644 28.744 32.3406 28.7412 32.418C28.7384 32.4953 28.7109 32.5697 28.6627 32.6302C28.0367 33.4131 27.6575 34.3642 27.573 35.363C27.5663 35.4414 27.5341 35.5155 27.4814 35.574C27.4287 35.6324 27.3584 35.6721 27.2811 35.687L27.1719 35.7091C26.6795 35.8044 26.1736 35.8072 25.6802 35.7173L25.5416 35.6925C25.4927 35.6836 25.4463 35.6648 25.4051 35.6371C25.3638 35.6095 25.3288 35.5737 25.302 35.5319C25.2248 35.4111 25.1106 35.3185 24.9764 35.2681C24.8421 35.2177 24.6952 35.2121 24.5576 35.2523C24.42 35.2925 24.2991 35.3762 24.2131 35.4909C24.1271 35.6057 24.0806 35.7452 24.0806 35.8885C24.0806 36.0319 24.1271 36.1714 24.2131 36.2861C24.2991 36.4008 24.42 36.4846 24.5576 36.5247C24.6952 36.5649 24.8421 36.5594 24.9764 36.509C25.1106 36.4586 25.2248 36.366 25.302 36.2452C25.3287 36.2035 25.3636 36.1677 25.4047 36.1401C25.4457 36.1125 25.492 36.0935 25.5407 36.0845L25.638 36.0662C26.1303 35.9738 26.6355 35.9738 27.1278 36.0662L27.2958 36.0974C27.3716 36.1115 27.4409 36.1495 27.4936 36.2058C27.5463 36.2621 27.5796 36.3338 27.5886 36.4104C27.704 37.3808 28.0978 38.297 28.7223 39.0486C28.7725 39.1091 28.8016 39.1843 28.8053 39.2628C28.8089 39.3413 28.7869 39.4189 28.7425 39.4838L28.6186 39.6673C28.3357 40.0809 27.9784 40.4383 27.5648 40.7212L27.4831 40.7772C27.4421 40.8049 27.3959 40.8241 27.3473 40.8336C27.2987 40.8431 27.2487 40.8426 27.2003 40.8322C27.0604 40.8012 26.9141 40.8164 26.7835 40.8756C26.6529 40.9347 26.545 41.0346 26.476 41.1603C26.407 41.286 26.3806 41.4306 26.4008 41.5726C26.421 41.7145 26.4866 41.8461 26.5879 41.9476C26.6892 42.049 26.8206 42.1149 26.9625 42.1353C27.1044 42.1558 27.2491 42.1296 27.3749 42.0609C27.5007 41.9921 27.6008 41.8844 27.6602 41.7539C27.7196 41.6234 27.7351 41.4772 27.7043 41.3371C27.6938 41.2887 27.6933 41.2386 27.7029 41.1899C27.7126 41.1413 27.7321 41.0952 27.7603 41.0544L27.8402 40.9387C28.1257 40.5264 28.4856 40.1709 28.9013 39.8904L29.0611 39.783C29.1213 39.7425 29.1923 39.721 29.2648 39.7215Z" fill="black"/>
<path d="M14.5096 5.22702C14.459 5.22704 14.4089 5.2164 14.3627 5.19581C12.0457 4.16585 11.3132 0.599542 11.2838 0.448077C11.2651 0.35398 11.2845 0.256289 11.3378 0.176497C11.391 0.0967041 11.4738 0.0413453 11.5679 0.0225989C11.662 0.00385242 11.7597 0.0232538 11.8395 0.0765351C11.9193 0.129816 11.9747 0.212613 11.9934 0.30671C11.9998 0.339757 12.6837 3.6573 14.6555 4.53487C14.7312 4.56855 14.7931 4.6272 14.8307 4.70103C14.8684 4.77485 14.8796 4.85936 14.8623 4.94042C14.8451 5.02148 14.8006 5.09418 14.7362 5.14635C14.6719 5.19852 14.5915 5.227 14.5087 5.22702H14.5096Z" fill="black"/>
<path d="M16.4989 3.53513C16.4704 3.53505 16.4421 3.53166 16.4144 3.52503C16.2988 3.49749 13.5687 2.82003 13.0418 0.456264C13.0302 0.409461 13.0282 0.360818 13.0357 0.313195C13.0432 0.265572 13.0601 0.21993 13.0855 0.178952C13.1109 0.137974 13.1442 0.102487 13.1836 0.0745779C13.2229 0.0466689 13.2674 0.0269008 13.3144 0.016436C13.3615 0.00597109 13.4102 0.0050206 13.4576 0.0136404C13.505 0.0222602 13.5503 0.0402762 13.5906 0.0666294C13.631 0.0929826 13.6657 0.127141 13.6927 0.167096C13.7197 0.207052 13.7384 0.251998 13.7477 0.299291C14.1737 2.21785 16.5586 2.81544 16.5824 2.82187C16.6684 2.84263 16.7439 2.89421 16.7944 2.96684C16.845 3.03946 16.8671 3.1281 16.8567 3.21598C16.8463 3.30385 16.8041 3.38486 16.7379 3.44368C16.6718 3.50249 16.5865 3.53503 16.498 3.53513H16.4989Z" fill="black"/>
<path d="M11.717 12.22C11.6343 12.2197 11.5543 12.1911 11.4902 12.139C11.426 12.0869 11.3817 12.0144 11.3645 11.9335C11.3087 11.7379 11.2346 11.548 11.1432 11.3662C9.90214 9.44952 10.1794 5.62802 10.6328 2.75569C10.6502 2.66323 10.703 2.58118 10.7799 2.52697C10.8568 2.47276 10.9518 2.45066 11.0448 2.46535C11.1377 2.48005 11.2213 2.53038 11.2777 2.60567C11.3341 2.68096 11.359 2.77528 11.347 2.8686C10.7329 6.76446 10.8798 9.64872 11.7601 10.988L11.7675 11C12.0968 10.3481 12.3624 9.66594 12.5606 8.963C12.8286 8.07808 13.0407 7.3795 14.0862 6.22654C14.7784 5.46279 18.1868 5.25716 20.2715 5.35814C22.023 5.44259 23.0796 5.71155 23.411 6.15769C23.7837 6.6589 24.0251 7.20876 24.2592 7.74118C24.6264 8.57286 24.9247 9.25859 25.6058 9.5964C25.6058 9.57682 25.6083 9.55693 25.6132 9.53673C26.1162 5.99337 26.2934 3.558 24.2619 2.04243C23.4486 1.43565 22.0762 0.737998 18.6531 0.724229C17.8958 0.724229 17.1734 0.719639 16.4987 0.718721H15.2631C15.1672 0.718721 15.0752 0.680615 15.0073 0.612787C14.9395 0.544959 14.9014 0.452965 14.9014 0.357041C14.9014 0.261118 14.9395 0.169123 15.0073 0.101295C15.0752 0.0334668 15.1672 -0.00463867 15.2631 -0.00463867H16.4987C17.1743 -0.00463867 17.8977 -0.00463867 18.655 0.000869142C21.4915 0.0164746 23.3531 0.468115 24.6934 1.4687C27.2205 3.35421 26.7671 6.5515 26.3283 9.64413C26.3192 9.72795 26.3161 9.81232 26.3191 9.89657V10.1288C26.3161 10.1816 26.3016 10.233 26.2765 10.2795C26.2515 10.3261 26.2166 10.3666 26.1742 10.3981C26.1319 10.4297 26.0831 10.4517 26.0314 10.4624C25.9797 10.4731 25.9262 10.4724 25.8748 10.4602C24.519 10.1389 24.0508 9.06948 23.5918 8.03585C23.3743 7.54015 23.1494 7.02609 22.8262 6.5928C22.7243 6.45511 22.0505 6.17237 20.232 6.08425C17.6314 5.95757 14.9712 6.32659 14.6177 6.71673C13.6814 7.74945 13.4997 8.34796 13.2481 9.17689C12.964 10.1782 12.5537 11.1394 12.0272 12.0373C11.996 12.0922 11.9509 12.1379 11.8965 12.17C11.842 12.202 11.7801 12.2193 11.717 12.22Z" fill="black"/>
</g>
<defs>
<clipPath id="clip0_1204_57112">
<rect width="47" height="47" fill="white"/>
</clipPath>
</defs>
</svg>
