<svg width="47" height="47" viewBox="0 0 47 47" fill="none" xmlns="http://www.w3.org/2000/svg">
<path fillRule="evenodd" clipRule="evenodd" d="M10.9376 17.6829C9.47249 20.1627 8.58252 23.2931 8.58252 27.074C30.9752 25.5127 15.3797 25.5127 37.7724 27.074C37.7724 21.417 35.7842 17.2172 32.8463 14.4771C28.8544 11.7449 22.7546 8.69262 14.5053 14.0347C13.2353 14.8571 12.1216 16.1191 10.9376 17.6829Z" fill="#6D80AA"/>
<path fillRule="evenodd" clipRule="evenodd" d="M37.7723 27.074C35.9585 28.8955 35.6436 31.4533 37.4964 33.7849C39.3518 33.8083 41.4545 31.8984 41.4545 30.0248V28.5572C41.4545 27.7401 40.7858 27.074 39.9712 27.074H37.7723Z" fill="#FFBC85"/>
<path fillRule="evenodd" clipRule="evenodd" d="M4.89999 30.0248C4.89999 31.8984 7.0026 33.8083 8.85809 33.7849C10.8852 31.2088 10.6146 28.6873 8.58224 27.074H6.38325C5.56873 27.074 4.8999 27.7401 4.8999 28.5572V30.0248H4.89999Z" fill="#FFBC85"/>
<path fillRule="evenodd" clipRule="evenodd" d="M28.6357 14.4771C31.2953 16.9569 33.1767 20.6337 33.5098 25.5075C34.4232 26.2569 35.6644 26.9256 37.7724 27.074C37.7724 21.417 35.7842 17.2171 32.8463 14.4771H28.6357Z" fill="#49679B"/>
<path fillRule="evenodd" clipRule="evenodd" d="M17.6879 23.2021C13.6101 22.1509 14.4897 26.6604 8.58252 27.0741V31.5367C8.58252 32.2653 8.67881 33.02 8.85837 33.7849C9.97471 38.5182 14.3414 43.6547 19.5225 45.5751C20.8445 46.0669 22.0103 46.3115 23.1787 46.3115C24.3445 46.3115 25.5103 46.0669 26.8323 45.5751C32.0134 43.6547 36.3827 38.5182 37.4964 33.7849C37.6786 33.0199 37.7723 32.2653 37.7723 31.5367V27.0741C31.8651 26.6604 32.7447 22.1509 28.6695 23.2021C25.5156 24.014 24.3497 24.4199 23.1787 24.4199C22.0077 24.42 20.8393 24.014 17.6879 23.2021Z" fill="#FFE5C1"/>
<path fillRule="evenodd" clipRule="evenodd" d="M33.5616 27.0741V31.5367C33.5616 32.2653 33.4653 33.0199 33.2857 33.7849C32.1694 38.5181 27.8027 43.6547 22.6216 45.5751C22.0829 45.7755 21.5702 45.9342 21.0732 46.0539C21.7967 46.2257 22.4863 46.3115 23.1785 46.3115C24.3443 46.3115 25.5102 46.0669 26.8321 45.5751C32.0132 43.6547 36.3825 38.5181 37.4963 33.7849C37.6784 33.0199 37.7721 32.2653 37.7721 31.5367V27.0741C35.6643 26.9257 34.423 26.257 33.5095 25.5076C33.5433 26.015 33.5616 26.5381 33.5616 27.0741Z" fill="#FED1A3"/>
<path fillRule="evenodd" clipRule="evenodd" d="M27.3344 6.07479C25.9891 6.41049 24.9924 7.6257 24.9924 9.07242C24.9924 9.39252 25.0679 9.29622 24.7894 9.42887C24.6359 9.50175 24.4876 9.59016 24.3522 9.68911C23.6964 10.1731 23.2671 10.9511 23.2671 11.8255C23.2671 13.2827 24.4616 14.4771 25.9188 14.4771H26.2259H32.8461H43.3385C44.7983 14.4771 45.9902 13.2827 45.9902 11.8255C45.9902 10.8939 45.4984 10.0326 44.6995 9.5538C44.421 9.38462 44.4757 9.50432 44.4757 9.17386C44.4757 7.09732 42.805 5.41376 40.7362 5.38779C40.6764 5.38779 40.6867 5.40082 40.6633 5.35391C40.1428 4.37554 39.115 3.70937 37.9309 3.70937C37.6056 3.70937 37.2959 3.76142 37.0019 3.85248C36.3773 4.05021 36.6584 4.08152 36.3332 3.40754C35.6045 1.89051 34.051 0.844482 32.2554 0.844482C29.7572 0.844482 27.73 2.86897 27.73 5.36695C27.73 6.08526 27.9538 5.91874 27.3344 6.07479Z" fill="#F8F2F0"/>
<path fillRule="evenodd" clipRule="evenodd" d="M35.836 9.56185C35.836 11.3807 35.4248 13.0695 34.7196 14.4773H43.3384C44.7982 14.4773 45.9901 13.2829 45.9901 11.8257C45.9901 10.8942 45.4983 10.0329 44.6993 9.55405C44.4209 9.38486 44.4755 9.50457 44.4755 9.1741C44.4755 7.09756 42.8048 5.41401 40.7361 5.38803C40.6763 5.38803 40.6866 5.40106 40.6632 5.35416C40.1427 4.37578 39.1149 3.70961 37.9308 3.70961C37.6055 3.70961 37.2958 3.76166 37.0018 3.85273C36.3772 4.05046 36.6583 4.08176 36.3331 3.40779C35.6044 1.89075 34.0509 0.844727 32.2553 0.844727C31.8155 0.844727 31.3887 0.907148 30.9854 1.02428C33.7854 2.08068 35.836 5.5025 35.836 9.56185Z" fill="#EEE1DC"/>
<path fillRule="evenodd" clipRule="evenodd" d="M2.23801 6.34032C2.23801 7.50091 2.76107 7.10278 1.93875 7.77666C1.37145 8.24244 1.00977 8.9502 1.00977 9.7413C1.00977 11.1464 2.14695 12.2836 3.55217 12.2836H9.54779H10.2556C10.2244 12.1509 10.1984 11.9662 10.1984 11.7085C10.1984 9.79335 11.8535 8.35177 13.6906 8.52352C14.1434 8.5652 14.0002 8.67187 14.172 8.25814C14.6404 7.1418 15.6345 6.3013 16.8445 6.04115C16.6806 4.31078 15.1323 3.05133 13.4251 3.21005C12.9801 3.25172 13.1206 3.35573 12.9515 2.9498C12.3921 1.6226 11.0806 0.688477 9.54788 0.688477C8.01772 0.688477 6.70356 1.6226 6.14672 2.94971C5.97497 3.35563 6.11551 3.25154 5.67314 3.20995C3.86704 3.04077 2.23801 4.45894 2.23801 6.34032Z" fill="#F8F2F0"/>
<path fillRule="evenodd" clipRule="evenodd" d="M13.6904 8.52339C11.8532 8.35164 10.1982 9.79322 10.1982 11.7084C10.1982 11.966 10.2242 12.1507 10.2555 12.2835C10.3648 12.7623 10.5469 12.6321 9.89381 13.1682C9.31613 13.6418 8.94922 14.3626 8.94922 15.1666C8.94922 16.3896 9.79761 17.4148 10.9374 17.6829C11.1299 17.7297 11.3277 17.7531 11.5333 17.7531H17.633H23.7327C25.1614 17.7531 26.3194 16.5952 26.3194 15.1666C26.3194 14.9272 26.2855 14.6956 26.2257 14.4771H25.9186C24.4613 14.4771 23.2669 13.2827 23.2669 11.8255C23.2669 10.9512 23.6962 10.1732 24.352 9.68912C23.6989 8.89031 22.6684 8.42187 21.5753 8.52339C21.1252 8.56507 21.2683 8.67174 21.0939 8.25801C20.5266 6.90749 19.1916 5.95776 17.6329 5.95776C17.3623 5.95776 17.0968 5.9864 16.8444 6.04102C15.6343 6.30127 14.6403 7.14176 14.1718 8.25801C14.0002 8.67174 14.1433 8.56507 13.6904 8.52339Z" fill="#F8F2F0"/>
<path fillRule="evenodd" clipRule="evenodd" d="M7.146 1.57845C8.44713 3.19701 9.26164 5.50249 9.26164 8.06298C9.26164 9.59039 8.97275 11.0294 8.46016 12.2836H9.54795H10.2558C10.2246 12.1509 10.1985 11.9662 10.1985 11.7085C10.1985 9.79335 11.8536 8.35177 13.6907 8.52352C14.1436 8.5652 14.0004 8.67187 14.1721 8.25814C14.4818 7.52431 15.0179 6.90762 15.6918 6.49913C16.0431 6.28579 16.4309 6.12964 16.8446 6.04115C16.6807 4.31078 15.1323 3.05133 13.4252 3.21005C12.9801 3.25172 13.1207 3.35573 12.9516 2.9498C12.3922 1.6226 11.0807 0.688477 9.54795 0.688477C8.62934 0.688477 7.79142 1.02418 7.146 1.57845Z" fill="#EEE1DC"/>
<path fillRule="evenodd" clipRule="evenodd" d="M19.7646 10.7327C19.7646 13.5899 18.7497 16.1296 17.1753 17.7533H17.6333H23.733C25.1616 17.7533 26.3196 16.5953 26.3196 15.1668C26.3196 14.9274 26.2858 14.6958 26.2259 14.4772H25.9189C24.4616 14.4772 23.2671 13.2828 23.2671 11.8257C23.2671 10.9514 23.6965 10.1733 24.3522 9.68927C23.6991 8.89045 22.6686 8.42201 21.5756 8.52354C21.1254 8.56521 21.2685 8.67188 21.0942 8.25815C20.6752 7.26151 19.8399 6.48354 18.8042 6.14526C19.4159 7.48265 19.7646 9.05431 19.7646 10.7327Z" fill="#EEE1DC"/>
<path fillRule="evenodd" clipRule="evenodd" d="M9.76641 38.7915C9.48019 39.4966 9.2876 40.1732 9.2876 40.6806C9.2876 43.2828 11.9627 44.1362 13.7167 43.2411C14.5755 42.804 15.213 41.9505 15.213 40.6806C15.213 39.3301 13.8546 36.7879 12.9464 35.656C12.694 35.3411 12.4729 35.1824 12.2516 35.1824H12.2464C12.0278 35.1824 11.8066 35.3411 11.5542 35.656C10.9868 36.3637 10.2452 37.6179 9.76641 38.7915Z" fill="#22A6FE"/>
<path fillRule="evenodd" clipRule="evenodd" d="M11.7728 35.4165C12.6419 36.676 13.1442 38.7863 13.1442 39.9755C13.1442 41.9271 12.0695 43.1423 10.188 42.8352C10.4535 43.072 10.7631 43.2542 11.0962 43.379C11.9341 43.6939 12.9204 43.647 13.7168 43.2411C14.5755 42.804 15.213 41.9505 15.213 40.6806C15.213 39.3301 13.8546 36.7879 12.9465 35.656C12.694 35.3411 12.4729 35.1824 12.2517 35.1824H12.2464C12.0929 35.1824 11.9367 35.2604 11.7728 35.4165Z" fill="#0182FC"/>
<path d="M20.822 40.2011C21.4509 39.5703 22.2873 39.2228 23.1774 39.2228C24.0674 39.2228 24.9039 39.5703 25.5327 40.2011C25.6672 40.336 25.8437 40.4036 26.0203 40.4036C26.1961 40.4036 26.372 40.3367 26.5064 40.2027C26.7757 39.9343 26.7764 39.4984 26.508 39.2291C25.6189 38.3372 24.4362 37.8459 23.1775 37.8459C21.9187 37.8459 20.7359 38.3372 19.8469 39.2291C19.5784 39.4985 19.5791 39.9343 19.8485 40.2027C20.1176 40.4711 20.5536 40.4705 20.822 40.2011Z" fill="black"/>
<path d="M19.1578 32.094C19.4312 31.8297 19.4384 31.3938 19.174 31.1205C18.9099 30.8472 18.4739 30.8398 18.2006 31.1043C17.5138 31.7686 16.3979 31.769 15.7132 31.1049C15.4402 30.8402 15.0044 30.8469 14.7397 31.1198C14.475 31.3928 14.4816 31.8286 14.7546 32.0933C15.361 32.6814 16.1581 32.9755 16.9557 32.9755C17.7528 32.9755 18.5503 32.6816 19.1578 32.094Z" fill="black"/>
<path d="M31.6018 32.094C31.8752 31.8296 31.8824 31.3938 31.6181 31.1205C31.3539 30.8472 30.9179 30.8398 30.6447 31.1043C29.958 31.7684 28.8406 31.7683 28.1538 31.1043C27.8804 30.8398 27.4445 30.8472 27.1803 31.1205C26.9161 31.3938 26.9233 31.8297 27.1967 32.094C27.8039 32.6813 28.6017 32.975 29.3993 32.975C30.197 32.975 30.9946 32.6813 31.6018 32.094Z" fill="black"/>
<path d="M45.1619 9.03107C45.0901 6.77534 43.3204 4.91949 41.0849 4.71726C40.3877 3.6627 39.2097 3.02104 37.9309 3.02104C37.6112 3.02104 37.2899 3.06271 36.971 3.14579C36.9654 3.13385 36.9597 3.12183 36.9538 3.10953C36.092 1.31536 34.2477 0.156055 32.2553 0.156055C29.3804 0.156055 27.0414 2.49366 27.0414 5.36709C27.0414 5.39233 27.0417 5.41684 27.0421 5.44043C25.545 5.86839 24.4755 7.16263 24.3232 8.69491C23.577 8.08776 22.6289 7.77253 21.656 7.82724C20.9264 6.26743 19.3665 5.26932 17.6331 5.26932C17.5538 5.26932 17.475 5.27217 17.3965 5.2763C16.9107 3.59164 15.3091 2.41655 13.5105 2.51349C12.788 0.980482 11.2523 0 9.54788 0C7.84175 0 6.30645 0.981217 5.58731 2.5134C4.56836 2.4585 3.56007 2.81826 2.79852 3.51178C1.99319 4.24524 1.54962 5.24977 1.54962 6.34023C1.54962 6.69979 1.59323 6.95251 1.63995 7.13069C1.59139 7.17108 1.54155 7.21193 1.5018 7.24452C0.751633 7.86057 0.321289 8.77064 0.321289 9.7413C0.321289 11.5227 1.77067 12.972 3.55217 12.972H9.1057C8.56456 13.569 8.2608 14.3458 8.2608 15.1667C8.2608 16.4004 8.94634 17.4767 9.95601 18.035C8.68151 20.4605 7.99119 23.2621 7.90353 26.3855H6.38346C5.18597 26.3855 4.21173 27.3598 4.21173 28.5572V30.0248C4.21173 31.0508 4.71964 32.1408 5.6053 33.0154C6.38989 33.7901 7.37028 34.2965 8.31551 34.4343C8.59971 35.4551 9.0251 36.4992 9.58525 37.541C9.04117 38.6245 8.59916 39.8124 8.59916 40.6805C8.59916 41.7826 9.00096 42.7153 9.76122 43.3776C10.4239 43.955 11.3079 44.273 12.2503 44.273C14.0647 44.273 15.9014 43.0391 15.9014 40.6805C15.9014 39.0547 14.3512 36.3066 13.4833 35.2249C13.2311 34.9107 12.829 34.4931 12.2494 34.4931C12.2489 34.4931 12.2484 34.4931 12.2479 34.4931C11.6684 34.4938 11.2678 34.9112 11.0167 35.2255C10.8347 35.4524 10.6226 35.7533 10.4011 36.101C10.0119 35.2677 9.72092 34.4426 9.53136 33.6417C9.53017 33.6361 9.52861 33.6306 9.52723 33.625C9.35805 32.905 9.27084 32.2048 9.27084 31.5367V27.6972C12.0907 27.3355 13.3979 26.0037 14.3696 25.0127C15.3563 24.0064 15.8997 23.4521 17.516 23.8688C18.2443 24.0565 18.8626 24.2213 19.4082 24.3668C21.2596 24.8605 22.189 25.1084 23.1785 25.1084C24.1664 25.1084 25.0924 24.8615 26.9372 24.3697C27.4857 24.2235 28.1074 24.0578 28.8412 23.8687C30.4562 23.4522 30.9988 24.0064 31.9847 25.0122C32.9563 26.0033 34.2632 27.3354 37.0836 27.6972V31.5367C37.0836 32.2015 36.9984 32.8871 36.8389 33.5809C36.83 33.6096 36.8234 33.6393 36.8183 33.6695C35.7282 38.2356 31.4164 43.1425 26.592 44.9299C25.3208 45.4028 24.2361 45.623 23.1784 45.623C22.119 45.623 21.0335 45.4028 19.7609 44.9293C18.9835 44.642 18.1996 44.2667 17.4308 43.8136C17.1037 43.6207 16.6812 43.7296 16.4881 44.0573C16.295 44.3848 16.4042 44.8069 16.7317 44.9999C17.5709 45.4944 18.4294 45.9052 19.2821 46.2204C20.7118 46.7522 21.9499 47 23.1783 47C24.4051 47 25.6424 46.7522 27.0711 46.2207C30.071 45.1094 32.924 42.9366 35.1048 40.1028C36.5005 38.289 37.5065 36.3248 38.0352 34.4348C38.9816 34.2978 39.9636 33.7911 40.7491 33.0154C41.6347 32.1409 42.1427 31.0508 42.1427 30.0248V28.5572C42.1427 27.3598 41.1684 26.3855 39.9709 26.3855H38.4503C38.3 21.0028 36.4011 17.4293 34.4581 15.1656H37.6887C38.069 15.1656 38.3772 14.8573 38.3772 14.4771C38.3772 14.0969 38.069 13.7886 37.6887 13.7886H25.9188C24.8363 13.7886 23.9556 12.908 23.9556 11.8255C23.9556 11.0735 24.3989 10.3769 25.0857 10.0505C25.122 10.0331 25.1508 10.0208 25.1734 10.0111C25.5474 9.8499 25.7149 9.57827 25.6855 9.1807C25.6837 9.15545 25.6809 9.12103 25.6809 9.07247C25.6809 7.96824 26.4294 7.01025 27.5028 6.74239C27.5816 6.72256 27.6455 6.70842 27.6969 6.69704C27.9074 6.6505 28.5482 6.50867 28.4415 5.69664C28.4313 5.61852 28.4185 5.52131 28.4185 5.36709C28.4185 3.25301 30.1397 1.53301 32.2554 1.53301C33.7217 1.53301 35.0786 2.38589 35.7131 3.70685C35.7845 3.85492 35.8169 3.95443 35.8428 4.03438C35.8891 4.17703 35.9752 4.44251 36.2669 4.587C36.5626 4.73341 36.824 4.64171 37.0149 4.5747C37.066 4.5568 37.1296 4.5344 37.2056 4.51026C37.4461 4.43572 37.6901 4.39799 37.9308 4.39799C38.8187 4.39799 39.6304 4.88497 40.0513 5.66965C40.1865 5.94045 40.4413 6.09192 40.7417 6.07659C42.4224 6.10541 43.7871 7.49191 43.7871 9.174C43.7871 9.21999 43.7857 9.25515 43.7847 9.28268C43.7752 9.54228 43.8188 9.86844 44.2455 10.0888C44.2686 10.1008 44.3 10.1167 44.3456 10.1445C44.9354 10.498 45.3018 11.1421 45.3018 11.8255C45.3018 12.908 44.4211 13.7886 43.3385 13.7886H40.869C40.4887 13.7886 40.1805 14.0969 40.1805 14.4771C40.1805 14.8573 40.4887 15.1656 40.869 15.1656H43.3385C45.1802 15.1656 46.6787 13.6673 46.6787 11.8255C46.6787 10.7022 46.0993 9.64216 45.1619 9.03107ZM12.0912 36.0867C12.0916 36.0863 12.0919 36.0859 12.0923 36.0854C12.1605 36 12.2128 35.9456 12.2498 35.9114C12.2873 35.9456 12.3403 36.0004 12.4095 36.0867C13.2612 37.1482 14.5246 39.5449 14.5246 40.6805C14.5246 42.211 13.3823 42.896 12.2504 42.896C11.1184 42.896 9.97621 42.211 9.97621 40.6805C9.97612 39.5449 11.2394 37.1482 12.0912 36.0867ZM3.55217 11.595C2.52983 11.595 1.69824 10.7635 1.69824 9.7413C1.69824 9.18446 1.94508 8.66232 2.37515 8.30918C2.88692 7.88976 3.25677 7.58664 3.01204 6.90505C2.97394 6.79912 2.92658 6.66721 2.92658 6.34041C2.92658 5.64229 3.21041 4.99935 3.72567 4.52999C4.23872 4.06284 4.9249 3.8316 5.60851 3.89549C5.68048 3.90229 5.72978 3.91119 5.7732 3.91908C6.23879 4.00335 6.55834 3.81572 6.72476 3.36188C6.73798 3.32608 6.75496 3.27917 6.78159 3.21629C7.25039 2.09884 8.33626 1.37695 9.54788 1.37695C10.7589 1.37695 11.8459 2.0993 12.3161 3.21463C12.3414 3.2754 12.3582 3.32231 12.3711 3.35802C12.5352 3.81425 12.8559 4.00326 13.3229 3.91908C13.3669 3.91119 13.4167 3.90219 13.4891 3.89549C14.6444 3.78846 15.6913 4.50567 16.0439 5.56234C14.9873 5.96625 14.1074 6.76626 13.6104 7.82734C12.5764 7.77024 11.5497 8.13431 10.7761 8.83885C9.98768 9.55707 9.54256 10.5323 9.51291 11.5951H3.55217V11.595ZM6.57284 32.0355C5.94743 31.4179 5.58869 30.6851 5.58869 30.0248V28.5572C5.58869 28.119 5.94522 27.7625 6.38346 27.7625H7.89389V31.5366C7.89389 31.9952 7.93024 32.4656 7.999 32.9442C7.50091 32.7701 6.99694 32.4544 6.57284 32.0355ZM40.766 28.5572V30.0248C40.766 30.6851 40.4073 31.418 39.7818 32.0355C39.357 32.4551 38.8528 32.7718 38.3538 32.9457C38.4241 32.4656 38.4608 31.9944 38.4608 31.5366V27.7625H39.9712C40.4094 27.7625 40.766 28.119 40.766 28.5572ZM27.0081 15.1667C27.0081 15.1663 27.0081 15.1659 27.0081 15.1656H32.5695C35.369 17.8809 36.9168 21.7141 37.071 26.3062C34.8585 25.9764 33.8596 24.9575 32.9682 24.0481C31.9427 23.0019 30.8827 21.92 28.4978 22.5352C27.7585 22.7255 27.1339 22.892 26.5827 23.039C24.8539 23.4999 23.9862 23.7313 23.1787 23.7313C22.3696 23.7313 21.4985 23.4991 19.7631 23.0362C19.2148 22.89 18.5935 22.7244 17.8598 22.5353C15.4734 21.9202 14.4127 23.0022 13.3866 24.0486C12.4951 24.9577 11.4959 25.9765 9.28369 26.3062C9.38265 23.3376 10.0611 20.6947 11.3037 18.4326C11.3798 18.438 11.4563 18.4416 11.5336 18.4416H23.7331C25.5388 18.4416 27.0081 16.9725 27.0081 15.1667ZM25.6306 15.1524C25.6306 15.1571 25.6311 15.1619 25.6311 15.1667C25.6311 16.2133 24.7796 17.0647 23.7328 17.0647H11.5335C10.4882 17.0647 9.63785 16.2133 9.63785 15.1667C9.63785 14.5958 9.89029 14.0615 10.3314 13.6999C10.8472 13.2758 11.2199 12.9693 10.9742 12.2852C10.96 12.2455 10.9446 12.2021 10.9306 12.147C10.9298 12.143 10.9287 12.139 10.9278 12.1351C10.905 12.0405 10.8869 11.9117 10.8869 11.7085C10.8869 10.994 11.1769 10.3363 11.7035 9.85678C12.227 9.3799 12.9273 9.14343 13.6278 9.20906C13.7024 9.21595 13.7532 9.22504 13.798 9.23311C14.2673 9.31711 14.5879 9.12709 14.752 8.66893C14.7652 8.63239 14.7822 8.58438 14.807 8.52472C15.2863 7.38368 16.3957 6.64637 17.6333 6.64637C18.8708 6.64637 19.9802 7.38368 20.4599 8.52554C20.4861 8.58797 20.5036 8.63607 20.517 8.67269C20.6833 9.12856 21.0044 9.31711 21.4706 9.23302C21.515 9.22504 21.5653 9.21595 21.6394 9.20915C22.2601 9.1516 22.8701 9.32711 23.361 9.68925C22.8672 10.2809 22.5788 11.0344 22.5788 11.8257C22.5786 13.5701 23.9234 15.0057 25.6306 15.1524Z" fill="black"/>
<path d="M30.1335 7.38284C28.825 7.58994 28.3283 8.34882 28.142 8.94908C28.0293 9.31223 28.2322 9.69796 28.5954 9.81069C28.6633 9.8318 28.7321 9.84181 28.7997 9.84181C29.0934 9.84181 29.3654 9.65243 29.4571 9.3573C29.5334 9.11119 29.6991 8.84572 30.3489 8.74291C30.7244 8.68351 30.9807 8.33083 30.9212 7.9552C30.8617 7.57966 30.5097 7.32336 30.1335 7.38284Z" fill="black"/>
<path d="M14.8169 10.3154C13.8945 10.461 13.1573 11.0368 12.8929 11.8182C12.7711 12.1784 12.9643 12.5692 13.3244 12.691C13.3976 12.7158 13.472 12.7274 13.5451 12.7274C13.8322 12.7274 14.1002 12.5464 14.1973 12.2595C14.297 11.9647 14.6167 11.741 15.0317 11.6755C15.4072 11.6162 15.6637 11.2637 15.6043 10.888C15.5451 10.5125 15.1929 10.2562 14.8169 10.3154Z" fill="black"/>
<path d="M6.01475 5.06622C4.83884 5.57835 4.55684 6.41269 4.52719 7.02241C4.50883 7.40217 4.80175 7.72502 5.18151 7.74338C5.1929 7.74393 5.20419 7.74421 5.21539 7.74421C5.58037 7.74421 5.88468 7.45753 5.90249 7.08905C5.91405 6.85056 6.00172 6.57371 6.56443 6.32861C6.91308 6.17678 7.07262 5.77113 6.92079 5.42248C6.76914 5.07402 6.36331 4.91439 6.01475 5.06622Z" fill="black"/>
</svg>
