<svg width="46" height="46" viewBox="0 0 46 46" fill="none" xmlns="http://www.w3.org/2000/svg">
<g clipPath="url(#clip0_1204_57459)">
<path d="M14.1449 5.71533H12.7046C12.3068 5.71533 11.9844 6.03778 11.9844 6.43552V15.0779H14.8652V6.43552C14.8651 6.03778 14.5428 5.71533 14.1449 5.71533Z" fill="#DB4655"/>
<path d="M14.8651 10.144V6.43552C14.8651 6.03778 14.5427 5.71533 14.1449 5.71533H12.7046C12.3068 5.71533 11.9844 6.03778 11.9844 6.43552V10.9448C12.887 10.549 13.8547 10.2796 14.8651 10.144Z" fill="#E15F78"/>
<path d="M36.471 23.7203C36.471 22.1459 34.7064 21.0305 33.971 19.7592C33.2121 18.4476 33.1026 16.37 31.7911 15.6111C31.1554 15.2433 29.8542 15.0779 28.7515 15.0779H19.9065V12.197H16.3055C11.5325 12.197 7.66309 16.0663 7.66309 20.8395V25.1607C7.66309 26.3835 7.77189 27.581 7.98041 28.7438C8.1486 29.6817 8.57653 30.5589 9.19366 31.285C9.36005 31.4809 9.49958 31.6724 9.55079 31.8132C9.95518 32.9239 9.15422 34.596 9.73839 35.6057C10.328 36.6249 12.1792 36.7637 12.9321 37.66C13.6871 38.5589 13.5045 40.4055 14.4033 41.1605C15.2996 41.9133 17.1093 41.3764 18.1053 42.0043C18.4992 42.2527 18.9972 42.7702 19.3441 43.1588C19.6368 43.4866 19.9938 43.7529 20.4024 43.9148C22.7007 44.8257 25.2062 45.3263 27.8287 45.3263C32.2043 45.3263 35.7514 41.7788 35.7508 37.4032L35.7508 36.7677C35.7507 35.929 35.8724 35.0852 36.1993 34.3128C36.3598 33.9333 36.471 33.4756 36.471 32.8418C36.471 30.5606 35.0307 30.5606 35.0307 28.2795C35.0307 25.9999 36.471 25.9999 36.471 23.7203Z" fill="#E15F78"/>
<path d="M26.4983 43.1176C24.676 42.9853 22.8929 42.5778 21.1984 41.9062C21.1235 41.8765 21.0352 41.8086 20.956 41.7198C20.3066 40.9925 19.751 40.4876 19.2576 40.1765C18.3106 39.5795 17.2736 39.523 16.4405 39.4776C16.3132 39.4707 16.0447 39.4561 15.8408 39.4353C15.7783 39.2267 15.7099 38.9399 15.6816 38.8214C15.4961 38.0442 15.2658 37.0789 14.5864 36.2702C13.9089 35.4636 12.9996 35.0708 12.269 34.7552C12.1546 34.7057 11.8766 34.5857 11.6798 34.4875C11.6919 34.2705 11.7259 33.9741 11.7397 33.8523C11.8306 33.0577 11.9435 32.0696 11.5811 31.074C11.4417 30.6914 11.2133 30.325 10.84 29.8858C10.4589 29.4374 10.2055 28.9106 10.1071 28.3623C9.91906 27.3136 9.82365 26.2364 9.82365 25.1606V20.8394C9.82365 17.7716 12.0043 15.1006 15.0089 14.4882L15.5852 14.3707V13.7825V12.3267V12.2334C11.1499 12.6002 7.66309 16.3095 7.66309 20.8394V25.1607C7.66309 26.3835 7.77189 27.581 7.98041 28.7438C8.14869 29.6817 8.57644 30.5589 9.19366 31.285C9.35997 31.4809 9.49958 31.6724 9.55079 31.8132C9.95518 32.9239 9.15431 34.596 9.73839 35.6057C10.3281 36.6249 12.1793 36.7637 12.9321 37.66C13.6872 38.5589 13.5045 40.4055 14.4033 41.1605C15.2995 41.9133 17.1093 41.3764 18.1053 42.0043C18.4993 42.2527 18.9972 42.7702 19.3441 43.1588C19.6368 43.4866 19.9938 43.7529 20.4024 43.9148C22.7007 44.8257 25.2062 45.3263 27.8287 45.3263C28.0706 45.3263 28.309 45.3113 28.5454 45.2901C28.5263 44.1514 27.6359 43.2002 26.4983 43.1176Z" fill="#DB4655"/>
<path d="M33.5903 17.9587L31.0735 12.237C30.1931 9.70126 27.7798 7.8759 24.9479 7.8759C21.3737 7.8759 18.4661 10.7838 18.4661 14.3577V15.7981C18.4661 16.9913 17.4991 17.9586 16.3056 17.9586C15.1121 17.9586 14.145 16.9912 14.145 15.7981V14.3577C14.145 8.40095 18.9909 3.55469 24.948 3.55469C30.9051 3.55469 35.751 8.40095 35.751 14.3577V15.7981C35.7508 16.9913 34.7837 17.9587 33.5903 17.9587Z" fill="#DB4655"/>
<path d="M33.5905 14.3578C33.5905 9.59236 29.7136 5.71533 24.9481 5.71533C20.1826 5.71533 16.3057 9.59227 16.3057 14.3578V17.8265V17.9587C17.4992 17.9587 18.4662 16.9913 18.4662 15.7981V14.3578C18.4662 10.7839 21.3738 7.87599 24.948 7.87599C28.5223 7.87599 31.4298 10.7839 31.4298 14.3578V15.7981L33.5903 17.8265V14.3578H33.5905Z" fill="#BD4150"/>
<path d="M18.4663 14.3578V17.2386H22.7875V14.3578C22.7875 13.1644 23.7549 12.1972 24.9481 12.1972H30.7097C31.1074 12.1972 31.4299 11.8747 31.4299 11.477V8.59616C31.4299 8.19843 31.1074 7.87598 30.7097 7.87598H24.9481C21.3684 7.87598 18.4663 10.778 18.4663 14.3578Z" fill="#E15F78"/>
<path d="M18.4663 14.3578V16.5183C19.6576 16.5183 20.6269 15.5491 20.6269 14.3578C20.6269 11.975 22.5654 10.0365 24.9481 10.0365H27.1086C28.3 10.0365 29.2692 9.0673 29.2692 7.87598H24.948C21.3683 7.87598 18.4663 10.778 18.4663 14.3578Z" fill="#DB4655"/>
<path d="M37.1447 23.7202C37.1447 22.4373 36.271 21.4665 35.5003 20.6099C35.1277 20.1959 34.7758 19.8048 34.554 19.4215C34.3187 19.0149 34.1464 18.4982 33.964 17.9512C33.6035 16.8701 33.1949 15.6448 32.1283 15.0276C31.1279 14.4489 29.2905 14.4038 28.7513 14.4038H25.668C25.2958 14.4038 24.9941 14.7055 24.9941 15.0777C24.9941 15.4499 25.2958 15.7515 25.668 15.7515H27.1547V21.9195C27.1547 23.2254 27.5862 24.52 28.3697 25.5647C28.9795 26.3778 29.3152 27.3851 29.3152 28.4013V31.3631L25.1914 35.4869C24.9283 35.7501 24.9283 36.1767 25.1914 36.4398C25.3229 36.5713 25.4955 36.6371 25.6679 36.6371C25.8403 36.6371 26.0128 36.5713 26.1443 36.4398L29.3152 33.2689V39.5643C29.3152 39.9364 29.6168 40.2381 29.989 40.2381C30.3611 40.2381 30.6628 39.9364 30.6628 39.5643V28.4012C30.6628 27.0953 30.2313 25.8008 29.4478 24.756C28.838 23.943 28.5023 22.9357 28.5023 21.9194V20.3056L30.2327 22.0361C30.3643 22.1676 30.5368 22.2335 30.7092 22.2335C30.8816 22.2335 31.0541 22.1677 31.1856 22.0361C31.4488 21.7729 31.4488 21.3463 31.1856 21.0832L28.5022 18.3997V15.7516H28.7511C29.8917 15.7516 31.0028 15.9336 31.4533 16.1942C32.0779 16.5556 32.373 17.4406 32.6855 18.3777C32.8811 18.9645 33.0835 19.5713 33.3874 20.0965C33.6797 20.6016 34.0958 21.0642 34.4984 21.5115C35.1662 22.2535 35.7969 22.9544 35.7969 23.7202C35.7969 24.6649 35.5251 25.0952 35.181 25.6399C34.7945 26.2514 34.3566 26.9445 34.3566 28.2794C34.3566 29.6149 34.7945 30.3084 35.1808 30.9204C35.5251 31.4655 35.7969 31.8961 35.7969 32.8418C35.7969 33.314 35.7276 33.698 35.5784 34.0502C35.2454 34.8371 35.0766 35.7514 35.0767 36.7677V37.4032C35.0768 39.3395 34.323 41.1598 32.954 42.5291C31.585 43.8983 29.7648 44.6523 27.8285 44.6523C25.3494 44.6523 22.9343 44.1934 20.6505 43.2883C20.3552 43.1714 20.0848 42.9767 19.8466 42.71C19.2987 42.0963 18.8337 41.6671 18.4645 41.4343C17.844 41.0431 17.0892 41.002 16.3592 40.9623C15.7576 40.9295 15.1355 40.8956 14.8366 40.6446C14.5256 40.3834 14.3778 39.764 14.2349 39.1651C14.0707 38.4773 13.9011 37.7661 13.4479 37.2267C12.9965 36.6891 12.3267 36.3998 11.6791 36.1202C11.1124 35.8753 10.5263 35.6222 10.3217 35.2684C10.121 34.9217 10.193 34.2921 10.2626 33.6831C10.3432 32.9782 10.4266 32.2493 10.1839 31.5828C10.1088 31.3765 9.95725 31.1433 9.70703 30.8489C9.15593 30.2004 8.7882 29.4315 8.64364 28.6251C8.47932 27.7091 8.38157 26.7733 8.34958 25.8347H11.9842C11.9998 25.8347 12.015 25.8336 12.0306 25.8335V32.3629C12.0306 32.735 12.3323 33.0367 12.7044 33.0367C13.0765 33.0367 13.3782 32.735 13.3782 32.3629V29.6684L15.1088 31.3989C15.2403 31.5305 15.4128 31.5962 15.5852 31.5962C15.7576 31.5962 15.9301 31.5305 16.0617 31.3989C16.3248 31.1357 16.3248 30.709 16.0617 30.446L13.3782 27.7625V25.6352C15.456 25.0302 16.9793 23.1101 16.9793 20.8396C16.9793 20.4675 16.6776 20.1658 16.3054 20.1658C15.9333 20.1658 15.6316 20.4675 15.6316 20.8396C15.6316 22.8508 13.9954 24.487 11.9842 24.487H8.33673V20.8396C8.33673 17.4839 10.428 14.5251 13.5134 13.3749C13.4858 13.699 13.4709 14.0267 13.4709 14.3578V15.7982C13.4709 17.3611 14.7424 18.6326 16.3053 18.6326C17.8683 18.6326 19.1397 17.361 19.1397 15.7982V14.3578C19.1397 11.1553 21.7452 8.5498 24.9477 8.5498H30.7093C30.7349 8.5498 30.7556 8.57055 30.7556 8.59625V11.477C30.7556 11.5025 30.7349 11.5234 30.7093 11.5234H24.9477C23.3847 11.5234 22.1133 12.7949 22.1133 14.3578V16.5184C22.1133 16.8906 22.415 17.1922 22.7871 17.1922C23.1592 17.1922 23.4609 16.8906 23.4609 16.5184V14.3578C23.4609 13.538 24.1278 12.871 24.9477 12.871H30.7093C31.478 12.871 32.1033 12.2457 32.1033 11.477V8.59607C32.1033 7.82737 31.478 7.20197 30.7093 7.20197H24.9477C21.002 7.20197 17.7921 10.412 17.7921 14.3577V15.798C17.7921 16.6179 17.1252 17.2848 16.3053 17.2848C15.4855 17.2848 14.8185 16.6179 14.8185 15.798V14.3577C14.8185 8.77243 19.3624 4.2285 24.9477 4.2285C30.5329 4.2285 35.0768 8.77243 35.0768 14.3577V15.798C35.0768 16.1702 35.3785 16.4719 35.7507 16.4719C36.1228 16.4719 36.4245 16.1702 36.4245 15.798V14.3577C36.4245 9.33809 33.1851 5.06135 28.6872 3.50696L29.2002 1.56625C29.2953 1.20642 29.0807 0.837703 28.7209 0.742648C28.3609 0.647414 27.9924 0.862231 27.8973 1.22188L27.3895 3.14318C26.8149 3.01812 26.2244 2.93627 25.6216 2.90114V0.673828C25.6216 0.301695 25.3199 0 24.9478 0C24.5756 0 24.2739 0.301695 24.2739 0.673828V2.90114C23.6711 2.93627 23.0806 3.01812 22.506 3.14318L21.9982 1.22188C21.9031 0.862141 21.5342 0.647414 21.1746 0.742648C20.8149 0.837703 20.6002 1.20651 20.6954 1.56625L21.2083 3.50696C18.8961 4.30612 16.9167 5.82457 15.5389 7.79377V6.43542C15.5389 5.66671 14.9136 5.0414 14.1449 5.0414H12.7045C11.9358 5.0414 11.3105 5.66671 11.3105 6.43542V12.9729C8.67473 14.6466 6.98926 17.583 6.98926 20.8394V25.1607C6.98926 26.4037 7.09959 27.6493 7.31719 28.8628C7.50379 29.9033 7.97511 30.8918 8.68012 31.7215C8.87598 31.9519 8.91739 32.0438 8.91766 32.0438C9.05162 32.4118 8.98657 32.9802 8.92368 33.53C8.83357 34.318 8.73142 35.211 9.15512 35.9433C9.58296 36.6828 10.4127 37.0411 11.1447 37.3573C11.6486 37.5749 12.1696 37.8 12.4161 38.0935C12.6642 38.389 12.7963 38.9426 12.9241 39.478C13.1088 40.252 13.318 41.1292 13.9698 41.6766C14.6131 42.2169 15.5019 42.2653 16.2859 42.3081C16.8441 42.3384 17.4213 42.3699 17.7458 42.5744C17.9975 42.7331 18.3968 43.1097 18.8414 43.6076C19.2204 44.0322 19.6621 44.3463 20.1541 44.5413C22.5965 45.5092 25.1786 46 27.8285 46C30.1247 46 32.2835 45.1057 33.9072 43.4819C35.5308 41.8582 36.4248 39.6993 36.4245 37.4031V36.7675C36.4244 35.9326 36.5574 35.1951 36.8196 34.5754C37.0414 34.0513 37.1447 33.5006 37.1447 32.8418C37.1447 31.5063 36.7068 30.8127 36.3205 30.2009C35.9762 29.6557 35.7043 29.2251 35.7043 28.2795C35.7043 27.3347 35.9762 26.9045 36.3203 26.3599C36.7067 25.7481 37.1447 25.0551 37.1447 23.7202ZM12.6579 6.43542C12.6579 6.4099 12.6787 6.38906 12.7043 6.38906H14.1447C14.1703 6.38906 14.191 6.4099 14.191 6.43542V10.3561C14.0067 10.85 13.8557 11.3598 13.7404 11.883C13.3684 11.9892 13.0074 12.1171 12.6579 12.2654V6.43542Z" fill="black"/>
<path d="M38.7558 27.8985C39.1996 27.1963 40.0258 25.8891 40.0258 23.7202C40.0258 22.3665 39.5553 21.0852 38.5873 19.8034C38.3631 19.5065 37.9405 19.4475 37.6435 19.6718C37.3465 19.896 37.2876 20.3186 37.5118 20.6156C38.3076 21.6693 38.6782 22.6558 38.6782 23.7202C38.6782 25.4989 38.0394 26.5097 37.6165 27.1788C37.3039 27.6739 37.2378 27.7955 37.2378 28.2795C37.2378 28.765 37.3041 28.8869 37.6177 29.383C38.04 30.0521 38.6783 31.0633 38.6783 32.8416C38.6783 33.7011 38.5322 34.4637 38.2315 35.1736C38.0501 35.6023 37.9581 36.1386 37.9581 36.7675V37.403C37.9582 38.4382 37.8043 39.4574 37.5004 40.4322C37.3896 40.7876 37.5879 41.1653 37.9432 41.2761C38.0099 41.2969 38.0775 41.3068 38.1439 41.3068C38.4309 41.3068 38.697 41.1218 38.787 40.8333C39.1313 39.7285 39.3058 38.5744 39.3057 37.403V36.7676C39.3057 36.3264 39.3634 35.9569 39.4725 35.699C39.8449 34.8199 40.0259 33.8852 40.0259 32.8416C40.0259 30.6736 39.2006 29.3661 38.7567 28.6626C38.6836 28.5469 38.614 28.4369 38.5863 28.3849C38.5853 28.3304 38.5853 28.23 38.5863 28.1753C38.6139 28.1233 38.6832 28.0136 38.7558 27.8985Z" fill="black"/>
<path d="M15.0249 43.7281C14.1922 43.5917 13.5245 43.3046 12.9838 42.8504C12.4355 42.3898 11.823 41.6732 11.4365 39.8503C11.332 39.3577 11.0131 38.9724 10.5385 38.7654L10.5155 38.7553C9.66636 38.3852 8.50343 37.8782 7.82798 36.71C7.29548 35.7903 7.28542 34.815 7.32423 34.1613C7.3519 33.6951 7.31947 33.2439 7.22783 32.8204C7.14373 32.4315 6.98677 32.0469 6.74797 31.6443C6.41366 31.0809 6.15419 30.4801 5.97657 29.8589C5.87424 29.5011 5.50121 29.294 5.14354 29.3962C4.78569 29.4986 4.5786 29.8716 4.68093 30.2293C4.89027 30.9616 5.19583 31.669 5.58899 32.3319C5.7525 32.6075 5.8578 32.8605 5.91072 33.1052C5.97639 33.409 5.99939 33.7375 5.979 34.0813C5.92994 34.9086 5.94719 36.1512 6.66163 37.3848C7.55872 38.9363 9.0725 39.5963 9.97695 39.9905L9.99986 40.0005C10.0845 40.0374 10.1061 40.0729 10.1181 40.1296C10.2781 40.8844 10.6529 42.652 12.117 43.8821C12.8487 44.4965 13.7286 44.8811 14.8071 45.0578C14.8441 45.0638 14.8806 45.0668 14.9169 45.0668C15.2411 45.0668 15.527 44.8321 15.581 44.5017C15.6411 44.1347 15.3922 43.7883 15.0249 43.7281Z" fill="black"/>
<path d="M41.8724 28.3108C41.8632 28.2922 41.8626 28.2695 41.8709 28.2528C42.4243 27.1391 42.7596 25.93 42.8674 24.659C42.8988 24.2882 42.6237 23.9621 42.2529 23.9307C41.8814 23.8993 41.556 24.1743 41.5246 24.5451C41.4299 25.6619 41.1484 26.6784 40.664 27.6531C40.469 28.0456 40.4694 28.5155 40.6652 28.9099C41.2666 30.1222 41.5591 31.4083 41.5591 32.8416C41.5591 33.4516 41.5084 34.0184 41.4042 34.5744C41.3356 34.9401 41.5765 35.2922 41.9423 35.3608C41.9843 35.3686 42.0261 35.3724 42.0672 35.3724C42.3851 35.3724 42.6681 35.1465 42.7287 34.8226C42.8468 34.1927 42.9067 33.5262 42.9067 32.8415C42.9067 31.2185 42.5588 29.6941 41.8724 28.3108Z" fill="black"/>
<path d="M8.85612 41.4165C8.80338 41.2366 8.67805 41.0869 8.51031 41.0032C7.0658 40.2826 6.02685 39.3501 5.33406 38.1521C4.7888 37.2105 4.49654 36.1796 4.44066 35.0006C4.42305 34.6289 4.10832 34.3411 3.73565 34.3595C3.36397 34.3771 3.07683 34.6927 3.09453 35.0645C3.16092 36.4639 3.51194 37.6947 4.16771 38.8271C4.95366 40.1861 6.09423 41.251 7.64916 42.0756C7.83648 42.6554 8.06855 43.2029 8.34059 43.7066C8.46242 43.9323 8.6944 44.0604 8.9341 44.0604C9.04218 44.0604 9.15188 44.0344 9.25368 43.9794C9.58116 43.8026 9.70325 43.3938 9.52644 43.0663C9.25574 42.5651 9.03023 42.01 8.85612 41.4165Z" fill="black"/>
</g>
<defs>
<clipPath id="clip0_1204_57459">
<rect width="46" height="46" fill="white"/>
</clipPath>
</defs>
</svg>
