<svg width="47" height="47" viewBox="0 0 47 47" fill="none" xmlns="http://www.w3.org/2000/svg">
<g clipPath="url(#clip0_1204_57322)">
<path d="M28.1348 22.9488L24.5099 19.3239C24.2577 19.0717 24.1161 18.7297 24.1161 18.3731V8.40997C24.1161 7.60637 23.4987 6.91265 22.6959 6.87722C21.8437 6.83967 21.141 7.51944 21.141 8.36325V18.373C21.141 18.7297 20.9994 19.0716 20.7472 19.3238L17.1223 22.9487C16.5413 23.5296 16.5413 24.4715 17.1223 25.0524C17.4127 25.3428 17.7934 25.488 18.1741 25.488C18.5548 25.488 18.9355 25.3428 19.2259 25.0524L21.6778 22.6005C22.2028 22.0754 23.0542 22.0754 23.5794 22.6005L26.0311 25.0524C26.3216 25.3428 26.7022 25.488 27.0829 25.488C27.4636 25.488 27.8443 25.3428 28.1348 25.0524C28.7157 24.4716 28.7157 23.5297 28.1348 22.9488Z" fill="#FCF2D0"/>
<path d="M20.1061 19.9651L17.1223 22.9489C16.5413 23.5298 16.5413 24.4717 17.1223 25.0526C17.4127 25.3431 17.7934 25.4882 18.1741 25.4882C18.5548 25.4882 18.9354 25.343 19.2259 25.0526L20.7083 23.5701C20.5391 22.3632 20.3374 21.1611 20.1061 19.9651Z" fill="#F6E3A3"/>
<path d="M15.6989 38.9448L9.27619 40.0432C5.6833 40.6577 2.45585 37.7629 2.67727 34.1246C2.9545 29.5681 4.14659 25.114 6.18231 21.0282L8.62396 16.1276C9.51955 14.33 11.3551 13.1938 13.3634 13.1938C15.8368 13.1938 17.9808 14.9062 18.5276 17.3184L18.6808 17.9942C19.8245 23.0394 20.4016 28.1965 20.4016 33.3697C20.4015 36.1256 18.4154 38.4802 15.6989 38.9448Z" fill="#EC9EB0"/>
<path d="M25.1511 19.9651C24.9198 21.1611 24.7181 22.3633 24.5488 23.5701L26.0313 25.0526C26.3217 25.3431 26.7024 25.4882 27.0831 25.4882C27.4637 25.4882 27.8444 25.343 28.1349 25.0526C28.7158 24.4717 28.7158 23.5298 28.1349 22.9489L25.1511 19.9651Z" fill="#F6E3A3"/>
<path d="M29.5584 38.9448L35.9812 40.0432C39.5741 40.6577 42.8015 37.7629 42.5802 34.1246C42.3029 29.5681 41.1109 25.114 39.0751 21.0282L36.6335 16.1276C35.7379 14.33 33.9024 13.1938 31.894 13.1938C29.4206 13.1938 27.2767 14.9062 26.7299 17.3184L26.5767 17.9942C25.4331 23.0394 24.856 28.1965 24.856 33.3697C24.8559 36.1256 26.842 38.4802 29.5584 38.9448Z" fill="#EC9EB0"/>
<path d="M11.142 13.6831C10.0687 14.1794 9.1709 15.0298 8.62396 16.1276L6.18231 21.0282C4.14659 25.114 2.95459 29.5681 2.67727 34.1246C2.45585 37.7629 5.6833 40.6576 9.27619 40.0432L15.699 38.9448C16.6752 38.7778 17.5562 38.3658 18.2856 37.7797C12.5245 36.39 7.77511 24.1249 11.142 13.6831Z" fill="#E8899E"/>
<path d="M40.9998 38.3985C40.5793 38.3244 40.1108 38.2711 39.5906 38.2433C33.3118 37.9074 27.8064 24.3024 31.894 13.1938C29.4206 13.1938 27.2767 14.9062 26.7298 17.3184L26.5767 17.9942C25.4331 23.0394 24.856 28.1965 24.856 33.3697C24.856 36.1256 26.8421 38.4802 29.5585 38.9448L35.9813 40.0432C37.9238 40.3755 39.7582 39.6807 40.9998 38.3985Z" fill="#E8899E"/>
<path d="M36.9367 27.2588L36.9366 27.2589C35.9229 27.5309 34.9475 26.7124 35.0394 25.667V25.6669C35.095 25.0335 34.7484 24.4331 34.1721 24.1647L34.1718 24.1646C33.2205 23.7214 32.9993 22.4673 33.7417 21.7256L33.7418 21.7255C34.1915 21.2761 34.312 20.5933 34.0431 20.0172V20.0171C33.5991 19.0662 34.2359 17.9633 35.2814 17.8724H35.2815C35.9149 17.8172 36.4461 17.3715 36.6104 16.7573V16.7572C36.8816 15.7434 38.0783 15.3078 38.9377 15.9102L38.9378 15.9103C39.4584 16.2752 40.1518 16.2752 40.6725 15.9103C41.5319 15.3079 42.7286 15.7435 42.9997 16.7573V16.7574C43.1641 17.3716 43.6952 17.8173 44.3286 17.8724H44.3287C45.3742 17.9635 46.0109 19.0663 45.5671 20.0172V20.0173C45.2981 20.5934 45.4185 21.2762 45.8683 21.7256L45.8684 21.7257C46.6107 22.4675 46.3897 23.7216 45.4383 24.1647L45.438 24.1648C44.8617 24.4332 44.5151 25.0336 44.5707 25.6669V25.6671C44.6626 26.7125 43.687 27.5311 42.6735 27.259H42.6734C42.0594 27.0941 41.4078 27.3313 41.0433 27.8523C40.4418 28.7123 39.1683 28.7123 38.5667 27.8523V27.8522C38.2024 27.3312 37.5508 27.094 36.9367 27.2588Z" fill="#7CA2DD"/>
<path d="M38.5668 27.852C39.1685 28.712 40.4419 28.712 41.0435 27.852C41.4079 27.3311 42.0595 27.0939 42.6735 27.2587C43.3762 27.4473 44.0601 27.1117 44.3833 26.5399C39.3062 25.531 36.9726 19.3139 37.7963 15.6611C37.2518 15.7627 36.7703 16.1591 36.6103 16.7568V16.7569C36.446 17.3712 35.9149 17.8168 35.2815 17.872H35.2814C34.2359 17.9631 33.5992 19.0658 34.043 20.0168V20.0169C34.312 20.593 34.1915 21.2758 33.7418 21.7251L33.7417 21.7252C32.9994 22.4671 33.2204 23.7211 34.1717 24.1642L34.172 24.1643C34.7483 24.4327 35.0949 25.0332 35.0393 25.6665V25.6667C34.9474 26.7121 35.923 27.5307 36.9365 27.2586L36.9367 27.2585C37.5508 27.094 38.2024 27.3311 38.5668 27.852Z" fill="#5A8CD6"/>
<path d="M40.3162 18.3776C40.8225 18.0228 41.5273 18.2794 41.6871 18.8765C41.7838 19.2383 42.0967 19.5008 42.4697 19.5332C43.0856 19.5869 43.4606 20.2364 43.1992 20.7966C43.0407 21.136 43.1117 21.5381 43.3766 21.8028C43.8139 22.2397 43.6837 22.9784 43.1233 23.2394C42.7838 23.3976 42.5796 23.7512 42.6124 24.1243C42.6666 24.7401 42.0919 25.2222 41.4949 25.062C41.1332 24.965 40.7494 25.1046 40.5348 25.4115C40.1805 25.918 39.4304 25.918 39.076 25.4115C38.8613 25.1046 38.4776 24.965 38.1159 25.062C37.5189 25.2223 36.9443 24.7401 36.9985 24.1243C37.0312 23.7512 36.8271 23.3975 36.4876 23.2394C35.9273 22.9784 35.797 22.2397 36.2343 21.8028C36.4993 21.5381 36.5701 21.1359 36.4118 20.7966C36.1503 20.2364 36.5253 19.5869 37.1412 19.5332C37.5143 19.5008 37.8271 19.2382 37.924 18.8765C38.0837 18.2794 38.7885 18.0228 39.2948 18.3776C39.6011 18.5925 40.0095 18.5925 40.3162 18.3776Z" fill="#99DA90"/>
<path d="M41.2227 25.0326C39.404 23.5498 38.2563 21.2761 37.8265 19.1018C37.6823 19.3431 37.4304 19.508 37.1407 19.5333C36.5249 19.5869 36.1499 20.2364 36.4113 20.7966C36.5697 21.136 36.4988 21.5381 36.2338 21.8029C35.7965 22.2398 35.9268 22.9784 36.4871 23.2395C36.8266 23.3976 37.0307 23.7513 36.998 24.1244C36.9438 24.7401 37.5185 25.2223 38.1154 25.0621C38.4771 24.965 38.8609 25.1047 39.0756 25.4116C39.4299 25.9181 40.18 25.9181 40.5343 25.4116C40.6957 25.1813 40.952 25.0452 41.2227 25.0326Z" fill="#79CE6F"/>
<path d="M38.6343 22.1833C38.4582 22.1833 38.2819 22.1161 38.1475 21.9816C37.8786 21.7128 37.8786 21.2768 38.1475 21.008L38.5102 20.6453C38.7792 20.3764 39.2151 20.3764 39.4839 20.6453C39.7528 20.9141 39.7528 21.3501 39.4839 21.6189L39.1211 21.9816C38.9868 22.1161 38.8105 22.1833 38.6343 22.1833Z" fill="#FCF2D0"/>
<path d="M40.7424 23.3822C40.5663 23.3822 40.39 23.315 40.2555 23.1805L40.0547 22.9797C39.7858 22.7108 39.7858 22.2749 40.0547 22.0061C40.3236 21.7372 40.7595 21.7372 41.0284 22.0061L41.2292 22.207C41.4981 22.4758 41.4981 22.9118 41.2292 23.1805C41.0948 23.315 40.9186 23.3822 40.7424 23.3822Z" fill="#FCF2D0"/>
<path d="M4.32677 36.4953L4.32658 36.4954C3.31295 36.7674 2.3375 35.9489 2.42939 34.9035V34.9033C2.48502 34.27 2.13839 33.6696 1.56208 33.4012L1.5619 33.4011C0.61059 32.9579 0.389447 31.7038 1.13191 30.9621L1.132 30.962C1.58172 30.5126 1.70216 29.8298 1.43329 29.2537V29.2536C0.989349 28.3027 1.62606 27.1998 2.67164 27.1088H2.67174C3.30515 27.0537 3.83629 26.608 4.00061 25.9939V25.9938C4.27178 24.9799 5.46846 24.5444 6.32788 25.1467L6.32797 25.1468C6.84865 25.5117 7.542 25.5117 8.06268 25.1468C8.9221 24.5445 10.1188 24.98 10.39 25.9939V25.994C10.5543 26.6082 11.0854 27.0539 11.7188 27.109H11.7189C12.7644 27.2001 13.4011 28.3029 12.9573 29.2538L12.9572 29.2539C12.6883 29.83 12.8087 30.5128 13.2585 30.9622L13.2586 30.9623C14.0009 31.7041 13.7799 32.9581 12.8285 33.4013L12.8283 33.4013C12.252 33.6698 11.9054 34.2702 11.961 34.9035V34.9037C12.0529 35.9491 11.0773 36.7677 10.0638 36.4956H10.0637C9.44966 36.3308 8.79808 36.5679 8.43364 37.0889C7.83199 37.9489 6.55857 37.9489 5.95701 37.0889C5.59239 36.5677 4.94081 36.3305 4.32677 36.4953Z" fill="#7CA2DD"/>
<path d="M5.95658 37.0886C6.55823 37.9486 7.83165 37.9486 8.43321 37.0886C8.79765 36.5677 9.44923 36.3305 10.0633 36.4953C10.7659 36.6839 11.4498 36.3483 11.773 35.7765C6.69592 34.7676 4.36232 28.5505 5.18602 24.8977C4.64157 24.9992 4.15999 25.3957 4.00008 25.9934V25.9936C3.83576 26.6078 3.30462 27.0535 2.67121 27.1086H2.67112C1.62563 27.1996 0.988822 28.3024 1.43276 29.2534V29.2534C1.70164 29.8296 1.58129 30.5124 1.13148 30.9617L1.13138 30.9618C0.389011 31.7036 0.610062 32.9577 1.56137 33.4008L1.56155 33.4009C2.13786 33.6693 2.48449 34.2698 2.42886 34.9031V34.9033C2.33697 35.9487 3.31251 36.7672 4.32606 36.4952L4.32624 36.4951C4.94056 36.3305 5.59214 36.5676 5.95658 37.0886Z" fill="#5A8CD6"/>
<path d="M7.706 27.6139C8.21227 27.2591 8.9171 27.5157 9.07683 28.1128C9.17358 28.4746 9.48643 28.7372 9.8595 28.7697C10.4754 28.8233 10.8504 29.4728 10.5889 30.033C10.4305 30.3724 10.5014 30.7745 10.7664 31.0392C11.2037 31.4762 11.0734 32.2148 10.5131 32.4758C10.1736 32.634 9.96938 32.9876 10.0022 33.3607C10.0564 33.9765 9.48175 34.4586 8.88469 34.2984C8.52301 34.2013 8.1392 34.341 7.92457 34.6479C7.57023 35.1544 6.82015 35.1544 6.4658 34.6479C6.25109 34.341 5.86737 34.2014 5.50569 34.2984C4.90863 34.4586 4.33406 33.9765 4.38813 33.3607C4.4209 32.9876 4.21675 32.6339 3.87728 32.4758C3.31694 32.2149 3.18668 31.4762 3.62391 31.0392C3.88884 30.7745 3.95971 30.3723 3.80136 30.033C3.53992 29.4728 3.91491 28.8233 4.53079 28.7697C4.90386 28.7372 5.2167 28.4746 5.31355 28.1128C5.47328 27.5157 6.17811 27.2591 6.68438 27.6139C6.99089 27.8288 7.3993 27.8288 7.706 27.6139Z" fill="#99DA90"/>
<path d="M8.61237 34.269C6.79366 32.7861 5.64591 30.5125 5.21611 28.3381C5.07198 28.5795 4.82009 28.7443 4.53037 28.7696C3.91459 28.8232 3.5395 29.4728 3.80094 30.0329C3.95939 30.3723 3.88843 30.7745 3.6235 31.0391C3.18617 31.4761 3.31643 32.2147 3.87677 32.4758C4.21624 32.6339 4.42049 32.9875 4.38763 33.3606C4.33346 33.9764 4.90812 34.4585 5.50518 34.2983C5.86686 34.2012 6.25067 34.3409 6.4653 34.6478C6.81964 35.1543 7.56972 35.1543 7.92406 34.6478C8.08535 34.4177 8.34166 34.2816 8.61237 34.269Z" fill="#79CE6F"/>
<path d="M6.02398 31.4199C5.84773 31.4199 5.67157 31.3527 5.53709 31.2183C5.26822 30.9494 5.26822 30.5134 5.53718 30.2447L5.90006 29.8818C6.16893 29.6129 6.60487 29.613 6.87365 29.8819C7.14253 30.1507 7.14253 30.5867 6.87356 30.8555L6.51069 31.2184C6.37639 31.3527 6.20014 31.4199 6.02398 31.4199Z" fill="#FCF2D0"/>
<path d="M8.13206 32.6188C7.9559 32.6188 7.77975 32.5516 7.64526 32.4172L7.44441 32.2165C7.17545 31.9477 7.17545 31.5118 7.44432 31.2428C7.71301 30.9738 8.14895 30.9737 8.41792 31.2427L8.61877 31.4435C8.88774 31.7122 8.88774 32.1482 8.61886 32.4171C8.48456 32.5516 8.30831 32.6188 8.13206 32.6188Z" fill="#FCF2D0"/>
<path d="M46.3551 21.2383C46.1112 20.9945 46.0453 20.6207 46.1911 20.3081C46.4946 19.6581 46.4616 18.899 46.1029 18.2777C45.7453 17.6585 45.1075 17.2511 44.3958 17.1868C44.3933 17.1866 44.3909 17.1863 44.3885 17.1862C44.045 17.1562 43.7542 16.9122 43.665 16.579C43.4796 15.8859 42.9665 15.3257 42.2924 15.0803C41.618 14.8348 40.865 14.9342 40.2775 15.3461C39.9951 15.544 39.6155 15.544 39.3331 15.3461C39.33 15.3439 39.3269 15.3417 39.3237 15.3395C38.7376 14.9333 37.989 14.8362 37.3181 15.0803C37.1834 15.1293 37.0555 15.1914 36.9351 15.2641C35.8423 13.5477 33.9635 12.5053 31.8939 12.5053C29.08 12.5053 26.6803 14.4219 26.0584 17.1661L25.9052 17.8419C25.787 18.3632 25.6763 18.8863 25.5701 19.4103L24.9968 18.8371C24.8728 18.7131 24.8046 18.5483 24.8046 18.3731V8.41005C24.8046 7.21631 23.8917 6.24095 22.7262 6.18954C22.1251 6.16246 21.5572 6.37672 21.1243 6.791C20.691 7.20557 20.4525 7.76398 20.4525 8.36342V18.3733C20.4525 18.5485 20.3842 18.7133 20.2603 18.8372L19.687 19.4105C19.5808 18.8864 19.4701 18.3634 19.352 17.8421L19.1987 17.1664C18.5768 14.4221 16.177 12.5055 13.3631 12.5055C11.2297 12.5055 9.24313 13.6536 8.17863 15.5017C7.98889 15.8311 8.10207 16.2521 8.43163 16.4419C8.76118 16.6316 9.18217 16.5184 9.37183 16.1889C10.1912 14.7663 11.7206 13.8825 13.3631 13.8825C15.5296 13.8825 17.377 15.3581 17.8558 17.4708L18.009 18.1465C19.1395 23.134 19.7128 28.2559 19.7128 33.3699C19.7128 35.7978 17.9758 37.8571 15.5826 38.2663L9.15986 39.3647C7.19143 39.7013 5.25173 38.8138 4.18596 37.2202C4.29272 37.2079 4.3993 37.1888 4.50468 37.1605C4.50652 37.16 4.50826 37.1594 4.51 37.159C4.84231 37.0722 5.19574 37.2024 5.39237 37.4835C5.80363 38.0713 6.47743 38.4223 7.19492 38.4223C7.91223 38.4223 8.58613 38.0714 8.99738 37.4835C9.19502 37.2009 9.55157 37.0711 9.88489 37.1605C10.5779 37.3465 11.3194 37.1822 11.8689 36.7212C12.4185 36.2601 12.7092 35.558 12.6465 34.8432C12.6163 34.4997 12.8059 34.171 13.1187 34.0254C13.1214 34.024 13.1243 34.0227 13.1272 34.0213C13.7731 33.7172 14.2324 33.1167 14.3564 32.4132C14.4809 31.7067 14.2523 30.9822 13.7447 30.4752C13.5008 30.2313 13.4349 29.8575 13.5808 29.545C13.8843 28.8949 13.8512 28.1359 13.4926 27.5147C13.1339 26.8934 12.493 26.4853 11.7782 26.4231C11.4346 26.3932 11.1439 26.1492 11.0547 25.8159C10.8692 25.1229 10.3562 24.5626 9.68201 24.3172C9.00785 24.0719 8.25464 24.1711 7.66713 24.583C7.38476 24.7809 7.00508 24.7809 6.72271 24.5829C6.37112 24.3366 5.96014 24.203 5.54228 24.1872C5.91727 23.2167 6.33697 22.2616 6.79844 21.3355L7.95171 19.0207C8.12135 18.6804 7.98283 18.2671 7.64253 18.0975C7.30214 17.9279 6.88877 18.0664 6.71922 18.4068L5.56596 20.7216C4.88858 22.081 4.29611 23.4999 3.80206 24.9406C3.58486 25.19 3.42284 25.4878 3.33508 25.8161C3.24585 26.1493 2.95512 26.3933 2.61143 26.4232C1.89678 26.4854 1.25594 26.8935 0.897189 27.5147C0.538533 28.136 0.505486 28.8951 0.808971 29.5452C0.954839 29.8578 0.888928 30.2316 0.644928 30.4754C0.137467 30.9825 -0.091203 31.7071 0.0333673 32.4136C0.157479 33.1169 0.616562 33.7174 1.26236 34.0216C1.2653 34.023 1.26824 34.0244 1.27108 34.0257C1.58375 34.1713 1.7735 34.5 1.74329 34.8437C1.68867 35.466 1.90201 36.0784 2.3208 36.5308C3.20647 39.1109 5.65647 40.8129 8.32781 40.8129C8.67967 40.8129 9.03575 40.7834 9.39221 40.7224L15.815 39.6241C18.8715 39.1013 21.09 36.4712 21.09 33.3704C21.09 30.4749 20.9091 27.5769 20.5516 24.7013L22.1647 23.0882C22.2887 22.9643 22.4534 22.896 22.6287 22.896C22.8039 22.896 22.9687 22.9642 23.0926 23.0881L24.7059 24.7014C24.3484 27.577 24.1675 30.475 24.1675 33.3705C24.1675 36.4714 26.3859 39.1015 29.4424 39.6241L35.8652 40.7225C36.2232 40.7837 36.5806 40.8135 36.9346 40.8135C39.3861 40.8133 41.668 39.3866 42.7123 37.098C42.8702 36.752 42.7178 36.3437 42.3718 36.1858C42.0259 36.0279 41.6174 36.1805 41.4596 36.5263C40.5234 38.5777 38.3179 39.7449 36.0973 39.3652L29.6746 38.2668C27.2815 37.8576 25.5445 35.7983 25.5445 33.3704C25.5445 28.2563 26.1177 23.1344 27.2483 18.147L27.4015 17.4713C27.8804 15.3585 29.7278 13.883 31.8941 13.883C33.6415 13.883 35.2118 14.8484 36.0014 16.4045C35.9808 16.462 35.9615 16.5202 35.9456 16.5797C35.8565 16.913 35.5657 17.157 35.222 17.1869C34.5073 17.249 33.8665 17.6571 33.5077 18.2784C33.1491 18.8997 33.116 19.6587 33.4195 20.3089C33.5654 20.6214 33.4995 20.9953 33.2555 21.239C32.748 21.7461 32.5192 22.4705 32.6439 23.1771C32.7683 23.8828 33.23 24.4849 33.8791 24.7882C33.88 24.7885 33.8808 24.7889 33.8815 24.7893C34.1942 24.9349 34.3839 25.2637 34.3537 25.6072C34.3536 25.6092 34.3535 25.6112 34.3533 25.6133C34.2926 26.3259 34.583 27.0252 35.1311 27.4851C35.6802 27.9458 36.4211 28.1103 37.1135 27.925C37.1142 27.9248 37.1148 27.9246 37.1155 27.9244C37.4483 27.8351 37.8053 27.9648 38.003 28.2474C38.4142 28.8352 39.0879 29.1862 39.8054 29.1862H39.8055C40.2815 29.1862 40.7378 29.0309 41.1116 28.7551C41.4898 30.4076 41.7449 32.0923 41.8672 33.7795C41.8935 34.1419 42.1956 34.4182 42.5532 34.4182C42.57 34.4182 42.5868 34.4175 42.6038 34.4163C42.983 34.3888 43.2682 34.0591 43.2407 33.6798C43.0996 31.7359 42.7909 29.795 42.3247 27.8997C42.3818 27.9025 42.4389 27.9091 42.4955 27.9244C43.1886 28.1103 43.9302 27.9459 44.4798 27.4848C45.0278 27.025 45.3183 26.3257 45.2576 25.6131C45.2574 25.6111 45.2574 25.609 45.2571 25.607C45.2271 25.265 45.415 24.9379 45.7249 24.7912C45.7265 24.7905 45.728 24.7897 45.7296 24.7891C46.3799 24.4861 46.8424 23.8836 46.967 23.1771C47.0912 22.47 46.8626 21.7454 46.3551 21.2383ZM4.14263 35.832C3.88119 35.9003 3.61304 35.8401 3.40576 35.6662C3.1972 35.4911 3.09117 35.2351 3.11504 34.9637C3.19545 34.0484 2.69185 33.1726 1.86116 32.7812C1.85832 32.7798 1.85529 32.7784 1.85235 32.777C1.60551 32.662 1.43687 32.4423 1.3895 32.1742C1.34223 31.9059 1.42567 31.6416 1.61827 31.4491C2.27049 30.7974 2.44675 29.798 2.05669 28.9624C1.94149 28.7157 1.95351 28.4389 2.08965 28.2031C2.22579 27.9672 2.4596 27.8183 2.73095 27.7947C3.64958 27.7148 4.42693 27.0625 4.66514 26.1716C4.73555 25.9085 4.92264 25.7042 5.17857 25.6111C5.4346 25.518 5.70935 25.5542 5.93233 25.7105C6.68764 26.2398 7.7022 26.2397 8.45733 25.7105C8.68031 25.5541 8.95515 25.518 9.2109 25.611C9.46684 25.7042 9.65402 25.9086 9.72442 26.1717C9.96282 27.0626 10.7401 27.7148 11.6588 27.7947C11.9301 27.8183 12.1638 27.9671 12.2999 28.203C12.4361 28.4388 12.4481 28.7157 12.3329 28.9625C11.9428 29.798 12.1191 30.7974 12.7714 31.4492C12.9641 31.6417 13.0474 31.9059 13.0001 32.1741C12.9528 32.4423 12.7841 32.6621 12.5372 32.777C12.5344 32.7784 12.5314 32.7798 12.5285 32.7811C11.6977 33.1725 11.1941 34.0484 11.2745 34.9639C11.2984 35.2352 11.1924 35.4912 10.9838 35.6662C10.7753 35.8412 10.505 35.9012 10.2416 35.8305C9.35099 35.5913 8.39748 35.9385 7.86881 36.6941C7.71276 36.9172 7.46701 37.0452 7.19474 37.0452C6.92237 37.0452 6.67654 36.9172 6.52039 36.6941C6.10316 36.0977 5.42119 35.7558 4.71426 35.7558C4.5257 35.7558 4.33531 35.7801 4.14777 35.8305C4.14621 35.8309 4.14437 35.8314 4.14263 35.832ZM21.8296 8.36333C21.8296 8.14319 21.9173 7.93812 22.0763 7.78582C22.2353 7.63371 22.4446 7.55523 22.6656 7.56514C23.0858 7.58368 23.4277 7.96272 23.4277 8.41005V11.3476H21.8296V8.36333ZM21.8296 12.7245H23.4277V15.2724H21.8296V12.7245ZM24.9409 22.9885L24.0663 22.1139C23.6823 21.7299 23.1717 21.5184 22.6286 21.5184C22.0856 21.5184 21.5749 21.7299 21.191 22.1139L20.3164 22.9884C20.2195 22.3396 20.1135 21.6922 19.9986 21.0464L21.2343 19.8107C21.6182 19.4266 21.8296 18.9161 21.8296 18.3731V16.6494H23.4277V18.3731C23.4277 18.9162 23.6392 19.4267 24.0231 19.8108L25.2587 21.0464C25.1437 21.6922 25.0378 22.3396 24.9409 22.9885ZM45.6106 22.9374C45.5635 23.2041 45.3965 23.4228 45.152 23.5384C45.1504 23.5391 45.149 23.5398 45.1475 23.5405C44.3135 23.929 43.8066 24.8049 43.8846 25.7213C43.8848 25.7233 43.885 25.7253 43.8851 25.7273C43.9089 25.9986 43.8029 26.2545 43.5943 26.4296C43.3859 26.6047 43.1151 26.6646 42.8521 26.594C42.2783 26.44 41.6791 26.5304 41.1835 26.8155C41.1579 26.8285 41.1338 26.8432 41.1104 26.859C40.8667 27.012 40.6505 27.213 40.4793 27.4577C40.3233 27.6808 40.0775 27.8088 39.8052 27.8088C39.5328 27.8088 39.287 27.6807 39.1309 27.4577C38.7137 26.8611 38.0317 26.5194 37.3249 26.5194C37.1369 26.5194 36.9471 26.5435 36.7602 26.5936C36.7595 26.5937 36.7588 26.5939 36.7581 26.5941C36.4951 26.6647 36.2245 26.6048 36.016 26.4298C35.8074 26.2547 35.7014 25.9988 35.7253 25.7275C35.7254 25.7256 35.7256 25.7236 35.7257 25.7216C35.8039 24.8062 35.2981 23.9315 34.4659 23.5422C34.4648 23.5417 34.4637 23.5412 34.4626 23.5406C34.2158 23.4256 34.047 23.2058 33.9998 22.9376C33.9524 22.6694 34.0358 22.4052 34.2285 22.2127C34.8807 21.5609 35.057 20.5616 34.6669 19.726C34.5517 19.4792 34.5638 19.2024 34.6999 18.9666C34.836 18.7308 35.0698 18.5819 35.3411 18.5583C36.2598 18.4783 37.0372 17.826 37.2754 16.9352C37.3458 16.6721 37.533 16.4677 37.7889 16.3747C38.0445 16.2815 38.3193 16.3176 38.5424 16.4741C38.5455 16.4763 38.5487 16.4785 38.5519 16.4806C39.306 17.0034 40.3154 17.0011 41.0675 16.4741C41.2905 16.3177 41.5652 16.2816 41.8211 16.3747C42.077 16.4679 42.2642 16.6722 42.3346 16.9354C42.5723 17.8238 43.3461 18.4749 44.2614 18.5577L44.269 18.5584C44.5402 18.5819 44.7739 18.7308 44.91 18.9666C45.0462 19.2024 45.0582 19.4794 44.943 19.7261C44.553 20.5617 44.7292 21.561 45.3816 22.2128C45.5746 22.405 45.658 22.6692 45.6106 22.9374Z" fill="black"/>
</g>
<defs>
<clipPath id="clip0_1204_57322">
<rect width="47" height="47" fill="white"/>
</clipPath>
</defs>
</svg>
