<svg width="47" height="47" viewBox="0 0 47 47" fill="none" xmlns="http://www.w3.org/2000/svg">
<path d="M30.6332 0.688721H16.3661C12.1301 0.688721 8.69629 4.12265 8.69629 8.35852V27.0054C8.69629 29.377 9.41313 31.6932 10.7528 33.6504C13.5202 37.6931 18.104 40.1101 23.0032 40.1101H23.9962C28.8954 40.1101 33.4791 37.693 36.2466 33.6504C37.5863 31.6933 38.3031 29.377 38.3031 27.0054V8.35852C38.303 4.12265 34.8692 0.688721 30.6332 0.688721Z" fill="#FFB123"/>
<path d="M33.8347 1.38892V29.379C33.8347 30.2044 33.5852 31.0104 33.119 31.6915L29.4936 36.9876C28.156 38.9417 25.9403 40.1101 23.5723 40.1101H23.9965C28.8956 40.1101 33.4793 37.693 36.2468 33.6503C37.5865 31.6933 38.3033 29.377 38.3033 27.0053V8.3584C38.3033 5.26558 36.4715 2.6021 33.8347 1.38892Z" fill="#FF901D"/>
<path d="M15.8828 38.289C18.0355 39.4658 20.4771 40.11 23.0034 40.11H23.9964C26.5227 40.11 28.9643 39.4658 31.117 38.289V31.7074C31.117 31.354 30.8306 31.0676 30.4773 31.0676H16.5225C16.1692 31.0676 15.8828 31.354 15.8828 31.7074V38.289Z" fill="#2C5871"/>
<path d="M30.4772 31.0676H16.5225C16.1692 31.0676 15.8828 31.354 15.8828 31.7074V35.6127H31.1169V31.7074C31.1169 31.354 30.8305 31.0676 30.4772 31.0676Z" fill="#1D4859"/>
<path d="M26.1032 46.3112H20.8969C20.7109 46.3112 20.5601 46.1604 20.5601 45.9744V31.0676H26.44V45.9744C26.44 46.1604 26.2892 46.3112 26.1032 46.3112Z" fill="#E1EFFB"/>
<path d="M21.9102 31.0676V46.3112H26.1031C26.289 46.3112 26.4399 46.1604 26.4399 45.9744V31.0676H21.9102Z" fill="#BACED8"/>
<path d="M26.4392 34.0088H20.5596V38.1681H26.4392V34.0088Z" fill="#F9644B"/>
<path d="M26.4394 34.0088H21.9102V38.1681H26.4394V34.0088Z" fill="#DB3F2E"/>
<path d="M33.6081 21.1997H13.3915C13.0289 21.1997 12.7349 20.9058 12.7349 20.5431V9.24549C12.7349 8.88289 13.0288 8.58887 13.3915 8.58887H33.6081C33.9707 8.58887 34.2647 8.8828 34.2647 9.24549V20.5431C34.2646 20.9058 33.9707 21.1997 33.6081 21.1997Z" fill="#E1EFFB"/>
<path d="M33.608 8.58887H29.7349V21.1997H33.608C33.9706 21.1997 34.2647 20.9058 34.2647 20.5431V9.24549C34.2646 8.88289 33.9706 8.58887 33.608 8.58887Z" fill="#BACED8"/>
<path d="M19.8055 13.9244C21.1436 13.9244 22.1877 14.5021 22.1877 16.0936V16.2862C22.1877 17.9486 21.1335 18.567 19.8258 18.567C18.2749 18.567 17.4336 17.6749 17.4336 16.7322C17.4336 16.2659 17.6769 16.1342 18.0925 16.1342C18.65 16.1342 18.7514 16.3572 18.7514 16.641C18.7514 17.1377 19.2076 17.4113 19.7955 17.4113C20.4645 17.4113 20.87 17.0566 20.87 16.2862V16.0936C20.87 15.3232 20.4645 14.9583 19.8056 14.9583H18.3053C17.8897 14.9583 17.7781 14.7555 17.7781 14.4413C17.7781 14.3602 17.7882 14.269 17.7882 14.1777L18.0518 11.5118C18.0721 11.2584 18.1532 11.0962 18.3052 11.0962H21.4272C21.6909 11.0962 21.8226 11.3901 21.8226 11.6741C21.8226 11.968 21.6909 12.2518 21.4272 12.2518H19.1465L19.0248 13.9244H19.8055Z" fill="black"/>
<path d="M24.0624 17.8775C24.0624 18.2425 23.748 18.5668 23.3832 18.5668C22.9879 18.5668 22.6938 18.2424 22.6938 17.8775C22.6938 17.5025 22.9879 17.1882 23.3832 17.1882C23.7481 17.1882 24.0624 17.5025 24.0624 17.8775Z" fill="black"/>
<path d="M29.1913 12.8904C29.1913 13.7419 28.796 14.2487 28.2183 14.4514C28.948 14.7149 29.4245 15.313 29.4245 16.3571V16.4787C29.4245 17.989 28.3906 18.5669 27.0526 18.5669C25.7145 18.5669 24.6704 17.989 24.6704 16.4787V16.3571C24.6704 15.313 25.157 14.7149 25.8767 14.4514C25.2989 14.2487 24.9037 13.7419 24.9037 12.8904C24.9037 11.603 25.8058 11.0962 27.0526 11.0962C28.2892 11.0962 29.1913 11.6031 29.1913 12.8904ZM28.1067 16.124C28.1067 15.3536 27.7114 15.0089 27.0526 15.0089C26.3835 15.0089 25.9882 15.3535 25.9882 16.124V16.3268C25.9882 17.1275 26.3936 17.4925 27.0526 17.4925C27.7216 17.4925 28.1067 17.1174 28.1067 16.3268V16.124ZM26.1807 13.0526C26.1807 13.681 26.4951 13.9345 27.0525 13.9345C27.5998 13.9345 27.9242 13.681 27.9242 13.0526C27.9242 12.4241 27.5998 12.1707 27.0525 12.1707C26.4951 12.1707 26.1807 12.4241 26.1807 13.0526Z" fill="black"/>
<path d="M18.1574 23.7644C17.777 23.7644 17.4688 24.0727 17.4688 24.4531C17.4688 24.8334 17.777 25.1417 18.1574 25.1417H34.2649C34.6453 25.1417 34.9535 24.8334 34.9535 24.4531C34.9535 24.0727 34.6453 23.7644 34.2649 23.7644H18.1574Z" fill="black"/>
<path d="M12.735 23.7644C12.3546 23.7644 12.0464 24.0727 12.0464 24.4531C12.0464 24.8334 12.3546 25.1417 12.735 25.1417H14.9131C15.2935 25.1417 15.6018 24.8334 15.6018 24.4531C15.6018 24.0727 15.2935 23.7644 14.9131 23.7644H12.735Z" fill="black"/>
<path d="M34.9535 9.24558C34.9535 8.50377 34.35 7.90039 33.6082 7.90039H13.3916C12.6499 7.90039 12.0464 8.50386 12.0464 9.24558V20.5433C12.0464 21.2851 12.6499 21.8885 13.3916 21.8885H33.6081C34.35 21.8885 34.9534 21.285 34.9534 20.5433V9.24558H34.9535ZM33.5762 20.5111H13.4237V9.27762H33.5762V20.5111Z" fill="black"/>
<path d="M38.3032 10.9189C37.9228 10.9189 37.6145 11.2272 37.6145 11.6075V27.0054C37.6145 29.2477 36.945 31.411 35.6784 33.2613C34.6415 34.7761 33.3181 36.0634 31.8055 37.0637V31.7074C31.8055 30.975 31.2095 30.379 30.4772 30.379H16.5224C15.79 30.379 15.194 30.975 15.194 31.7074V37.0637C13.6814 36.0633 12.358 34.776 11.3211 33.2613C10.0546 31.4109 9.38504 29.2476 9.38504 27.0054V8.35846C9.38504 4.50905 12.5168 1.37732 16.3662 1.37732H30.6333C34.4827 1.37732 37.6145 4.50905 37.6145 8.35846C37.6145 8.73877 37.9228 9.04712 38.3032 9.04712C38.6836 9.04712 38.9919 8.73877 38.9919 8.35846C38.9919 3.74962 35.2422 0 30.6333 0H16.3662C11.7572 0 8.00781 3.74962 8.00781 8.35846V27.0053C8.00781 29.5265 8.76054 31.9587 10.1848 34.0393C11.5546 36.0404 13.3798 37.6802 15.4751 38.8431C15.5228 38.8783 15.5751 38.9076 15.6312 38.9296C16.9549 39.6448 18.3835 40.1696 19.8712 40.4768V45.9745C19.8712 46.54 20.3312 47 20.8967 47H26.103C26.6685 47 27.1286 46.54 27.1286 45.9745V40.4768C28.6163 40.1696 30.0448 39.6449 31.3684 38.9298C31.4247 38.9077 31.4771 38.8784 31.5249 38.843C33.6201 37.6801 35.4452 36.0403 36.815 34.0393C38.2393 31.9588 38.992 29.5266 38.992 27.0053V11.6074C38.9919 11.2271 38.6836 10.9189 38.3032 10.9189ZM19.8712 31.7563V39.0678C18.7212 38.8059 17.6128 38.4008 16.5713 37.8683V31.7563H19.8712ZM25.7512 45.6226H21.2485V38.8569H25.7512V45.6226ZM25.7512 37.4797H21.2485V34.6974H25.7512V37.4797ZM25.7512 33.3202H21.2485V31.7563H25.7512V33.3202ZM30.4281 37.8683C29.3867 38.4008 28.2783 38.8059 27.1284 39.0678V31.7563H30.4281V37.8683Z" fill="black"/>
</svg>
