<svg xmlns="http://www.w3.org/2000/svg" width="21" height="24" viewBox="0 0 21 24" fill="none">
<path d="M20.0352 18.142C19.6848 18.9528 19.27 19.6992 18.7894 20.3855C18.1343 21.3209 17.5979 21.9685 17.1845 22.3281C16.5437 22.9183 15.8572 23.2206 15.122 23.2378C14.5942 23.2378 13.9577 23.0874 13.2168 22.7822C12.4734 22.4785 11.7903 22.3281 11.1656 22.3281C10.5105 22.3281 9.80795 22.4785 9.05645 22.7822C8.3038 23.0874 7.69748 23.2464 7.2339 23.2621C6.52888 23.2922 5.82615 22.9814 5.12471 22.3281C4.67701 21.937 4.11703 21.2665 3.4462 20.3167C2.72645 19.3024 2.13471 18.1262 1.67114 16.7853C1.17466 15.3369 0.925781 13.9344 0.925781 12.5765C0.925781 11.0212 1.26134 9.67966 1.93346 8.55548C2.46169 7.65251 3.16442 6.94021 4.04394 6.4173C4.92346 5.8944 5.87378 5.62793 6.8972 5.61088C7.45718 5.61088 8.19152 5.78437 9.10408 6.12534C10.0141 6.46745 10.5984 6.64094 10.8545 6.64094C11.0461 6.64094 11.6952 6.43808 12.7955 6.03365C13.8361 5.65859 14.7143 5.50329 15.4338 5.56447C17.3834 5.72206 18.848 6.4918 19.8221 7.87857C18.0785 8.9367 17.216 10.4187 17.2332 12.32C17.2489 13.8009 17.7853 15.0332 18.8395 16.0117C19.3172 16.4658 19.8507 16.8168 20.4443 17.0661C20.3156 17.44 20.1797 17.7981 20.0352 18.142ZM15.564 0.519368C15.564 1.68009 15.1406 2.76385 14.2967 3.76696C13.2783 4.95947 12.0464 5.64856 10.7106 5.53983C10.6936 5.40058 10.6838 5.25402 10.6838 5.10001C10.6838 3.98572 11.1681 2.79322 12.0281 1.81818C12.4575 1.3245 13.0036 0.91401 13.6659 0.586556C14.3267 0.263989 14.9518 0.0856017 15.5396 0.0550537C15.5568 0.210224 15.564 0.365404 15.564 0.519352V0.519368Z" fill="black"/>
</svg>