<svg width="30" height="22" viewBox="0 0 30 22" fill="none" xmlns="http://www.w3.org/2000/svg">
<path d="M29.3819 3.79849C29.0361 2.51333 28.0228 1.5003 26.7379 1.15423C24.3902 0.511765 14.9997 0.511765 14.9997 0.511765C14.9997 0.511765 5.60941 0.511765 3.26178 1.12974C2.00156 1.47558 0.963588 2.51356 0.61775 3.79849C0 6.14589 0 11.0142 0 11.0142C0 11.0142 0 15.907 0.61775 18.2299C0.963817 19.5148 1.97684 20.5281 3.26201 20.8741C5.63413 21.5166 14.9999 21.5166 14.9999 21.5166C14.9999 21.5166 24.3902 21.5166 26.7379 20.8986C28.023 20.5528 29.0361 19.5395 29.3821 18.2546C29.9999 15.907 29.9999 11.0389 29.9999 11.0389C29.9999 11.0389 30.0246 6.14589 29.3819 3.79849Z" fill="#FF0000"/>
<path d="M12.0098 15.5117L19.8185 11.0142L12.0098 6.51668V15.5117Z" fill="white"/>
</svg>
